<svg width="100" height="125" viewBox="0 0 100 125" fill="none" xmlns="http://www.w3.org/2000/svg">
<g clip-path="url(#clip0)">
<path d="M74.1 43.0999C75.2 43.0999 76.2 43.2 77.3 43.2999V22.1C77.3 15.4 71.8 9.89995 65.1 9.89995H57.3V6.89995C57.3 5.09995 55.9 3.69995 54.1 3.69995C52.3 3.69995 50.9 5.09995 50.9 6.89995V9.89995H28.9V6.89995C28.9 5.09995 27.5 3.69995 25.7 3.69995C23.9 3.69995 22.5 5.09995 22.5 6.89995V9.89995H14.8C8 9.89995 2.5 15.4 2.5 22.1V63.9C2.5 70.6 8 76.1 14.7 76.1H44.4C44.3 75 44.2 74 44.2 72.9C44.3 56.5 57.7 43.0999 74.1 43.0999ZM8.9 28.4V22.2C8.9 19 11.5 16.3 14.8 16.3H22.5V19.3C22.5 21.1 23.9 22.5 25.7 22.5C27.5 22.5 28.9 21.1 28.9 19.3V16.3H50.9V19.3C50.9 21.1 52.3 22.5 54.1 22.5C55.9 22.5 57.3 21.1 57.3 19.3V16.3H65.1C68.3 16.3 70.9 18.9 70.9 22.2V28.4H8.9Z" fill="#CD0866"/>
<path d="M74.1 49.5C61.2 49.5 50.7 60 50.7 72.9C50.7 85.8 61.2 96.3 74.1 96.3C87 96.3 97.5 85.8 97.5 72.9C97.5 60 87 49.5 74.1 49.5ZM82.9 76.1H74.1C72.3 76.1 70.9 74.7 70.9 72.9V62C70.9 60.2 72.3 58.8 74.1 58.8C75.9 58.8 77.3 60.2 77.3 62V69.7H82.9C84.7 69.7 86.1 71.1 86.1 72.9C86.1 74.7 84.7 76.1 82.9 76.1Z" fill="#CD0866"/>
</g>
<defs>
<clipPath id="clip0">
<rect width="100" height="125" fill="white"/>
</clipPath>
</defs>
</svg>
