<svg width="24" height="32" viewBox="0 0 24 32" fill="none" xmlns="http://www.w3.org/2000/svg">
<path d="M10.3636 19.6364C10.3636 19.4918 10.421 19.353 10.5233 19.2507C10.6256 19.1484 10.7644 19.091 10.909 19.091H13.0909C13.2355 19.091 13.3743 19.1484 13.4765 19.2507C13.5788 19.353 13.6363 19.4918 13.6363 19.6364V20.7273H14.1818V20.1819C14.1827 19.8443 14.2881 19.5152 14.4834 19.2398C14.6787 18.9645 14.9544 18.7562 15.2727 18.6437V3.27279C15.2727 2.98347 15.1577 2.70599 14.9532 2.5014C14.7486 2.29682 14.4711 2.18188 14.1818 2.18188H13.0909V2.72734C13.0909 3.16133 12.9185 3.57755 12.6116 3.88442C12.3047 4.1913 11.8885 4.3637 11.4545 4.3637H5.99994C5.56595 4.3637 5.14974 4.1913 4.84286 3.88442C4.53598 3.57755 4.36358 3.16133 4.36358 2.72734V2.18188H3.27267C2.98334 2.18188 2.70587 2.29682 2.50128 2.5014C2.2967 2.70599 2.18176 2.98347 2.18176 3.27279V27.2728C2.18176 27.5621 2.2967 27.8396 2.50128 28.0442C2.70587 28.2488 2.98334 28.3637 3.27267 28.3637H8.72722V22.3637C8.72722 21.9297 8.89962 21.5135 9.2065 21.2066C9.51337 20.8997 9.92959 20.7273 10.3636 20.7273V19.6364ZM8.72722 16.9092C7.75629 16.9092 6.80717 16.6212 5.99987 16.0818C5.19258 15.5424 4.56337 14.7757 4.19181 13.8787C3.82025 12.9817 3.72303 11.9946 3.91245 11.0424C4.10187 10.0901 4.56942 9.21536 5.25597 8.52882C5.94251 7.84227 6.81723 7.37472 7.7695 7.1853C8.72177 6.99588 9.70883 7.0931 10.6058 7.46466C11.5029 7.83622 12.2696 8.46543 12.809 9.27272C13.3484 10.08 13.6363 11.0291 13.6363 12.0001C13.6363 13.302 13.1191 14.5507 12.1985 15.4713C11.2778 16.392 10.0292 16.9092 8.72722 16.9092Z" fill="#20EF41"/>
<path d="M22.3636 20.1819H21.2727V20.7273H22.3636V20.1819Z" fill="#20EF41"/>
<path d="M15.2727 20.1819V20.7274H18.5454V20.1819C18.5454 20.0373 18.488 19.8985 18.3857 19.7962C18.2834 19.6939 18.1446 19.6365 18 19.6365H15.8182C15.6735 19.6365 15.5348 19.6939 15.4325 19.7962C15.3302 19.8985 15.2727 20.0373 15.2727 20.1819Z" fill="#20EF41"/>
<path d="M19.6364 25.0907H20.7273V24.2234L20.1818 23.678L19.6364 24.2234V25.0907Z" fill="#20EF41"/>
<path d="M1.09091 27.2727V3.27273C1.09091 2.69407 1.32078 2.13912 1.72995 1.72995C2.13912 1.32078 2.69407 1.09091 3.27273 1.09091H4.90909C5.05375 1.09091 5.19249 1.14838 5.29479 1.25067C5.39708 1.35296 5.45455 1.4917 5.45455 1.63636V2.72727C5.45455 2.87194 5.51201 3.01067 5.61431 3.11297C5.7166 3.21526 5.85534 3.27273 6 3.27273H11.4545C11.5992 3.27273 11.7379 3.21526 11.8402 3.11297C11.9425 3.01067 12 2.87194 12 2.72727V1.63636C12 1.4917 12.0575 1.35296 12.1598 1.25067C12.2621 1.14838 12.4008 1.09091 12.5455 1.09091H14.1818C14.7605 1.09091 15.3154 1.32078 15.7246 1.72995C16.1338 2.13912 16.3636 2.69407 16.3636 3.27273V18.5455H17.4545V2.72727C17.4545 2.00396 17.1672 1.31026 16.6557 0.7988C16.1443 0.287337 15.4506 0 14.7273 0H2.72727C2.00396 0 1.31026 0.287337 0.7988 0.7988C0.287337 1.31026 0 2.00396 0 2.72727V27.8182C0 28.5415 0.287337 29.2352 0.7988 29.7467C1.31026 30.2581 2.00396 30.5455 2.72727 30.5455H8.72727V29.4545H3.27273C2.69407 29.4545 2.13912 29.2247 1.72995 28.8155C1.32078 28.4063 1.09091 27.8514 1.09091 27.2727ZM6.54545 1.09091H10.9091V2.18182H6.54545V1.09091Z" fill="#20EF41"/>
<path d="M24.0001 28.3635H9.81824V29.4544H24.0001V28.3635Z" fill="#20EF41"/>
<path d="M23.4546 21.8181H20.7273V22.6854L21.6601 23.6127C21.7106 23.6636 21.7506 23.7241 21.7777 23.7905C21.8049 23.857 21.8187 23.9281 21.8182 23.9999V25.6363C21.8182 25.781 21.7608 25.9197 21.6585 26.022C21.5562 26.1243 21.4174 26.1818 21.2728 26.1818H19.091C18.9463 26.1818 18.8076 26.1243 18.7053 26.022C18.603 25.9197 18.5455 25.781 18.5455 25.6363V23.9999C18.5451 23.9281 18.5589 23.857 18.586 23.7905C18.6131 23.7241 18.6531 23.6636 18.7037 23.6127L19.6364 22.6854V21.8181H10.3637C10.219 21.8181 10.0803 21.8756 9.978 21.9779C9.8757 22.0802 9.81824 22.2189 9.81824 22.3636V27.2727H24.0001V22.3636C24.0001 22.2189 23.9426 22.0802 23.8403 21.9779C23.738 21.8756 23.5993 21.8181 23.4546 21.8181Z" fill="#20EF41"/>
<path d="M9.81824 31.0909C9.81824 31.2355 9.8757 31.3743 9.978 31.4766C10.0803 31.5789 10.219 31.6363 10.3637 31.6363H23.4546C23.5993 31.6363 23.738 31.5789 23.8403 31.4766C23.9426 31.3743 24.0001 31.2355 24.0001 31.0909V30.5454H9.81824V31.0909Z" fill="#20EF41"/>
<path d="M12.5455 20.1819H11.4546V20.7273H12.5455V20.1819Z" fill="#20EF41"/>
<path d="M7.63643 12.8673L6.38734 11.6127L5.61279 12.3873L7.24916 14.0236C7.29986 14.0748 7.36019 14.1153 7.42666 14.143C7.49313 14.1707 7.56442 14.185 7.63643 14.185C7.70844 14.185 7.77973 14.1707 7.8462 14.143C7.91267 14.1153 7.97299 14.0748 8.0237 14.0236L11.8419 10.2055L11.0673 9.43091L7.63643 12.8673Z" fill="#20EF41"/>
</svg>
