<svg width="170" height="171" viewBox="0 0 170 171" fill="none" xmlns="http://www.w3.org/2000/svg">
<path d="M86.0148 114.267C84.6869 114.27 83.4059 113.774 82.4232 112.875L52.5469 85.312C52.0229 84.8375 51.5968 84.2639 51.2932 83.6239C50.9895 82.9839 50.8141 82.2899 50.7771 81.5817C50.74 80.8735 50.842 80.1649 51.0772 79.4963C51.3124 78.8278 51.6762 78.2123 52.1479 77.6852C52.6195 77.1581 53.1898 76.7295 53.826 76.4241C54.4623 76.1186 55.1522 75.9422 55.8563 75.905C56.5604 75.8677 57.2648 75.9703 57.9295 76.2068C58.5941 76.4434 59.206 76.8094 59.73 77.2838L85.6689 101.368L160.612 18.598C161.561 17.5334 162.892 16.8916 164.312 16.8138C165.731 16.736 167.123 17.2286 168.181 18.1832C169.24 19.1378 169.878 20.4762 169.955 21.904C170.032 23.3317 169.543 24.7319 168.594 25.7965L90.0586 112.527C89.5864 113.048 89.0166 113.47 88.3821 113.768C87.7475 114.067 87.0605 114.236 86.3606 114.267H86.0148ZM153.908 57.7219C160.743 74.879 161.049 93.9685 154.767 111.338C148.486 128.708 136.059 143.139 119.863 151.869C103.667 160.6 84.8395 163.018 66.9824 158.66C49.1252 154.303 33.4922 143.476 23.0739 128.25C12.6557 113.025 8.18375 94.4706 10.5136 76.1365C12.8434 57.8025 21.8115 40.9761 35.7021 28.8764C49.5928 16.7768 67.4307 10.2533 85.8034 10.554C104.176 10.8547 121.794 17.9585 135.285 30.5064L142.442 22.4782C126.877 8.12378 106.557 0.111188 85.4404 0.00114856C64.3238 -0.108891 43.9226 7.6915 28.2104 21.883C12.4983 36.0744 2.60025 55.6408 0.444343 76.7709C-1.71156 97.901 4.02901 119.082 16.5479 136.188C29.0668 153.293 47.4676 165.1 68.1662 169.306C88.8648 173.513 110.379 169.819 128.518 158.944C146.658 148.069 160.123 130.792 166.292 110.477C172.461 90.1627 170.892 68.2658 161.889 49.0514L153.908 57.7219Z" fill="#001D4F"/>
</svg>
