<svg width="125" height="126" viewBox="0 0 125 126" fill="none" xmlns="http://www.w3.org/2000/svg">
<path d="M63.2462 84.1966C62.2698 84.199 61.3278 83.8333 60.6053 83.1713L38.6374 62.8614C38.2521 62.5119 37.9389 62.0892 37.7156 61.6176C37.4923 61.146 37.3633 60.6347 37.3361 60.1129C37.3088 59.591 37.3838 59.0689 37.5568 58.5762C37.7297 58.0836 37.9972 57.6302 38.344 57.2417C38.6908 56.8533 39.1101 56.5376 39.578 56.3125C40.0458 56.0874 40.5531 55.9574 41.0708 55.93C41.5885 55.9025 42.1065 55.9781 42.5952 56.1524C43.0839 56.3267 43.5338 56.5964 43.9191 56.946L62.9919 74.6924L118.097 13.7038C118.795 12.9193 119.774 12.4464 120.817 12.3891C121.861 12.3318 122.885 12.6947 123.663 13.3981C124.441 14.1015 124.91 15.0877 124.967 16.1398C125.024 17.1918 124.664 18.2235 123.966 19.008L66.2196 82.9149C65.8724 83.2985 65.4534 83.6092 64.9868 83.8291C64.5202 84.049 64.0151 84.1739 63.5005 84.1966H63.2462ZM113.168 42.5319C118.193 55.174 118.418 69.2399 113.8 82.0387C109.181 94.8375 100.043 105.471 88.1345 111.904C76.2257 118.337 62.382 120.118 49.2518 116.908C36.1215 113.697 24.6266 105.719 16.9661 94.5002C9.30567 83.2816 6.01747 69.6099 7.73059 56.1006C9.44371 42.5913 16.0379 30.1929 26.2516 21.2774C36.4653 12.3618 49.5814 7.55505 63.0907 7.77663C76.6 7.99821 89.5541 13.2326 99.4746 22.4784L104.737 16.5629C93.2917 5.98594 78.3507 0.0819282 62.8238 0.000846308C47.2969 -0.0802356 32.296 5.66742 20.743 16.1243C9.18989 26.5812 1.91195 40.9985 0.326722 56.568C-1.2585 72.1375 2.96251 87.7444 12.1676 100.349C21.3727 112.953 34.9026 121.652 50.1222 124.752C65.3418 127.852 81.161 125.13 94.4987 117.117C107.836 109.104 117.738 96.3728 122.274 81.4042C126.81 66.4357 125.656 50.3011 119.036 36.1432L113.168 42.5319Z" fill="#001D4F"/>
</svg>
