<svg width="35" height="33" viewBox="0 0 35 33" fill="none" xmlns="http://www.w3.org/2000/svg">
<g opacity="0.6">
<path d="M16.904 8.44V14.392C16.904 14.7739 16.7523 15.1402 16.4822 15.4102C16.2122 15.6803 15.8459 15.832 15.464 15.832H12.44C12.0581 15.832 11.6918 15.6803 11.4218 15.4102C11.1517 15.1402 11 14.7739 11 14.392V8.44C11 8.05809 11.1517 7.69182 11.4218 7.42177C11.6918 7.15171 12.0581 7 12.44 7H15.464C15.8459 7 16.2122 7.15171 16.4822 7.42177C16.7523 7.69182 16.904 8.05809 16.904 8.44ZM15.464 16.9264H12.44C12.0581 16.9264 11.6918 17.0781 11.4218 17.3482C11.1517 17.6182 11 17.9845 11 18.3664V21.5344C11 21.9163 11.1517 22.2826 11.4218 22.5526C11.6918 22.8227 12.0581 22.9744 12.44 22.9744H15.464C15.8459 22.9744 16.2122 22.8227 16.4822 22.5526C16.7523 22.2826 16.904 21.9163 16.904 21.5344V18.3664C16.904 17.9845 16.7523 17.6182 16.4822 17.3482C16.2122 17.0781 15.8459 16.9264 15.464 16.9264ZM25.5344 13.384H19.4384C19.0565 13.384 18.6902 13.5357 18.4202 13.8058C18.1501 14.0758 17.9984 14.4421 17.9984 14.824V21.5344C17.9984 21.9163 18.1501 22.2826 18.4202 22.5526C18.6902 22.8227 19.0565 22.9744 19.4384 22.9744H25.5344C25.9163 22.9744 26.2826 22.8227 26.5526 22.5526C26.8227 22.2826 26.9744 21.9163 26.9744 21.5344V14.824C26.9744 14.4421 26.8227 14.0758 26.5526 13.8058C26.2826 13.5357 25.9163 13.384 25.5344 13.384ZM25.5344 7H19.4384C19.0565 7 18.6902 7.15171 18.4202 7.42177C18.1501 7.69182 17.9984 8.05809 17.9984 8.44V10.8496C17.9984 11.2315 18.1501 11.5978 18.4202 11.8678C18.6902 12.1379 19.0565 12.2896 19.4384 12.2896H25.5344C25.9163 12.2896 26.2826 12.1379 26.5526 11.8678C26.8227 11.5978 26.9744 11.2315 26.9744 10.8496V8.44C26.9744 8.05809 26.8227 7.69182 26.5526 7.42177C26.2826 7.15171 25.9163 7 25.5344 7Z" fill="white"/>
</g>
</svg>
