<svg width="19" height="24" viewBox="0 0 19 24" fill="none" xmlns="http://www.w3.org/2000/svg">
<path d="M10.351 4.29456V0H2.43288C1.08936 0 0 1.08936 0 2.43288V21.0794C0 22.423 1.08936 23.5123 2.43288 23.5123H15.8134C17.1571 23.5123 18.2467 22.423 18.2467 21.0794V7.89528H13.9519C11.9664 7.89528 10.351 6.28008 10.351 4.29456ZM14.4278 19.1726H3.15024C2.64456 19.1726 2.23464 18.7625 2.23464 18.2573C2.23464 17.7511 2.64456 17.3412 3.15024 17.3412H14.4278C14.9333 17.3412 15.343 17.7511 15.343 18.2573C15.3432 18.7625 14.9335 19.1726 14.4278 19.1726ZM14.4278 15.3569H3.15024C2.64456 15.3569 2.23464 14.947 2.23464 14.4415C2.23464 13.9356 2.64456 13.5257 3.15024 13.5257H14.4278C14.9333 13.5257 15.343 13.9356 15.343 14.4415C15.3432 14.947 14.9335 15.3569 14.4278 15.3569ZM15.3432 10.536C15.3432 11.0419 14.9335 11.4518 14.4281 11.4518H3.15048C2.6448 11.4518 2.23488 11.0419 2.23488 10.536C2.23488 10.0303 2.6448 9.6204 3.15048 9.6204H14.4281C14.9335 9.6204 15.3432 10.0303 15.3432 10.536Z" fill="white"/>
<path d="M13.9519 6.72744H18.2467L11.519 0V4.29456C11.519 5.63808 12.6084 6.72744 13.9519 6.72744Z" fill="white"/>
</svg>
