<svg width="24" height="30" viewBox="0 0 24 30" fill="none" xmlns="http://www.w3.org/2000/svg">
<path d="M5.62216 19.8285L4.87793 19.9215L5.25293 22.9215C5.26428 23.0122 5.30835 23.0956 5.37687 23.1561C5.44539 23.2166 5.53365 23.25 5.62505 23.25H10.875V22.5H5.9561L5.62216 19.8285Z" fill="#58002A"/>
<path d="M15.9574 3.33541L17.3032 4.00829L17.6027 5.20637L16.9196 6.5726L16.1745 7.87645L16.8257 8.24857L17.4232 7.20299L19.1251 7.77029V8.25001H19.8751V7.5461L20.2289 6.13092L20.4098 5.76921L21.5126 6.38682C21.6267 6.45074 21.7556 6.48369 21.8864 6.48241C22.0172 6.48112 22.1454 6.44564 22.2583 6.37949C22.3712 6.31334 22.4648 6.21882 22.5298 6.10531C22.5948 5.99181 22.629 5.86326 22.629 5.73244V5.5321C22.6308 4.99035 22.4693 4.46064 22.1656 4.01201C21.8619 3.56338 21.4301 3.21664 20.9265 3.01699L19.6737 2.5156L19.6722 2.51498L18.154 1.90769L16.6678 1.1646C16.6176 1.13948 16.5624 1.12597 16.5062 1.12505C16.4501 1.12413 16.3945 1.13584 16.3434 1.1593C16.2924 1.18277 16.2473 1.21739 16.2115 1.26061C16.1756 1.30384 16.15 1.35456 16.1363 1.40904L15.7613 2.90905C15.7406 2.99182 15.7488 3.07917 15.7844 3.15669C15.8201 3.23421 15.8811 3.29725 15.9574 3.33541ZM17.7789 6.53097L18.1812 5.72633L19.4319 6.22662L19.2346 7.01619L17.7789 6.53097ZM21.879 5.5321V5.73244L21.2803 5.39715C21.3429 5.28502 21.3756 5.15867 21.3752 5.03025C21.3756 4.69106 21.3126 4.35477 21.1894 4.03874C21.4063 4.22234 21.5804 4.45114 21.6995 4.7091C21.8186 4.96707 21.8799 5.24796 21.879 5.5321ZM19.3937 3.2113L19.3936 3.21135L19.3965 3.21249C19.7601 3.35718 20.0717 3.60793 20.2908 3.93212C20.51 4.25631 20.6265 4.63895 20.6252 5.03025L20.4334 4.92282C20.3891 4.89803 20.3403 4.88248 20.2898 4.87711C20.2394 4.87174 20.1884 4.87666 20.1399 4.89157C20.0914 4.90648 20.0465 4.93107 20.0078 4.96385C19.9691 4.99664 19.9374 5.03693 19.9147 5.0823L19.694 5.52369L18.3174 4.97304L18.0117 3.75L18.2597 2.75773L19.3937 3.2113ZM16.7506 2.04447L17.5634 2.45089L17.3747 3.20553L16.5619 2.79911L16.7506 2.04447Z" fill="#58002A"/>
<path d="M11.4149 8.26177L12.1645 8.23823C12.1515 7.81686 12.0647 7.40104 11.9079 7.00969C11.8431 6.84814 11.8273 6.67112 11.8623 6.50063C11.8973 6.33014 11.9816 6.17369 12.1047 6.05072L12.9055 5.25H14.0948L14.8955 6.05072C15.0187 6.17369 15.103 6.33014 15.138 6.50063C15.173 6.67112 15.1571 6.84814 15.0924 7.00969C15.0288 7.16921 14.9766 7.33306 14.9363 7.5H13.281V8.25H15.156V8.24829L15.5854 8.26177C15.5957 7.92786 15.6645 7.59835 15.7887 7.28824C15.9081 6.99043 15.9374 6.66411 15.8729 6.34982C15.8084 6.03553 15.6529 5.74711 15.4259 5.5204L14.6251 4.71966V3.375C14.6251 3.27554 14.5856 3.18016 14.5153 3.10984C14.445 3.03951 14.3496 3 14.2501 3H12.7501C12.6507 3 12.5553 3.03951 12.485 3.10984C12.4147 3.18016 12.3751 3.27554 12.3751 3.375V4.71966L11.5744 5.5204C11.3473 5.74711 11.1919 6.03553 11.1274 6.34982C11.0629 6.66412 11.0922 6.99043 11.2116 7.28824C11.3358 7.59835 11.4046 7.92786 11.4149 8.26177ZM13.8751 3.75V4.5H13.1251V3.75H13.8751Z" fill="#58002A"/>
<path d="M5.625 5.625H7.875C7.97446 5.625 8.06985 5.58549 8.14018 5.51516L9.51243 4.14291L9.94391 6.4441L10.6811 6.3059L10.1186 3.3059L10.1176 3.30608C10.1027 3.21972 10.0575 3.14151 9.9901 3.08543C9.92275 3.02936 9.83764 2.99907 9.75 3H9.6927L9.36992 1.06334C9.35532 0.975779 9.31013 0.896237 9.2424 0.838862C9.17466 0.781487 9.08877 0.749999 9 0.75H6.75C6.66123 0.749999 6.57534 0.781487 6.5076 0.838862C6.43987 0.896237 6.39468 0.975779 6.38008 1.06334L6.01679 3.24311L4.92842 5.05705C4.89353 5.11536 4.87516 5.18205 4.87527 5.25H4.875V6.375H5.625V5.625ZM7.06769 1.5H8.68231L8.96544 3.19869C8.63528 3.39413 8.25866 3.49725 7.875 3.49725C7.49133 3.49725 7.11472 3.39413 6.78456 3.19869L7.06769 1.5ZM6.49857 3.89796C6.9212 4.12692 7.39434 4.24666 7.875 4.24631C8.04969 4.24614 8.224 4.23025 8.39584 4.19883L7.71968 4.875H5.91234L6.49857 3.89796Z" fill="#58002A"/>
<path d="M8.0569 17.9466C8.11752 17.9829 8.18718 18.0014 8.25785 17.9999C8.32852 17.9984 8.39733 17.977 8.45635 17.9381C8.51537 17.8992 8.56221 17.8444 8.59147 17.7801C8.62074 17.7157 8.63123 17.6444 8.62175 17.5744L7.80049 11.5538C7.76988 11.329 7.78772 11.1003 7.85282 10.8831C7.91792 10.6658 8.02877 10.465 8.17793 10.2941C8.32708 10.1233 8.51108 9.9863 8.71756 9.89244C8.92404 9.79859 9.14822 9.75003 9.37503 9.75001H21.375C21.4745 9.75001 21.5699 9.78951 21.6402 9.85984C21.7105 9.93017 21.75 10.0256 21.75 10.125C21.75 10.2245 21.7105 10.3198 21.6402 10.3902C21.5699 10.4605 21.4745 10.5 21.375 10.5H8.62503V11.25H20.5752L19.7373 17.9535L20.4815 18.0465L21.3311 11.25H21.375C21.6734 11.25 21.9595 11.1315 22.1705 10.9205C22.3815 10.7095 22.5 10.4234 22.5 10.125C22.5 9.82664 22.3815 9.54049 22.1705 9.32951C21.9595 9.11853 21.6734 9 21.375 9H9.37503C9.0412 9.00007 8.71124 9.07158 8.40734 9.20973C8.10343 9.34789 7.83262 9.54949 7.61309 9.80099C7.39356 10.0525 7.2304 10.3481 7.13458 10.6679C7.03876 10.9876 7.01249 11.3242 7.05753 11.655L7.78457 16.9852C6.86478 16.64 5.85031 16.6445 4.93363 16.9978L5.4005 11.8519C5.46093 11.1806 5.70196 10.5382 6.09801 9.99284C6.49407 9.44749 7.03038 9.01953 7.65003 8.75438L7.68051 8.74125C7.85679 8.66503 8.04673 8.62548 8.23878 8.625H8.25003V7.875H8.23878C7.94514 7.87518 7.65464 7.93548 7.38519 8.05219L7.35471 8.06485C6.6107 8.38323 5.96673 8.89706 5.49113 9.55184C5.01552 10.2066 4.72602 10.9779 4.65331 11.7839L4.12644 17.5913C4.1255 17.6025 4.12503 17.6138 4.12503 17.625V18.4322L4.03785 18.4467C3.57817 18.5245 3.10617 18.4819 2.66789 18.3229C2.2296 18.1639 1.84 17.8941 1.53706 17.5397L2.97941 12.2508C3.4526 10.5102 4.4298 8.94834 5.78816 7.76156C6.05856 7.525 6.37551 7.34768 6.71859 7.24102C7.06168 7.13436 7.42329 7.10072 7.78016 7.14227C8.13703 7.18382 8.48125 7.29964 8.79065 7.48227C9.10005 7.6649 9.36777 7.9103 9.5766 8.20266L9.76644 8.46797L10.3768 8.03203L10.1869 7.76672C9.91725 7.38915 9.57151 7.07223 9.17196 6.83637C8.7724 6.60051 8.32787 6.45094 7.867 6.39729C7.40614 6.34364 6.93914 6.3871 6.49609 6.52486C6.05304 6.66263 5.64374 6.89165 5.29456 7.19719C3.82497 8.48093 2.76769 10.1705 2.25567 12.0534L0.763157 17.5266C0.74817 17.5817 0.745954 17.6394 0.756677 17.6955C0.767401 17.7515 0.790781 17.8044 0.825035 17.85C1.20471 18.3577 1.71689 18.751 2.30539 18.9868C2.89389 19.2225 3.53595 19.2916 4.16113 19.1864L4.56191 19.1199C4.64942 19.1052 4.7289 19.06 4.78623 18.9923C4.84357 18.9246 4.87503 18.8388 4.87503 18.75V17.8453C5.36987 17.589 5.92214 17.4637 6.47916 17.4814C7.03618 17.4991 7.57936 17.6593 8.0569 17.9466Z" fill="#58002A"/>
<path d="M22.875 18.75H12C11.9005 18.75 11.8052 18.7895 11.7348 18.8598C11.6645 18.9302 11.625 19.0255 11.625 19.125V22.875C11.625 22.9745 11.6645 23.0698 11.7348 23.1402C11.8052 23.2105 11.9005 23.25 12 23.25H22.875C22.9745 23.25 23.0698 23.2105 23.1402 23.1402C23.2105 23.0698 23.25 22.9745 23.25 22.875V19.125C23.25 19.0255 23.2105 18.9302 23.1402 18.8598C23.0698 18.7895 22.9745 18.75 22.875 18.75ZM18.375 22.5H12.375V19.5H18.375V22.5ZM22.5 22.5H19.125V19.5H22.5V22.5Z" fill="#58002A"/>
<path d="M13.5 21C13.7071 21 13.875 20.8321 13.875 20.625C13.875 20.4179 13.7071 20.25 13.5 20.25C13.2929 20.25 13.125 20.4179 13.125 20.625C13.125 20.8321 13.2929 21 13.5 21Z" fill="#58002A"/>
<path d="M15 21.75C15.2071 21.75 15.375 21.5821 15.375 21.375C15.375 21.1679 15.2071 21 15 21C14.7929 21 14.625 21.1679 14.625 21.375C14.625 21.5821 14.7929 21.75 15 21.75Z" fill="#58002A"/>
<path d="M17.25 21.75C17.4571 21.75 17.625 21.5821 17.625 21.375C17.625 21.1679 17.4571 21 17.25 21C17.0429 21 16.875 21.1679 16.875 21.375C16.875 21.5821 17.0429 21.75 17.25 21.75Z" fill="#58002A"/>
<path d="M21.375 21C21.5821 21 21.75 20.8321 21.75 20.625C21.75 20.4179 21.5821 20.25 21.375 20.25C21.1679 20.25 21 20.4179 21 20.625C21 20.8321 21.1679 21 21.375 21Z" fill="#58002A"/>
<path d="M20.25 21.75C20.4571 21.75 20.625 21.5821 20.625 21.375C20.625 21.1679 20.4571 21 20.25 21C20.0429 21 19.875 21.1679 19.875 21.375C19.875 21.5821 20.0429 21.75 20.25 21.75Z" fill="#58002A"/>
<path d="M16.125 21C16.3321 21 16.5 20.8321 16.5 20.625C16.5 20.4179 16.3321 20.25 16.125 20.25C15.9179 20.25 15.75 20.4179 15.75 20.625C15.75 20.8321 15.9179 21 16.125 21Z" fill="#58002A"/>
<path d="M14.625 18H17.25V17.625C17.25 17.551 17.2281 17.4786 17.187 17.417C17.0054 17.1456 16.9085 16.8265 16.9085 16.5C16.9085 16.1735 17.0054 15.8544 17.187 15.583C17.2237 15.528 17.2452 15.4643 17.2493 15.3983C17.2534 15.3323 17.24 15.2664 17.2104 15.2073L16.4604 13.7073C16.4293 13.645 16.3814 13.5926 16.3221 13.556C16.2629 13.5194 16.1946 13.5 16.125 13.5V12.375C16.125 12.2755 16.0855 12.1802 16.0152 12.1098C15.9448 12.0395 15.8495 12 15.75 12H14.25C14.1505 12 14.0552 12.0395 13.9848 12.1098C13.9145 12.1802 13.875 12.2755 13.875 12.375V13.5C13.8054 13.5 13.7371 13.5194 13.6779 13.556C13.6186 13.5926 13.5707 13.645 13.5396 13.7073L12.7896 15.2073C12.76 15.2664 12.7466 15.3323 12.7507 15.3983C12.7548 15.4643 12.7763 15.528 12.813 15.583C12.9946 15.8544 13.0915 16.1735 13.0915 16.5C13.0915 16.8265 12.9946 17.1456 12.813 17.417C12.7719 17.4786 12.75 17.551 12.75 17.625V18H13.5V17.7334C13.7145 17.3763 13.8321 16.9695 13.8413 16.553C13.8505 16.1365 13.751 15.7249 13.5525 15.3586L14.1068 14.25H15.8932L16.2682 15H14.625V15.75H16.2797C16.1189 16.2371 16.119 16.763 16.2799 17.25H14.625V18ZM14.625 12.75H15.375V13.5H14.625V12.75Z" fill="#58002A"/>
</svg>
