<svg width="53" height="53" viewBox="0 0 53 53" fill="none" xmlns="http://www.w3.org/2000/svg">
<circle cx="26.5" cy="26.5" r="26.5" fill="#004858" fill-opacity="0.4"/>
<g clip-path="url(#clip0)">
<path d="M16.875 22.875H17.6704L19.128 34.173C19.1397 34.2634 19.1839 34.3465 19.2523 34.4067C19.3208 34.4668 19.4088 34.5 19.5 34.5H28.3275C28.5378 34.7357 28.7955 34.9243 29.0837 35.0536C29.3719 35.1828 29.6841 35.2498 30 35.25H30.5873C30.9991 35.2496 31.4052 35.1538 31.7738 34.9699C32.0383 34.8384 32.3296 34.77 32.625 34.77C32.9204 34.77 33.2117 34.8384 33.4762 34.9699C33.8448 35.1538 34.2509 35.2496 34.6628 35.25H35.25C35.8466 35.2494 36.4185 35.0122 36.8403 34.5903C37.2622 34.1685 37.4994 33.5966 37.5 33V30.75C37.4994 30.1534 37.2622 29.5815 36.8403 29.1597C36.4185 28.7378 35.8466 28.5006 35.25 28.5H34.6628C34.2509 28.5004 33.8448 28.5962 33.4762 28.7801C33.2117 28.9116 32.9204 28.98 32.625 28.98C32.3296 28.98 32.0383 28.9116 31.7738 28.7801C31.5599 28.6752 31.3328 28.5995 31.0988 28.5551L31.8296 22.875H32.625C32.7245 22.875 32.8198 22.8355 32.8902 22.7652C32.9605 22.6948 33 22.5995 33 22.5V21C33 20.9005 32.9605 20.8052 32.8902 20.7348C32.8198 20.6645 32.7245 20.625 32.625 20.625H31.125V19.5C31.125 19.4006 31.0855 19.3052 31.0151 19.2349L29.25 17.4698V16.305L29.8185 15.8505L30.7894 17.7926L31.4606 17.4574L30.4174 15.3712L30.8812 15H32.25C32.3495 15 32.4448 14.9605 32.5152 14.8902C32.5855 14.8198 32.625 14.7245 32.625 14.625V13.125C32.625 13.0255 32.5855 12.9302 32.5152 12.8598C32.4448 12.7895 32.3495 12.75 32.25 12.75H28.5C27.6052 12.7511 26.7474 13.107 26.1147 13.7397C25.482 14.3724 25.1261 15.2302 25.125 16.125C25.125 16.2245 25.1645 16.3198 25.2348 16.3902C25.3052 16.4605 25.4005 16.5 25.5 16.5H26.25V17.4698L25.2349 18.4849C25.1645 18.5552 25.125 18.6506 25.125 18.75V20.625H24.375V17.625C24.3744 17.5786 24.3651 17.5326 24.3476 17.4896C24.3408 17.475 24.333 17.4609 24.3244 17.4472C24.3154 17.4276 24.3048 17.4087 24.2929 17.3906L22.875 15.6187V13.125C22.875 13.0255 22.8355 12.9302 22.7652 12.8598C22.6948 12.7895 22.5995 12.75 22.5 12.75H20.25C20.1505 12.75 20.0552 12.7895 19.9848 12.8598C19.9145 12.9302 19.875 13.0255 19.875 13.125V15.6187L18.4571 17.3906C18.4452 17.4087 18.4346 17.4276 18.4256 17.4472C18.417 17.4609 18.4092 17.475 18.4024 17.4896C18.3849 17.5326 18.3756 17.5786 18.375 17.625V20.625H16.875C16.7755 20.625 16.6802 20.6645 16.6098 20.7348C16.5395 20.8052 16.5 20.9005 16.5 21V22.5C16.5 22.5995 16.5395 22.6948 16.6098 22.7652C16.6802 22.8355 16.7755 22.875 16.875 22.875ZM35.25 34.5H34.6628C34.3674 34.4996 34.0762 34.4308 33.8119 34.299C33.4431 34.1158 33.0368 34.0204 32.625 34.0204C32.2132 34.0204 31.8069 34.1158 31.4381 34.299C31.1738 34.4308 30.8826 34.4996 30.5873 34.5H30C29.6022 34.5 29.2206 34.342 28.9393 34.0607C28.658 33.7794 28.5 33.3978 28.5 33V32.4225C28.9113 32.7941 29.4457 32.9998 30 33H30.5873C30.9991 32.9996 31.4052 32.9038 31.7738 32.7199C32.0383 32.5884 32.3296 32.52 32.625 32.52C32.9204 32.52 33.2117 32.5884 33.4762 32.7199C33.8448 32.9038 34.2509 32.9996 34.6628 33H35.25C35.8043 32.9998 36.3387 32.7941 36.75 32.4225V33C36.75 33.3978 36.592 33.7794 36.3107 34.0607C36.0294 34.342 35.6478 34.5 35.25 34.5ZM33.8119 29.451C34.0762 29.3192 34.3674 29.2504 34.6628 29.25H35.25C35.6478 29.25 36.0294 29.408 36.3107 29.6893C36.592 29.9706 36.75 30.3522 36.75 30.75C36.75 31.1478 36.592 31.5294 36.3107 31.8107C36.0294 32.092 35.6478 32.25 35.25 32.25H34.6628C34.3674 32.2496 34.0762 32.1808 33.8119 32.049C33.4431 31.8658 33.0368 31.7704 32.625 31.7704C32.2132 31.7704 31.8069 31.8658 31.4381 32.049C31.1738 32.1808 30.8826 32.2496 30.5873 32.25H30C29.6022 32.25 29.2206 32.092 28.9393 31.8107C28.658 31.5294 28.5 31.1478 28.5 30.75C28.5 30.3522 28.658 29.9706 28.9393 29.6893C29.2206 29.408 29.6022 29.25 30 29.25H30.5873C30.8826 29.2504 31.1738 29.3192 31.4381 29.451C31.807 29.6341 32.2132 29.7294 32.625 29.7294C33.0368 29.7294 33.443 29.6341 33.8119 29.451ZM30.3476 28.5H30C29.4034 28.5006 28.8315 28.7378 28.4097 29.1597C27.9878 29.5815 27.7506 30.1534 27.75 30.75V33C27.7506 33.2557 27.795 33.5093 27.8812 33.75H19.8296L18.4264 22.875H20.25V29.625C20.25 30.0228 20.408 30.4044 20.6893 30.6857C20.9706 30.967 21.3522 31.125 21.75 31.125H25.5C25.8978 31.125 26.2794 30.967 26.5607 30.6857C26.842 30.4044 27 30.0228 27 29.625V26.4818L27.9795 26.9715C28.1209 27.0413 28.2746 27.0824 28.4319 27.0925C28.5892 27.1026 28.747 27.0814 28.8961 27.0303C29.0452 26.9792 29.1827 26.899 29.3008 26.7945C29.4188 26.69 29.515 26.5632 29.5837 26.4214C29.6557 26.2788 29.6988 26.1234 29.7105 25.9642C29.7223 25.8049 29.7026 25.6449 29.6524 25.4932C29.6029 25.3416 29.5237 25.2014 29.4194 25.0807C29.3151 24.96 29.1878 24.8614 29.0449 24.7905L27 23.7682V22.875H31.0736L30.3476 28.5ZM25.5 21.375H26.25V24C26.2496 24.07 26.2688 24.1387 26.3055 24.1984C26.3421 24.258 26.3948 24.3062 26.4574 24.3375L28.7074 25.4625C28.7617 25.4893 28.8101 25.5267 28.8497 25.5725C28.8893 25.6183 28.9193 25.6715 28.938 25.7291C28.9572 25.7909 28.9638 25.856 28.9574 25.9204C28.951 25.9849 28.9316 26.0473 28.9005 26.1041C28.8748 26.1557 28.8392 26.2017 28.7957 26.2394C28.7522 26.2772 28.7017 26.306 28.647 26.3243C28.5923 26.3425 28.5346 26.3497 28.4772 26.3456C28.4197 26.3415 28.3636 26.3261 28.3121 26.3002L26.7896 25.539C26.7325 25.5111 26.6693 25.4982 26.6058 25.5014C26.5423 25.5047 26.4807 25.524 26.4268 25.5576C26.3728 25.5912 26.3283 25.6379 26.2974 25.6935C26.2665 25.749 26.2502 25.8114 26.25 25.875V29.625C26.25 29.8239 26.171 30.0147 26.0303 30.1553C25.8897 30.296 25.6989 30.375 25.5 30.375V27H24.75V30.375H24V27H23.25V30.375H22.5V27H21.75V30.375C21.5511 30.375 21.3603 30.296 21.2197 30.1553C21.079 30.0147 21 29.8239 21 29.625V21.375H25.5ZM32.25 22.125H27V21.375H32.25V22.125ZM31.875 14.25H31.125V13.5H31.875V14.25ZM28.5 13.5H30.375V14.445L28.7434 15.75H25.9016C25.9926 15.1256 26.3052 14.5547 26.7822 14.1416C27.2593 13.7285 27.869 13.5008 28.5 13.5ZM28.5 16.5V17.25H27V16.5H28.5ZM25.875 18.9052L26.7802 18H28.7197L30.375 19.6552V20.625H25.875V18.9052ZM20.43 16.125H22.32L23.22 17.25H19.53L20.43 16.125ZM20.625 13.5H22.125V15.375H20.625V13.5ZM19.125 18H23.625V20.625H19.125V18ZM17.25 21.375H20.25V22.125H17.25V21.375Z" fill="#001D4F"/>
<path d="M35.625 30H34.875V30.75H35.625V30Z" fill="#001D4F"/>
<path d="M31.875 30H31.125V30.75H31.875V30Z" fill="#001D4F"/>
<path d="M30.375 30.375H29.625V31.125H30.375V30.375Z" fill="#001D4F"/>
<path d="M34.125 30.375H33.375V31.125H34.125V30.375Z" fill="#001D4F"/>
</g>
<defs>
<clipPath id="clip0">
<rect width="24" height="30" fill="white" transform="translate(15 12)"/>
</clipPath>
</defs>
</svg>
