<svg width="98" height="122" viewBox="0 0 98 122" fill="none" xmlns="http://www.w3.org/2000/svg">
<path d="M72.1 40.0999C73.2 40.0999 74.2 40.2 75.3 40.2999V19.1C75.3 12.4 69.8 6.89995 63.1 6.89995H55.3V3.89995C55.3 2.09995 53.9 0.699951 52.1 0.699951C50.3 0.699951 48.9 2.09995 48.9 3.89995V6.89995H26.9V3.89995C26.9 2.09995 25.5 0.699951 23.7 0.699951C21.9 0.699951 20.5 2.09995 20.5 3.89995V6.89995H12.8C6 6.89995 0.5 12.4 0.5 19.1V60.9C0.5 67.6 6 73.1 12.7 73.1H42.4C42.3 72 42.2 71 42.2 69.9C42.3 53.5 55.7 40.0999 72.1 40.0999ZM6.9 25.4V19.2C6.9 16 9.5 13.3 12.8 13.3H20.5V16.3C20.5 18.1 21.9 19.5 23.7 19.5C25.5 19.5 26.9 18.1 26.9 16.3V13.3H48.9V16.3C48.9 18.1 50.3 19.5 52.1 19.5C53.9 19.5 55.3 18.1 55.3 16.3V13.3H63.1C66.3 13.3 68.9 15.9 68.9 19.2V25.4H6.9Z" fill="#CD0866"/>
<path d="M72.1 46.5C59.2 46.5 48.7 57 48.7 69.9C48.7 82.8 59.2 93.3 72.1 93.3C85 93.3 95.5 82.8 95.5 69.9C95.5 57 85 46.5 72.1 46.5ZM80.9 73.1H72.1C70.3 73.1 68.9 71.7 68.9 69.9V59C68.9 57.2 70.3 55.8 72.1 55.8C73.9 55.8 75.3 57.2 75.3 59V66.7H80.9C82.7 66.7 84.1 68.1 84.1 69.9C84.1 71.7 82.7 73.1 80.9 73.1Z" fill="#CD0866"/>
</svg>
