<svg width="587" height="364" viewBox="0 0 587 364" fill="none" xmlns="http://www.w3.org/2000/svg">
<path d="M258.628 0.629962C163.685 -5.35196 130.008 41.5006 81.7518 89.9402C33.4953 138.38 11.1896 189.496 39.2331 262.274C67.2766 335.051 133.479 353.563 237.395 353.563C341.311 353.563 448.323 363.696 502.483 324.116C556.643 284.536 575.138 194.066 496.615 146.734C450.399 118.856 389.882 8.87036 258.628 0.629962Z" fill="#6CCEE3" fill-opacity="0.1"/>
<path d="M106.482 338.268C105.47 325.659 101.372 313.687 97.2996 301.793C93.2622 290.047 88.7278 277.656 88.5272 265.09C88.44 259.666 90.9165 248.635 98.6512 250.711C101.267 251.408 102.907 254.251 104.084 256.457C105.606 259.392 106.895 262.442 107.938 265.578C111.993 277.342 112.717 289.925 112.69 302.263C112.69 311.542 112.019 320.863 112.778 330.167C112.778 330.283 112.823 330.394 112.905 330.476C112.987 330.558 113.098 330.603 113.214 330.603C113.329 330.603 113.44 330.558 113.522 330.476C113.604 330.394 113.65 330.283 113.65 330.167C113.477 317.17 114.475 304.182 116.632 291.363C117.757 285.255 119.212 279.212 120.992 273.261C121.62 271.124 123.608 267.854 125.797 267.288C129.049 266.416 133.078 267.357 134.325 270.863C138.999 283.943 135.04 298.095 130.68 310.704C128.939 316.053 126.928 321.309 124.654 326.453C122.73 330.621 120.841 334.809 118.986 339.018C118.437 340.248 117.905 341.477 117.382 342.724C117.172 343.248 118.01 343.466 118.254 342.96C121.559 334.998 125.674 327.36 128.578 319.259C132.938 307.112 137.804 294.642 137.255 281.51C137.11 278.61 136.657 275.733 135.903 272.929C135.24 270.409 134.455 268.5 132.197 267.078C130.533 266.184 128.616 265.877 126.756 266.206C124.454 266.485 123.66 267.078 122.396 268.979C121.925 269.694 120.817 270.723 120.582 271.525C120.14 272.99 119.713 274.458 119.3 275.929C118.428 279.042 117.661 282.181 116.963 285.338C115.707 291.127 114.749 296.977 114.094 302.865C113.134 311.924 112.7 321.032 112.795 330.141H113.667C112.795 319.477 113.667 308.734 113.562 298.052C113.414 285.975 112.08 273.845 107.755 262.483C106.168 258.323 104.267 253.301 100.5 250.641C96.5845 247.886 92.2332 250.911 90.0968 254.321C87.2541 258.864 87.4285 264.916 88.004 270.017C88.7535 275.924 89.9961 281.757 91.7188 287.457C96.5932 304.365 104.197 320.593 105.627 338.329C105.671 338.888 106.543 338.888 106.499 338.329L106.482 338.268Z" fill="#001D4F"/>
<path d="M106.403 338.129C106.216 335.71 105.884 333.305 105.409 330.926C105.38 330.824 105.315 330.736 105.226 330.677C105.137 330.619 105.03 330.594 104.924 330.608C104.819 330.622 104.722 330.673 104.651 330.752C104.58 330.831 104.539 330.933 104.537 331.04C104.685 333.464 105.034 335.862 105.409 338.26C105.496 338.818 106.342 338.582 106.281 338.024C105.915 335.705 105.583 333.385 105.409 331.048L104.537 331.17C105 333.474 105.323 335.804 105.505 338.146C105.557 338.704 106.429 338.704 106.377 338.146L106.403 338.129Z" fill="#001D4F"/>
<path d="M94.4916 338.46C90.8031 328.711 83.0772 321.561 76.1796 314.044C72.3976 310.1 69.1706 305.658 66.5876 300.842C64.2507 296.203 61.0679 289.244 64.2594 284.335C67.0149 280.088 73.0492 283.524 76.0488 285.547C79.8769 288.163 82.9028 291.581 85.7978 295.139C93.8741 305.029 99.8498 316.461 103.36 328.737C104.203 331.745 104.873 334.8 105.365 337.885C105.453 338.443 106.29 338.207 106.237 337.658C104.218 325.769 99.8584 314.399 93.4104 304.208C88.4836 296.282 82.336 287.753 73.956 283.184C71.2354 281.702 67.6951 280.568 64.896 282.443C61.3556 284.823 61.9137 290.038 62.8293 293.57C65.4453 303.65 72.6044 311.472 79.5281 318.858C85.1002 324.796 90.7246 330.926 93.6458 338.669C93.8464 339.184 94.6922 338.966 94.5178 338.434L94.4916 338.46Z" fill="#001D4F"/>
<path d="M128.552 272.816C122.779 281.815 123.878 293.299 122.108 303.432C121.096 309.257 119.012 314.768 117.949 320.61C116.824 326.715 115.594 332.819 114.129 338.923C113.998 339.472 114.844 339.699 115.001 339.149C116.396 333.336 117.626 327.502 118.69 321.648C119.684 316.12 121.602 310.844 122.675 305.342C123.686 300.11 124.122 294.834 124.619 289.524C125.151 283.83 126.198 278.188 129.337 273.27C129.642 272.799 128.883 272.398 128.578 272.834L128.552 272.816Z" fill="#001D4F"/>
<path d="M95.9218 259.666C96.3142 266.241 98.5378 272.467 100.055 278.85C101.747 285.957 103.124 293.142 104.546 300.301C105.941 307.277 107.162 314.253 108.688 321.229C110.375 328.38 111.318 335.685 111.504 343.029C111.504 343.145 111.55 343.256 111.632 343.338C111.714 343.42 111.825 343.465 111.94 343.465C112.056 343.465 112.167 343.42 112.249 343.338C112.33 343.256 112.376 343.145 112.376 343.029C112.229 336.423 111.444 329.847 110.031 323.392C108.583 316.183 107.147 308.975 105.723 301.766C104.363 294.851 102.994 287.928 101.45 281.048C99.8632 273.967 97.2298 266.991 96.7938 259.701C96.7938 259.143 95.9218 259.134 95.9218 259.701V259.666Z" fill="#001D4F"/>
<path d="M74.2437 296.02C80.8099 302.272 86.2163 309.58 91.1518 317.157C93.6545 320.994 95.9217 325.005 98.1801 328.999C100.709 333.446 102.156 338.164 103.988 342.951C104.188 343.466 105.034 343.239 104.86 342.716C103.212 338.425 101.973 334.065 99.7585 330.011C97.4302 325.746 94.9799 321.474 92.3465 317.384C87.2976 309.536 81.6906 301.906 74.9064 295.436C74.5053 295.052 73.8862 295.662 74.296 296.055L74.2437 296.02Z" fill="#001D4F"/>
<path d="M75.4471 307.766C80.7402 311.315 86.5389 314.114 91.5442 318.09C91.9802 318.439 92.5993 317.829 92.1633 317.471C87.097 313.451 81.2372 310.609 75.8831 307.007C75.4122 306.693 75.0111 307.452 75.4471 307.766Z" fill="#001D4F"/>
<path d="M90.027 307.086C91.9628 309.641 93.1226 312.928 94.2126 315.91C95.4951 319.606 96.5493 323.378 97.3692 327.203C97.5 327.752 98.3371 327.517 98.2412 326.976C97.3657 322.963 96.2416 319.008 94.8753 315.134C93.8289 312.265 92.6604 309.091 90.8031 306.65C90.463 306.205 89.713 306.65 90.0531 307.086H90.027Z" fill="#001D4F"/>
<path d="M118.733 296.936C119.038 300.615 120.817 303.973 120.931 307.687C120.931 308.245 121.803 308.245 121.803 307.687C121.689 303.973 119.91 300.615 119.605 296.936C119.562 296.377 118.69 296.369 118.733 296.936Z" fill="#001D4F"/>
<path d="M101.703 266.276C100.482 270.113 100.648 274.29 100.133 278.24C100.064 278.798 100.936 278.789 101.005 278.24C101.511 274.36 101.346 270.27 102.549 266.511C102.715 265.971 101.877 265.744 101.677 266.276H101.703Z" fill="#001D4F"/>
<path d="M94.7707 282.173C96.6891 284.876 98.2587 287.788 100.221 290.448C102.097 292.745 103.451 295.423 104.188 298.296C104.31 298.845 105.147 298.61 105.06 298.061C104.478 295.635 103.414 293.351 101.93 291.346C99.7847 288.181 97.7704 284.893 95.5555 281.754C95.2416 281.301 94.483 281.754 94.8056 282.19L94.7707 282.173Z" fill="#001D4F"/>
<path d="M108.784 292.733C107.912 298.104 107.04 303.467 106.508 308.891C106.456 309.449 107.328 309.44 107.38 308.891C107.886 303.545 108.74 298.252 109.621 292.968C109.717 292.419 108.871 292.183 108.749 292.733H108.784Z" fill="#001D4F"/>
<path d="M131.77 278.868C129.616 284.501 125.962 289.471 123.407 294.921C123.172 295.427 123.93 295.872 124.166 295.357C126.782 289.838 130.427 284.806 132.616 279.103C132.816 278.571 131.97 278.353 131.744 278.868H131.77Z" fill="#001D4F"/>
<path d="M443.082 351.933C441.464 347.88 439.137 344.148 436.211 340.911C432.453 336.821 427.596 334.135 424.265 329.575C421.081 325.015 418.17 320.272 415.545 315.37C413.885 312.638 412.728 309.632 412.126 306.493C411.704 303.336 411.651 300.14 411.969 296.971L411.315 297.345C413.426 298.217 414.978 299.848 416.678 301.331C418.379 302.813 420.358 303.947 422.163 305.246C426.402 308.448 430.135 312.269 433.237 316.582C436.089 320.488 438.086 325.084 440.022 329.487C441.705 333.315 443.065 337.693 445.559 341.085C445.829 341.451 446.527 341.251 446.352 340.754C443.346 331.938 441.981 322.646 442.324 313.338C442.494 309.11 442.922 304.896 443.606 300.72C444.089 296.625 445.341 292.658 447.294 289.027H446.544C447.547 290.989 447.782 293.134 448.184 295.261C448.691 297.645 449.409 299.98 450.329 302.237C452.095 307.324 453.414 312.556 454.27 317.872C455.358 323.295 455.502 328.864 454.697 334.336C453.913 339.498 452.483 344.547 451.41 349.657C451.314 350.119 451.977 350.45 452.212 349.988C453.747 346.884 455.194 343.745 456.485 340.527C457.889 337.039 458.822 333.377 460.06 329.819C462.013 324.229 465.344 319.145 470.681 316.364C477.073 313.024 491.679 309.71 493.353 320.07L493.998 319.581C484.345 315.492 476.776 324.508 471.928 331.702C468.649 336.568 465.249 341.146 461.464 345.654C459.982 347.451 458.648 349.665 456.912 351.226C455.369 352.622 452.36 354.758 450.172 354.549C449.605 354.496 449.614 355.368 450.172 355.421C453.075 355.691 457.104 352.744 458.726 350.511C462.031 345.951 465.955 341.87 469.26 337.301C474.701 329.784 481.912 315.387 493.519 320.305C493.594 320.346 493.679 320.364 493.764 320.357C493.849 320.351 493.93 320.32 493.998 320.269C494.066 320.217 494.118 320.147 494.148 320.067C494.177 319.987 494.183 319.9 494.164 319.817C492.507 309.536 479.061 311.838 472.207 314.663C466.975 316.808 463.348 320.619 460.871 325.642C459.127 329.13 458.255 332.914 457.026 336.585C455.468 341.03 453.606 345.363 451.454 349.552L452.256 349.883C453.381 344.521 454.828 339.228 455.657 333.804C456.381 328.705 456.249 323.521 455.264 318.465C454.382 312.868 453.02 307.357 451.192 301.993C450.309 299.722 449.589 297.391 449.038 295.017C448.567 292.802 448.367 290.657 447.294 288.573C447.256 288.508 447.201 288.454 447.135 288.417C447.069 288.379 446.995 288.36 446.919 288.36C446.843 288.36 446.769 288.379 446.703 288.417C446.638 288.454 446.583 288.508 446.544 288.573C442.568 295.349 441.992 304.147 441.521 311.829C440.917 321.72 442.274 331.633 445.515 340.998L446.309 340.666C443.693 337.083 442.245 332.409 440.466 328.354C438.528 323.607 436.047 319.101 433.072 314.925C430.225 311.182 426.901 307.828 423.183 304.949C421.091 303.336 418.771 302.011 416.774 300.267C415.17 298.871 413.74 297.459 411.76 296.604C411.693 296.569 411.618 296.551 411.542 296.553C411.467 296.554 411.393 296.574 411.327 296.611C411.261 296.649 411.205 296.702 411.165 296.766C411.125 296.83 411.102 296.904 411.097 296.979C410.696 302.595 410.923 307.958 413.365 313.103C416.044 318.396 419.068 323.508 422.416 328.406C423.757 330.499 425.33 332.432 427.107 334.17C429.078 336.062 431.406 337.553 433.447 339.402C437.3 342.942 440.305 347.305 442.236 352.168C442.454 352.683 443.292 352.456 443.108 351.941L443.082 351.933Z" fill="#001D4F"/>
<path d="M437.135 352.482C432.2 344.494 428.258 333.664 418.823 330.01C413.783 328.066 407.697 329.138 402.97 331.414C397.625 333.943 393.378 338.451 389.629 342.89C389.565 342.96 389.526 343.048 389.516 343.142C389.506 343.236 389.527 343.331 389.574 343.413C389.622 343.494 389.694 343.559 389.781 343.596C389.867 343.634 389.964 343.643 390.056 343.622C398.139 341.242 408.29 340.745 415.78 345.218C419.355 347.346 422.154 350.973 424.98 353.982C426.846 355.97 428.215 359.31 431.084 359.999C431.633 360.129 431.86 359.292 431.319 359.127C429.383 358.664 428.067 356.511 426.959 355.063C425.867 353.686 424.703 352.367 423.471 351.113C420.594 348.017 417.759 344.913 413.801 343.221C406.354 340.047 397.433 340.501 389.803 342.742C389.951 342.986 390.091 343.23 390.23 343.474C397.111 335.338 407.095 326.906 418.57 330.813C423.271 332.426 426.645 336.751 429.287 340.736C431.929 344.721 433.926 348.898 436.394 352.892C436.691 353.363 437.441 352.892 437.144 352.447L437.135 352.482Z" fill="#001D4F"/>
<path d="M423.933 314.594C427.421 321.997 433.735 327.473 438.234 334.222C440.467 337.652 442.432 341.25 444.111 344.983C446.195 349.482 445.533 354.121 445.498 358.935C445.498 359.051 445.544 359.161 445.626 359.243C445.707 359.325 445.818 359.371 445.934 359.371C446.049 359.371 446.16 359.325 446.242 359.243C446.324 359.161 446.37 359.051 446.37 358.935C446.37 354.871 447.094 350.572 445.733 346.675C444.312 342.585 441.923 338.678 439.725 334.955C435.365 327.552 428.389 322.006 424.692 314.158C424.448 313.652 423.698 314.097 423.933 314.602V314.594Z" fill="#001D4F"/>
<path d="M411.952 337.021C418.414 340.448 424.727 343.997 429.2 349.944C430.796 352.037 432.348 354.174 433.961 356.249C434.432 356.859 435.705 359.144 436.743 359.039C437.301 358.978 437.301 358.106 436.743 358.167C436.019 358.237 433.656 354.435 433.307 353.973C431.842 352.037 430.421 350.066 428.947 348.148C424.727 342.742 418.361 339.428 412.379 336.271C411.882 336.01 411.437 336.76 411.935 337.021H411.952Z" fill="#001D4F"/>
<path d="M448.122 313.059C448.192 316.904 449.239 320.593 449.683 324.395C450.101 328.992 449.911 333.625 449.117 338.173C447.887 346.474 448.463 354.906 446.169 363.068L447.041 363.181V362.205C447.041 362.089 446.995 361.978 446.914 361.897C446.832 361.815 446.721 361.769 446.605 361.769C446.49 361.769 446.379 361.815 446.297 361.897C446.215 361.978 446.169 362.089 446.169 362.205V363.181C446.169 363.289 446.208 363.392 446.279 363.473C446.349 363.553 446.446 363.606 446.552 363.621C446.658 363.636 446.766 363.612 446.856 363.553C446.946 363.495 447.012 363.406 447.041 363.304C449.247 355.403 449.064 347.154 449.91 339.053C450.514 334.72 450.782 330.347 450.712 325.973C450.503 321.613 449.099 317.428 449.021 313.05C449.021 312.935 448.975 312.824 448.893 312.742C448.811 312.66 448.7 312.614 448.585 312.614C448.469 312.614 448.358 312.66 448.276 312.742C448.195 312.824 448.149 312.935 448.149 313.05L448.122 313.059Z" fill="#001D4F"/>
<path d="M476.48 318.579C469.809 322.799 464.961 330.098 461.159 336.891C457.497 343.405 454.279 351.427 446.989 354.645C446.474 354.871 446.919 355.621 447.434 355.395C453.913 352.534 457.331 345.803 460.514 339.89C464.56 332.356 469.539 324.029 476.916 319.364C477.387 319.058 476.916 318.308 476.48 318.605V318.579Z" fill="#001D4F"/>
<path d="M294.921 175.344C294.919 177.572 294.032 179.708 292.456 181.282C290.88 182.857 288.743 183.741 286.515 183.741C284.288 183.741 282.152 182.856 280.577 181.282C279.002 179.707 278.117 177.571 278.117 175.344V169.51C278.117 167.283 279.002 165.147 280.577 163.572C282.152 161.998 284.288 161.113 286.515 161.113C288.743 161.113 290.88 161.997 292.456 163.572C294.032 165.146 294.919 167.282 294.921 169.51V175.344Z" fill="#001D4F"/>
<path d="M380.56 267.07C378.24 255.734 368.212 225.152 343.788 214.095C319.363 203.039 296.456 212.038 287.98 217.174C279.504 222.31 269.72 242.383 265.351 261.157C260.983 279.932 246.063 279.67 234.491 283.786L239.837 303.336L359.17 304.103L359.431 301.016C390.544 299.22 382.836 278.388 380.56 267.07ZM258.48 297.031C263.241 297.031 284.457 281.091 288.834 281.597C291.014 293.299 291.276 299.473 291.529 300.249C291.782 301.025 259.77 306.676 258.48 297.031Z" fill="#001D4F"/>
<path d="M300.877 222.58C299.333 229.949 292.985 275.048 303.789 304.705C312.186 305.394 324.717 304.705 324.717 304.705C322.319 289.105 317.514 245.897 327.455 221.211C317.506 221.368 300.877 222.58 300.877 222.58Z" fill="#FFE4B5"/>
<path d="M306.362 209.204C297.877 209.718 295.898 218.892 299.76 224.551C303.623 230.21 310.905 225.58 312.187 222.746C321.369 231.405 333.28 223.618 335.853 210.747C335.853 209.718 321.264 206.893 306.362 209.204Z" fill="#FFE4B5"/>
<path d="M330.533 162.717C330.15 154.163 321.369 137.831 300.537 138.755C285.713 139.897 283.899 153.945 283.899 153.945C283.384 155.523 280.733 158.855 280.733 158.855C279.957 152.271 284.117 134.831 302.847 134.369C323.932 133.837 334.004 150.344 334.396 162.194C332.722 164.959 330.533 162.717 330.533 162.717Z" fill="#001D4F"/>
<path d="M289.166 146.524C282.042 151.408 277.777 159.526 281.388 167.601C284.998 175.675 286.018 179.242 282.521 185.564C277.594 194.449 275.545 202.751 279.225 210.294C301.566 207.207 311.393 204.695 311.393 204.695C311.393 204.695 302.752 145.583 289.166 146.524Z" fill="#31241C"/>
<path d="M322.328 187.203C322.328 187.203 327.848 203.85 328.371 210.887C328.85 217.331 307.504 221.638 305.995 214.88C304.417 206.832 302.071 193.159 302.071 193.159" fill="#C97440"/>
<path d="M324.098 194.153L322.354 187.177L302.08 193.159C302.08 193.159 302.804 197.362 303.728 202.629C305.262 202.922 306.824 203.039 308.385 202.978C311.511 202.835 314.56 201.962 317.288 200.43C320.017 198.897 322.349 196.748 324.098 194.153Z" fill="#AB5D2D"/>
<path d="M286.916 179.111C287.028 181.746 287.659 184.332 288.771 186.723C289.884 189.113 291.458 191.261 293.401 193.043C295.345 194.825 297.622 196.206 300.1 197.107C302.578 198.008 305.21 198.412 307.844 198.295C310.479 198.183 313.065 197.552 315.456 196.439C317.846 195.327 319.994 193.753 321.776 191.809C323.558 189.866 324.939 187.589 325.84 185.111C326.741 182.633 327.145 180.001 327.028 177.367L326.077 156.134C325.966 153.495 325.334 150.905 324.218 148.511C323.102 146.118 321.525 143.968 319.576 142.186C317.628 140.403 315.347 139.023 312.863 138.125C310.38 137.226 307.744 136.827 305.106 136.95C302.471 137.062 299.885 137.692 297.494 138.805C295.103 139.918 292.956 141.491 291.174 143.435C289.392 145.379 288.011 147.655 287.11 150.134C286.208 152.612 285.805 155.243 285.922 157.878L286.916 179.111Z" fill="#C97440"/>
<path d="M313.416 157.137C310.878 155.776 307.547 155.14 304.896 156.509C303.902 157.023 304.783 158.514 305.768 158.009C307.835 156.936 310.582 157.581 312.535 158.628C313.52 159.16 314.392 157.669 313.407 157.137H313.416Z" fill="#31241C"/>
<path d="M289.201 159.936C289.802 159.388 290.526 158.991 291.311 158.779C292.097 158.567 292.922 158.545 293.718 158.715C294.807 158.942 295.27 157.276 294.18 157.049C293.089 156.805 291.955 156.829 290.875 157.119C289.795 157.409 288.802 157.957 287.98 158.715C287.169 159.482 288.398 160.703 289.201 159.936Z" fill="#31241C"/>
<path d="M301.208 175.422C301.051 175.419 300.899 175.36 300.781 175.257L296.865 171.769C296.787 171.698 296.726 171.61 296.688 171.512C296.65 171.413 296.636 171.307 296.647 171.202C296.659 171.099 296.694 170.999 296.752 170.913C296.81 170.826 296.888 170.755 296.979 170.705L300.92 168.481C301.072 168.396 301.251 168.374 301.419 168.42C301.586 168.467 301.729 168.578 301.814 168.73C301.9 168.881 301.922 169.061 301.875 169.228C301.828 169.396 301.717 169.538 301.566 169.624L298.418 171.368L301.644 174.202C301.746 174.289 301.819 174.406 301.853 174.537C301.886 174.667 301.878 174.805 301.831 174.93C301.783 175.056 301.698 175.164 301.586 175.24C301.475 175.316 301.343 175.355 301.208 175.353V175.422Z" fill="#31241C"/>
<path d="M302.629 180.968C301.601 180.984 300.591 180.695 299.726 180.14C299.582 180.042 299.484 179.89 299.452 179.719C299.42 179.549 299.457 179.372 299.556 179.229C299.654 179.085 299.805 178.987 299.976 178.955C300.147 178.923 300.323 178.96 300.467 179.059C301.108 179.434 301.835 179.639 302.579 179.654C303.322 179.67 304.057 179.495 304.713 179.146C305.254 178.848 305.693 178.397 305.976 177.849C306.259 177.3 306.372 176.68 306.3 176.068C306.296 175.982 306.308 175.896 306.337 175.815C306.365 175.733 306.41 175.659 306.467 175.595C306.525 175.531 306.594 175.479 306.672 175.442C306.749 175.405 306.834 175.383 306.92 175.379C307.094 175.372 307.264 175.434 307.393 175.551C307.522 175.669 307.599 175.832 307.608 176.007C307.69 176.863 307.52 177.724 307.119 178.485C306.718 179.245 306.103 179.872 305.35 180.288C304.515 180.74 303.579 180.974 302.629 180.968Z" fill="#31241C"/>
<path d="M305.568 168.176C305.739 168.628 306.04 169.019 306.433 169.299C306.825 169.58 307.293 169.738 307.775 169.753C308.258 169.768 308.734 169.64 309.144 169.384C309.554 169.129 309.878 168.757 310.077 168.317C310.276 167.877 310.34 167.388 310.26 166.912C310.181 166.435 309.962 165.993 309.632 165.641C309.301 165.289 308.874 165.043 308.404 164.934C307.933 164.825 307.441 164.858 306.989 165.028C306.689 165.142 306.414 165.313 306.181 165.532C305.947 165.752 305.758 166.015 305.626 166.308C305.494 166.6 305.421 166.915 305.411 167.236C305.401 167.557 305.455 167.876 305.568 168.176Z" fill="#1A191F"/>
<path d="M290.971 169.048C291.141 169.5 291.442 169.891 291.835 170.171C292.228 170.452 292.695 170.61 293.178 170.625C293.661 170.64 294.137 170.512 294.547 170.256C294.956 170.001 295.281 169.629 295.48 169.189C295.678 168.749 295.742 168.26 295.663 167.784C295.584 167.308 295.365 166.865 295.034 166.513C294.704 166.161 294.277 165.915 293.806 165.806C293.336 165.697 292.844 165.73 292.392 165.9C292.092 166.014 291.817 166.185 291.583 166.404C291.349 166.624 291.161 166.887 291.029 167.18C290.897 167.472 290.824 167.788 290.814 168.108C290.804 168.429 290.857 168.748 290.971 169.048Z" fill="#1A191F"/>
<path d="M291.616 168.481C291.511 168.478 291.409 168.448 291.319 168.394L288.939 166.938C288.808 166.858 288.715 166.73 288.679 166.581C288.643 166.432 288.667 166.275 288.747 166.144C288.827 166.014 288.955 165.92 289.104 165.884C289.253 165.848 289.41 165.873 289.541 165.953L291.921 167.417C291.985 167.457 292.04 167.508 292.084 167.569C292.128 167.63 292.159 167.699 292.176 167.772C292.194 167.845 292.196 167.92 292.184 167.994C292.171 168.068 292.144 168.139 292.104 168.202C292.054 168.287 291.982 168.357 291.897 168.405C291.811 168.454 291.714 168.48 291.616 168.481Z" fill="#1A191F"/>
<path d="M308.899 167.618C308.777 167.616 308.659 167.576 308.562 167.503C308.465 167.43 308.393 167.328 308.357 167.212C308.321 167.096 308.323 166.971 308.363 166.856C308.402 166.741 308.477 166.642 308.576 166.572L311.062 164.828C311.124 164.785 311.194 164.755 311.268 164.739C311.342 164.723 311.419 164.722 311.493 164.736C311.568 164.749 311.639 164.778 311.702 164.819C311.766 164.86 311.821 164.914 311.864 164.976C311.907 165.038 311.937 165.109 311.953 165.183C311.969 165.257 311.97 165.333 311.956 165.408C311.942 165.482 311.914 165.553 311.873 165.617C311.831 165.68 311.778 165.735 311.716 165.778L309.23 167.522C309.132 167.586 309.017 167.62 308.899 167.618Z" fill="#1A191F"/>
<path d="M346.168 179.242C342.829 172.065 346.945 167.601 345.174 160.764C343.613 154.782 336.498 154.965 332.827 146.489C327.194 133.497 298.243 121.794 287.439 148.164C299.447 140.028 311.751 144.257 316.416 150.274C325.833 162.412 316.172 167.548 319.808 174.768C322.424 180 324.168 183.567 320.767 191.519C317.366 199.472 322.136 207.041 322.136 207.041C333.341 205.803 346.011 204.695 357.522 202.751C357.522 183.331 349.491 186.418 346.168 179.242Z" fill="#31241C"/>
<path d="M295.217 278.641C285.442 279.513 281.675 282.417 272.929 287.047C264.183 291.678 262.299 292.706 264.357 293.561C259.212 293.901 262.212 296.648 265.813 295.445C263.415 296.474 266.755 297.59 271.56 295.793C272.755 297.677 278.928 296.822 282.896 294.59C286.864 292.358 296.272 290.474 304.844 293.387C305.873 288.076 302.621 278.816 302.621 278.816L295.217 278.641Z" fill="#C97440"/>
<path d="M301.435 278.772C306.667 277.612 321.447 276.418 330.211 276.932C330.725 283.786 326.958 297.677 326.958 297.677L303.632 292.532C303.632 292.532 304.774 285.199 301.435 278.772Z" fill="#001D4F"/>
<path d="M300.99 278.92C311.402 277.42 321.918 277.447 332.426 277.176C337.483 277.037 342.332 276.444 347.337 275.877C352.098 275.328 357.74 276.365 362.309 277.743C362.366 277.758 362.426 277.763 362.485 277.755C362.544 277.747 362.6 277.728 362.652 277.699C362.703 277.669 362.748 277.63 362.785 277.583C362.821 277.536 362.847 277.482 362.863 277.425C362.878 277.367 362.882 277.308 362.875 277.249C362.867 277.19 362.848 277.133 362.818 277.082C362.789 277.031 362.749 276.985 362.702 276.949C362.655 276.913 362.602 276.886 362.545 276.871C358.142 275.513 353.558 274.83 348.95 274.848C346.749 274.981 344.559 275.255 342.393 275.668C339.369 276.034 336.326 276.226 333.28 276.243C322.424 276.592 311.541 276.514 300.763 278.074C300.205 278.153 300.441 278.99 300.99 278.946V278.92Z" fill="#1F0E03"/>
<path d="M347.424 252.185C348.419 259.409 348.929 266.692 348.95 273.985C348.95 274.1 348.996 274.211 349.078 274.293C349.159 274.375 349.27 274.421 349.386 274.421C349.502 274.421 349.613 274.375 349.694 274.293C349.776 274.211 349.822 274.1 349.822 273.985C349.801 266.614 349.291 259.253 348.296 251.949C348.217 251.4 347.372 251.635 347.424 252.185Z" fill="#1F0E03"/>
<path d="M302.952 292.968C306.1 292.968 309.056 294.328 312.012 295.139C315.57 296.099 319.049 297.311 322.598 298.287C329.808 300.266 337.205 301.488 344.669 301.932C356.493 302.612 370.829 302.037 379.732 293.212C379.814 293.13 379.86 293.019 379.86 292.903C379.86 292.787 379.814 292.675 379.732 292.593C379.65 292.511 379.538 292.465 379.422 292.465C379.306 292.465 379.195 292.511 379.113 292.593C369.765 301.819 354.4 301.828 342.192 300.895C334.832 300.276 327.555 298.896 320.479 296.779C317.314 295.854 314.157 294.886 311.001 293.945C308.341 293.151 305.769 292.061 302.943 292.096C302.828 292.096 302.717 292.142 302.635 292.224C302.553 292.306 302.507 292.416 302.507 292.532C302.507 292.648 302.553 292.759 302.635 292.84C302.717 292.922 302.828 292.968 302.943 292.968H302.952Z" fill="#1F0E03"/>
<path d="M285.512 243.212C284.736 245.549 284.963 248.069 284.997 250.493C285.05 253.841 285.294 257.181 285.468 260.512C285.643 263.843 285.739 267.113 286 270.401C286.244 273.444 287.395 276.321 287.552 279.33C287.552 279.888 288.424 279.897 288.424 279.33C288.285 276.583 287.23 273.976 286.951 271.22C286.646 268.212 286.55 265.177 286.419 262.16C286.288 259.143 286.07 256.056 285.948 253.022C285.826 249.987 285.372 246.377 286.349 243.43C286.532 242.898 285.686 242.671 285.477 243.203L285.512 243.212Z" fill="#1F0E03"/>
<path d="M298.74 213.372C297.371 218.203 296.412 224.359 301.818 227.071C303.772 228.056 305.995 227.568 307.879 226.713C309.182 226.037 310.383 225.18 311.445 224.167C312.553 223.217 313.041 224.656 314.018 225.353C321.97 231.039 332.443 223.164 335.076 215.325C335.251 214.784 334.414 214.558 334.204 215.09C331.397 223.461 319.38 231.152 312.474 222.615C312.434 222.574 312.385 222.542 312.332 222.52C312.279 222.497 312.222 222.486 312.165 222.486C312.107 222.486 312.05 222.497 311.997 222.52C311.944 222.542 311.896 222.574 311.855 222.615C308.986 225.187 305.263 228.239 301.348 225.824C297.083 223.208 298.452 217.496 299.551 213.616C299.582 213.5 299.566 213.377 299.507 213.273C299.447 213.169 299.349 213.093 299.233 213.062C299.117 213.031 298.994 213.047 298.89 213.107C298.786 213.166 298.71 213.265 298.679 213.381L298.74 213.372Z" fill="#1F0E03"/>
<path d="M271.159 296.552C273.906 296.063 276.112 294.346 278.423 292.898C281.606 290.901 285.189 289.75 288.643 288.32C289.157 288.111 288.939 287.265 288.416 287.448C285.564 288.625 282.634 289.619 279.879 291.023C276.879 292.541 274.324 295.078 270.924 295.68C270.374 295.776 270.61 296.613 271.159 296.552Z" fill="#1F0E03"/>
<path d="M264.915 296.508C271.891 293.578 278.257 289.454 285.39 286.916C285.913 286.733 285.686 285.887 285.155 286.044C277.952 288.573 271.49 292.724 264.479 295.689C263.965 295.907 264.41 296.656 264.915 296.438V296.508Z" fill="#1F0E03"/>
<path d="M263.372 294.45C266.119 292.785 269.249 292.017 272.092 290.518C274.935 289.018 277.655 287.518 280.55 286.227C281.056 285.992 280.62 285.242 280.106 285.469C277.219 286.759 274.438 288.277 271.656 289.768C268.874 291.259 265.709 292.035 262.936 293.7C262.456 293.988 262.892 294.747 263.372 294.45Z" fill="#1F0E03"/>
<path d="M308.594 230.027C308.89 231.57 311.079 231.518 311.785 230.323C311.862 230.164 311.907 229.991 311.916 229.814C311.926 229.637 311.9 229.46 311.841 229.293C311.782 229.126 311.69 228.972 311.571 228.841C311.453 228.709 311.309 228.603 311.149 228.527C310.77 228.3 310.322 228.215 309.886 228.287C309.451 228.359 309.054 228.583 308.768 228.919C308.454 229.382 309.204 229.791 309.527 229.355C309.849 228.919 311.515 229.355 310.948 230.001C310.521 230.48 309.579 230.515 309.44 229.791C309.335 229.242 308.498 229.478 308.568 230.027H308.594Z" fill="#1F0E03"/>
<path d="M307.443 236.48C307.216 238.023 309.012 238.451 310.059 237.596C310.343 237.386 310.539 237.077 310.607 236.73C310.675 236.383 310.61 236.023 310.425 235.721C310.161 235.471 309.826 235.307 309.467 235.251C309.107 235.195 308.739 235.249 308.411 235.407C307.87 235.573 308.105 236.41 308.637 236.279C308.805 236.206 308.986 236.169 309.169 236.169C309.352 236.169 309.533 236.206 309.701 236.279C309.971 236.436 309.614 236.925 309.466 237.029C309.152 237.265 308.21 237.43 308.297 236.776C308.384 236.122 307.539 235.992 307.425 236.55L307.443 236.48Z" fill="#1F0E03"/>
<path d="M306.911 244.825C306.989 246.569 309.527 245.871 309.823 244.554C310.146 242.941 307.329 242.061 307.059 243.805C306.972 244.354 307.809 244.589 307.931 244.04C308.053 243.491 309.004 243.831 309.012 244.354C309.021 244.877 307.844 245.322 307.818 244.825C307.792 244.328 306.946 244.258 306.946 244.825H306.911Z" fill="#1F0E03"/>
<path d="M289.942 292.532C289.809 293.88 289.988 295.241 290.465 296.508C290.674 297.023 291.52 296.796 291.337 296.273C290.877 295.083 290.707 293.801 290.84 292.532C290.892 291.974 290.02 291.974 289.968 292.532H289.942Z" fill="#1F0E03"/>
<path d="M300.824 279.025C302.455 280.167 302.568 282.434 303.048 284.196C303.65 286.533 304.103 289.428 303.048 291.712C302.812 292.218 303.571 292.663 303.798 292.148C304.966 289.576 304.478 286.628 303.859 283.969C303.379 281.902 303.092 279.565 301.243 278.266C300.781 277.943 300.371 278.702 300.798 279.025H300.824Z" fill="#1F0E03"/>
<path d="M279.792 180.384C278.423 190.552 293.447 190.587 299.935 190.273C300.493 190.273 300.493 189.401 299.935 189.401C294.206 189.671 279.373 189.95 280.637 180.611C280.707 180.062 279.87 179.826 279.765 180.384H279.792Z" fill="#1F0E03"/>
<path d="M304.993 189.706C304.993 191.145 303.554 192.322 301.775 192.322C299.996 192.322 298.566 191.153 298.566 189.706C298.566 188.258 300.005 187.09 301.775 187.09C303.545 187.09 304.993 188.232 304.993 189.706Z" fill="#001D4F"/>
<path d="M302.847 134.369C292.165 134.63 286.227 140.42 283.236 146.577C284.288 146.702 285.313 146.996 286.271 147.449C288.486 143.612 292.689 139.391 300.537 138.79C321.369 137.865 330.185 154.198 330.533 162.752C330.533 162.752 332.722 164.993 334.396 162.229C334.004 150.344 323.932 133.837 302.847 134.369Z" fill="#001D4F"/>
<path d="M341.172 175.344C341.169 177.572 340.283 179.708 338.707 181.282C337.13 182.857 334.994 183.741 332.766 183.741C330.539 183.741 328.403 182.856 326.828 181.282C325.253 179.707 324.368 177.571 324.368 175.344V169.51C324.368 167.283 325.253 165.147 326.828 163.572C328.403 161.998 330.539 161.113 332.766 161.113C334.994 161.113 337.13 161.997 338.707 163.572C340.283 165.146 341.169 167.282 341.172 169.51V175.344Z" fill="#001D4F"/>
<path d="M339.192 174.446C339.154 175.642 338.701 176.788 337.912 177.689C337.123 178.589 336.045 179.187 334.864 179.382C333.683 179.576 332.47 179.355 331.434 178.755C330.398 178.155 329.602 177.215 329.182 176.094C328.563 174.498 328.92 172.248 328.92 170.574C328.92 164.775 336.899 163.772 338.922 168.935C339.541 170.522 339.192 172.771 339.192 174.446C339.192 174.561 339.238 174.672 339.32 174.754C339.402 174.836 339.513 174.882 339.628 174.882C339.744 174.882 339.855 174.836 339.937 174.754C340.018 174.672 340.064 174.561 340.064 174.446C340.064 170.958 340.404 167.574 337.082 165.394C333.062 162.778 328.275 166.266 328.048 170.574C327.856 174.018 327.83 177.55 331.022 179.634C335.042 182.25 339.829 178.762 340.064 174.446C340.09 173.888 339.218 173.888 339.192 174.446Z" fill="#1F0E03"/>
<path d="M240.866 296.474H307.905C310.992 296.474 311.681 302.647 306.536 302.647H152.741C148.111 293.387 127.366 236.811 125.308 231.492C123.25 226.173 125.134 220.008 133.54 220.008H192.513C198.687 220.008 205.55 221.037 209.831 230.472C214.113 239.907 240.866 296.474 240.866 296.474Z" fill="#5F7E91"/>
<path d="M308.114 302.403C308.306 302.335 308.493 302.254 308.672 302.159H308.716C311.332 300.685 310.46 296.5 307.905 296.5H240.866L240.813 296.386L240.682 296.116C240.447 295.61 239.985 294.625 239.322 293.238C233.576 281.03 213.494 238.546 209.831 230.454C205.55 221.028 198.687 219.99 192.513 219.99H187.028C193.202 219.99 200.056 221.019 204.346 230.454C208.636 239.889 235.381 296.465 235.381 296.465L237.692 302.473L245.199 302.638H306.536C306.828 302.64 307.12 302.616 307.408 302.569C307.57 302.541 307.73 302.503 307.888 302.455L308.114 302.403Z" fill="#49687A"/>
<path d="M185.145 262.186C186.836 266.372 184.831 269.764 180.663 269.764C176.495 269.764 171.751 266.372 170.059 262.186C168.368 258.001 170.373 254.609 174.533 254.609C178.692 254.609 183.488 257.992 185.145 262.186Z" stroke="#1F0E03" stroke-miterlimit="10"/>
<path d="M386.559 307.435H144.701V345.803C171.254 351.453 207.041 355.534 242.278 355.979C290.517 356.589 340.535 356.049 386.559 353.808V307.435Z" fill="#D57C13" fill-opacity="0.46"/>
<path d="M396.596 306.484C396.594 307.583 396.155 308.637 395.377 309.413C394.599 310.19 393.545 310.626 392.445 310.626H138.807C137.708 310.626 136.655 310.19 135.878 309.413C135.101 308.636 134.665 307.582 134.665 306.484C134.665 305.385 135.101 304.33 135.877 303.552C136.654 302.774 137.707 302.336 138.807 302.333H392.445C393.546 302.333 394.602 302.771 395.38 303.549C396.159 304.327 396.596 305.383 396.596 306.484Z" fill="#C97440"/>
<path d="M115.559 159.604C121.306 165.054 126.023 165.054 126.023 159.604C126.023 154.154 126.023 145.251 125.98 139.801C125.936 134.351 121.262 129.895 115.516 129.895H94.6224C88.8847 129.895 88.8934 134.351 94.6224 139.801C100.351 145.251 109.804 154.163 115.559 159.604Z" fill="#001D4F"/>
<path d="M219.214 29.3362H96.3403C77.8568 29.3362 62.8729 44.32 62.8729 62.8036V106.901C62.8729 125.384 77.8568 140.368 96.3403 140.368H219.214C237.697 140.368 252.681 125.384 252.681 106.901V62.8036C252.681 44.32 237.697 29.3362 219.214 29.3362Z" fill="#001D4F"/>
<path d="M234.735 72.9102H149.044V78.4822H234.735V72.9102Z" fill="#FFF2DB"/>
<path d="M223.042 86.4521H149.044V92.0242H223.042V86.4521Z" fill="#FFF2DB"/>
<path d="M198.129 99.9856H149.044V105.558H198.129V99.9856Z" fill="#FFF2DB"/>
<path d="M228.431 113.528H149.044V119.1H228.431V113.528Z" fill="#FFF2DB"/>
<path d="M132.04 117.033C129.494 110.694 120.652 106.16 116.143 106.221H100.883C95.8781 106.691 87.5418 110.694 84.9868 117.033C91.2771 123.19 99.7289 126.638 108.531 126.638C117.333 126.638 125.784 123.19 132.075 117.033H132.04Z" fill="#31241C"/>
<path d="M102.287 93.1841C102.287 93.1841 100.822 105.183 99.8108 111.958C99.0784 116.911 116.858 118.306 117.399 112.97C117.87 106.63 118.411 95.896 118.411 95.896" fill="#C97440"/>
<path d="M101.564 98.7125L102.287 93.2014L118.411 95.9133C118.411 95.9133 118.245 99.2182 118.018 103.352C116.867 103.723 115.676 103.957 114.469 104.049C112.051 104.231 109.623 103.843 107.381 102.916C105.14 101.989 103.147 100.549 101.564 98.7125Z" fill="#AB5D2D"/>
<path d="M128.77 83.7229C129.078 87.8381 127.738 91.907 125.047 95.0351C122.355 98.1632 118.532 100.094 114.417 100.404C110.3 100.712 106.23 99.3714 103.102 96.6781C99.9735 93.9847 98.0432 90.159 97.7355 86.0425L96.506 69.6401C96.3538 67.6023 96.6045 65.5544 97.244 63.6135C97.8834 61.6726 98.899 59.8767 100.233 58.3284C101.566 56.7801 103.192 55.5097 105.017 54.5899C106.842 53.6701 108.83 53.1188 110.868 52.9675C112.906 52.814 114.954 53.0636 116.895 53.702C118.837 54.3403 120.633 55.355 122.182 56.6879C123.731 58.0208 125.003 59.6459 125.924 61.4703C126.845 63.2947 127.397 65.2827 127.549 67.3206L128.77 83.7229Z" fill="#C97440"/>
<path d="M107.624 71.3841C109.728 71.0246 111.607 69.8535 112.856 68.1228C113.501 67.2508 111.984 66.3788 111.356 67.2508C110.329 68.5925 108.817 69.4784 107.144 69.7186C106.054 69.9453 106.517 71.6196 107.607 71.3841H107.624Z" fill="#31241C"/>
<path d="M125.195 67.9396C124.636 67.8657 124.105 67.654 123.648 67.3237C123.191 66.9934 122.824 66.5549 122.579 66.0474C122.038 65.0707 120.547 65.9427 121.079 66.9194C121.433 67.6149 121.943 68.2192 122.569 68.685C123.196 69.1509 123.921 69.4658 124.689 69.6052C125.779 69.8144 126.241 68.1489 125.151 67.9396H125.195Z" fill="#31241C"/>
<path d="M117.399 82.345C117.241 82.3456 117.088 82.2864 116.972 82.1793C116.908 82.1221 116.855 82.0528 116.818 81.9754C116.781 81.8979 116.759 81.8139 116.754 81.728C116.749 81.6422 116.761 81.5562 116.79 81.475C116.818 81.3939 116.862 81.3191 116.92 81.255L118.995 78.9268L116.606 77.9414C116.526 77.9082 116.454 77.8597 116.393 77.7985C116.332 77.7374 116.284 77.6649 116.251 77.5851C116.218 77.5053 116.202 77.4199 116.202 77.3337C116.202 77.2474 116.219 77.1621 116.252 77.0825C116.286 77.0029 116.334 76.9307 116.395 76.8698C116.456 76.809 116.529 76.7608 116.609 76.728C116.688 76.6952 116.774 76.6785 116.86 76.6787C116.946 76.6789 117.032 76.6961 117.111 76.7294L120.346 78.0722C120.444 78.1119 120.531 78.1746 120.599 78.2551C120.668 78.3356 120.716 78.4314 120.739 78.5344C120.76 78.6359 120.756 78.7409 120.729 78.8408C120.702 78.9407 120.651 79.0329 120.582 79.1099L117.887 82.127C117.826 82.1957 117.751 82.2506 117.667 82.2882C117.582 82.3258 117.491 82.3451 117.399 82.345Z" fill="#31241C"/>
<path d="M113.475 88.9548C113.37 88.9551 113.267 88.9308 113.173 88.8839C113.079 88.8369 112.997 88.7686 112.934 88.6845C112.835 88.5417 112.796 88.3658 112.826 88.1946C112.855 88.0233 112.95 87.8704 113.091 87.7689C115.707 85.9464 117.983 85.2139 119.972 85.5976C120.141 85.6294 120.291 85.727 120.389 85.8691C120.487 86.0112 120.525 86.1863 120.495 86.3562C120.461 86.5266 120.362 86.6769 120.218 86.7747C120.075 86.8726 119.898 86.9102 119.727 86.8794C118.105 86.5742 116.126 87.2282 113.85 88.8414C113.74 88.9166 113.609 88.9562 113.475 88.9548Z" fill="#31241C"/>
<path d="M113.414 77.0258C113.325 77.3898 113.13 77.7193 112.854 77.9723C112.577 78.2253 112.232 78.3906 111.861 78.4471C111.491 78.5037 111.112 78.449 110.773 78.2899C110.434 78.1309 110.149 77.8747 109.956 77.5538C109.762 77.2329 109.668 76.8617 109.686 76.4874C109.703 76.1131 109.832 75.7524 110.055 75.4512C110.278 75.1499 110.585 74.9216 110.938 74.7952C111.29 74.6688 111.673 74.65 112.036 74.7412C112.277 74.8004 112.504 74.9065 112.703 75.0534C112.903 75.2004 113.071 75.3853 113.199 75.5975C113.327 75.8098 113.412 76.0452 113.449 76.2903C113.486 76.5354 113.474 76.7853 113.414 77.0258Z" fill="#1A191F"/>
<path d="M124.724 76.3544C124.635 76.7185 124.44 77.0479 124.163 77.3009C123.887 77.5539 123.542 77.7192 123.171 77.7757C122.801 77.8323 122.422 77.7776 122.083 77.6185C121.743 77.4595 121.459 77.2033 121.265 76.8824C121.072 76.5615 120.978 76.1903 120.996 75.816C121.013 75.4417 121.142 75.081 121.365 74.7798C121.587 74.4785 121.895 74.2502 122.248 74.1238C122.6 73.9974 122.983 73.9786 123.346 74.0698C123.587 74.129 123.813 74.2351 124.013 74.382C124.213 74.529 124.381 74.7139 124.509 74.9261C124.637 75.1384 124.722 75.3738 124.759 75.6189C124.796 75.864 124.784 76.1139 124.724 76.3544Z" fill="#1A191F"/>
<path d="M100.718 81.9179C101.07 83.3748 100.83 84.9119 100.05 86.1919C99.2702 87.472 98.0145 88.3904 96.5583 88.7457C95.1014 89.0979 93.5643 88.8577 92.2843 88.0779C91.0042 87.2981 90.0858 86.0424 89.7305 84.5862L89.312 82.8422C89.1364 82.1208 89.1047 81.3718 89.2188 80.6381C89.3328 79.9044 89.5904 79.2004 89.9767 78.5663C90.363 77.9322 90.8704 77.3805 91.4701 76.9426C92.0697 76.5047 92.7498 76.1894 93.4714 76.0145C94.9272 75.6625 96.4632 75.9029 97.7418 76.6828C99.0205 77.4628 99.9372 78.7184 100.29 80.1739L100.718 81.9179Z" fill="#C97440"/>
<path d="M92.1896 76.6161C90.8641 72.8317 84.3415 57.4321 94.0207 56.9787C94.6137 50.9357 103.011 47.7442 113.51 45.6427C124.009 43.5412 130.54 48.5029 129.747 53.4122C128.953 58.3216 122.5 60.1179 117.39 58.6442C115.934 63.9547 108.888 62.1322 107.362 61.1033C106.185 66.2481 100.386 67.495 101.005 71.0789C101.625 74.6629 101.965 78.3165 102.104 79.049C102.244 79.7815 99.183 81.2029 98.5116 79.7466C97.8401 78.2904 95.2241 75.7441 92.1896 76.6161Z" fill="#31241C"/>
<path d="M121.192 160.633C127.558 161.898 123.913 140.298 123.869 137.037L123.433 137.473C137.141 137.595 150.846 137.61 164.548 137.517C174.349 137.429 184.133 137.176 193.935 137.176C199.96 137.176 205.951 136.95 211.968 136.723C218.42 136.47 224.847 136.496 231.152 134.822C243.176 131.631 247.554 118.917 248.801 107.79C248.862 107.232 247.99 107.241 247.929 107.79C247.004 116.074 244.493 125.152 237.831 130.663C232.817 134.822 225.414 135.345 219.188 135.65C212.962 135.956 206.762 136.217 200.553 136.304C180.916 136.583 161.261 136.775 141.615 136.732C135.563 136.732 129.508 136.7 123.451 136.636C123.336 136.638 123.226 136.685 123.145 136.766C123.064 136.847 123.017 136.957 123.015 137.072C123.015 139.819 125.892 160.712 121.445 159.831C120.896 159.718 120.66 160.563 121.21 160.703L121.192 160.633Z" fill="#1F0E03"/>
<path d="M248.374 70.4336C248.374 81.2638 248.844 92.1551 248.112 102.968C248.068 103.535 248.94 103.526 248.984 102.968C249.716 92.1551 249.254 81.2638 249.246 70.4336C249.246 70.3179 249.2 70.207 249.118 70.1253C249.036 70.0435 248.925 69.9976 248.81 69.9976C248.694 69.9976 248.583 70.0435 248.501 70.1253C248.419 70.207 248.374 70.3179 248.374 70.4336Z" fill="#1F0E03"/>
<path d="M552.248 131.517H424.858C405.695 131.517 390.161 147.051 390.161 166.214V211.933C390.161 231.095 405.695 246.63 424.858 246.63H552.248C571.411 246.63 586.945 231.095 586.945 211.933V166.214C586.945 147.051 571.411 131.517 552.248 131.517Z" fill="#001D4F"/>
<path d="M429.444 266.581C423.48 272.223 418.614 272.223 418.623 266.581C418.632 260.939 418.623 251.696 418.666 246.054C418.71 240.413 423.558 235.782 429.505 235.782H451.14C457.087 235.782 457.078 240.404 451.14 246.054L429.444 266.581Z" fill="#001D4F"/>
<path d="M502.099 179.12H413.26V184.892H502.099V179.12Z" fill="#FFF2DB"/>
<path d="M489.979 193.15H413.26V198.931H489.979V193.15Z" fill="#FFF2DB"/>
<path d="M464.15 207.189H413.26V212.971H464.15V207.189Z" fill="#FFF2DB"/>
<path d="M522.487 224.586C525.103 218.011 534.294 213.311 538.976 213.372H554.777C560.009 213.86 568.616 218.011 571.266 224.586C564.749 230.961 555.994 234.531 546.877 234.531C537.759 234.531 529.005 230.961 522.487 224.586Z" fill="#31241C"/>
<path d="M553.33 199.882C553.33 199.882 554.847 212.317 555.893 219.345C556.652 224.481 538.218 225.92 537.66 220.383C537.171 213.817 536.613 202.69 536.613 202.69" fill="#C97440"/>
<path d="M554.088 205.594L553.338 199.882L536.648 202.69C536.648 202.69 536.822 206.108 537.049 210.398C540.047 211.36 543.262 211.417 546.292 210.562C549.322 209.708 552.034 207.98 554.088 205.594Z" fill="#AB5D2D"/>
<path d="M525.87 190.046C525.712 192.158 525.971 194.282 526.634 196.294C527.296 198.307 528.349 200.169 529.731 201.775C531.113 203.38 532.798 204.698 534.69 205.653C536.581 206.607 538.642 207.18 540.755 207.337C542.868 207.496 544.991 207.236 547.004 206.574C549.016 205.911 550.878 204.859 552.484 203.477C554.09 202.094 555.408 200.409 556.362 198.518C557.316 196.626 557.889 194.565 558.047 192.452L559.32 175.431C559.478 173.319 559.219 171.196 558.556 169.184C557.893 167.172 556.841 165.31 555.459 163.705C554.076 162.1 552.391 160.783 550.5 159.83C548.608 158.876 546.547 158.305 544.435 158.148C542.322 157.989 540.198 158.247 538.185 158.909C536.172 159.571 534.31 160.624 532.704 162.006C531.098 163.389 529.78 165.074 528.826 166.966C527.872 168.858 527.3 170.92 527.143 173.033L525.87 190.046Z" fill="#C97440"/>
<path d="M547.984 175.64C547.539 174.786 546.851 174.081 546.007 173.616C545.163 173.15 544.201 172.945 543.24 173.024C542.15 173.155 542.133 174.882 543.24 174.768C543.895 174.694 544.558 174.821 545.139 175.133C545.72 175.444 546.192 175.926 546.493 176.512C547.007 177.498 548.498 176.626 547.984 175.64Z" fill="#31241C"/>
<path d="M530.431 175.152C530.843 174.728 531.352 174.41 531.913 174.223C532.475 174.036 533.073 173.987 533.657 174.079C534.747 174.341 535.201 172.667 534.119 172.405C533.239 172.236 532.33 172.287 531.473 172.553C530.617 172.819 529.839 173.293 529.21 173.931C528.443 174.733 529.663 175.963 530.431 175.152Z" fill="#31241C"/>
<path d="M537.651 188.598C537.559 188.597 537.468 188.577 537.384 188.539C537.301 188.502 537.225 188.448 537.163 188.38L534.372 185.25C534.304 185.172 534.256 185.08 534.23 184.98C534.204 184.88 534.202 184.775 534.224 184.674C534.246 184.572 534.292 184.476 534.359 184.396C534.426 184.315 534.511 184.252 534.608 184.212L537.965 182.817C538.045 182.783 538.132 182.765 538.22 182.764C538.307 182.764 538.394 182.78 538.475 182.814C538.557 182.847 538.63 182.896 538.692 182.958C538.754 183.02 538.803 183.093 538.837 183.174C538.873 183.254 538.892 183.341 538.894 183.428C538.895 183.516 538.88 183.603 538.847 183.684C538.814 183.766 538.766 183.84 538.704 183.902C538.643 183.964 538.569 184.013 538.488 184.046L535.977 185.084L538.157 187.526C538.214 187.59 538.258 187.665 538.287 187.746C538.315 187.827 538.327 187.913 538.322 187.999C538.317 188.085 538.296 188.169 538.258 188.246C538.221 188.324 538.169 188.393 538.104 188.45C537.976 188.553 537.815 188.605 537.651 188.598Z" fill="#31241C"/>
<path d="M537.398 197.554C535.61 197.554 534.398 195.653 533.692 191.746C533.674 191.645 533.681 191.54 533.711 191.442C533.742 191.343 533.795 191.253 533.866 191.179C533.94 191.106 534.029 191.051 534.128 191.018C534.226 190.985 534.33 190.974 534.433 190.988C535.931 191.212 537.444 191.323 538.959 191.319C539.997 191.319 541.13 191.275 542.447 191.188C542.566 191.175 542.686 191.197 542.793 191.252C542.9 191.306 542.989 191.39 543.049 191.493C543.111 191.596 543.144 191.713 543.144 191.833C543.144 191.953 543.111 192.071 543.049 192.174C540.886 195.792 539.046 197.554 537.398 197.554ZM535.157 192.4C535.706 194.859 536.509 196.246 537.398 196.246C537.974 196.246 539.203 195.74 541.244 192.566C539.214 192.691 537.177 192.636 535.157 192.4Z" fill="#31241C"/>
<path d="M541.784 183.113C541.878 183.49 542.081 183.83 542.368 184.09C542.654 184.351 543.012 184.521 543.395 184.579C543.779 184.637 544.17 184.58 544.521 184.415C544.872 184.251 545.167 183.986 545.367 183.654C545.568 183.322 545.665 182.938 545.648 182.551C545.631 182.164 545.499 181.791 545.27 181.478C545.04 181.166 544.723 180.928 544.359 180.795C543.995 180.663 543.6 180.641 543.223 180.733C542.717 180.859 542.282 181.18 542.012 181.626C541.742 182.072 541.66 182.607 541.784 183.113Z" fill="#1A191F"/>
<path d="M530.064 182.416C530.159 182.792 530.362 183.132 530.65 183.393C530.937 183.653 531.295 183.823 531.679 183.88C532.062 183.937 532.454 183.879 532.805 183.714C533.156 183.548 533.45 183.282 533.65 182.95C533.849 182.617 533.946 182.233 533.927 181.845C533.909 181.458 533.776 181.085 533.545 180.773C533.315 180.461 532.997 180.224 532.632 180.093C532.267 179.962 531.871 179.942 531.495 180.035C531.244 180.096 531.007 180.207 530.799 180.36C530.591 180.513 530.416 180.706 530.283 180.927C530.15 181.148 530.062 181.394 530.024 181.65C529.987 181.905 530.001 182.166 530.064 182.416Z" fill="#1A191F"/>
<path d="M554.96 188.18C554.778 188.927 554.745 189.703 554.863 190.463C554.981 191.223 555.248 191.952 555.648 192.609C556.048 193.266 556.573 193.837 557.195 194.29C557.816 194.744 558.52 195.071 559.268 195.252C560.015 195.434 560.791 195.467 561.551 195.349C562.311 195.231 563.04 194.964 563.697 194.564C564.354 194.164 564.925 193.638 565.379 193.017C565.832 192.396 566.159 191.691 566.34 190.944L566.776 189.148C566.958 188.4 566.991 187.624 566.873 186.863C566.755 186.102 566.488 185.373 566.088 184.715C565.688 184.057 565.163 183.485 564.542 183.031C563.92 182.576 563.216 182.249 562.468 182.067C561.72 181.885 560.944 181.852 560.183 181.971C559.423 182.09 558.693 182.357 558.036 182.758C557.38 183.159 556.808 183.685 556.355 184.308C555.902 184.93 555.576 185.635 555.396 186.383L554.96 188.18Z" fill="#C97440"/>
<path d="M563.793 182.66C565.171 178.736 571.886 162.778 561.901 162.29C561.282 156.029 552.571 152.698 541.697 150.588C530.823 148.478 524.039 153.553 524.859 158.645C525.678 163.738 532.367 165.621 537.668 164.086C539.177 169.589 546.475 167.731 548.063 166.633C549.283 171.969 555.344 173.26 554.655 176.975C553.966 180.689 553.652 184.483 553.521 185.241C553.39 186 556.547 187.473 557.236 185.956C557.925 184.439 560.645 181.727 563.793 182.66Z" fill="#31241C"/>
<path d="M551.829 244.04C564.639 243.525 578.364 235.381 581.094 222.144C581.207 221.595 580.37 221.359 580.222 221.909C577.606 234.762 564.238 242.671 551.795 243.168C551.236 243.168 551.236 244.04 551.795 244.04H551.829Z" fill="#1F0E03"/>
<path d="M541.235 244.127C543.572 244.206 545.909 244.258 548.211 244.302C548.326 244.302 548.437 244.256 548.519 244.174C548.601 244.092 548.647 243.981 548.647 243.866C548.647 243.75 548.601 243.639 548.519 243.557C548.437 243.476 548.326 243.43 548.211 243.43C545.874 243.386 543.537 243.334 541.235 243.255C540.677 243.255 540.677 244.127 541.235 244.127Z" fill="#1F0E03"/>
<path d="M429.244 263.381C433.604 259.431 438.042 255.533 442.175 251.278C444.085 249.316 445.786 246.761 448.088 245.217C449.508 244.421 451.116 244.021 452.744 244.058C455.883 243.874 459.049 243.962 462.197 243.918C467.899 243.84 473.594 243.534 479.305 243.543C485.409 243.543 491.513 243.831 497.617 244.11C509.511 244.651 521.432 245.217 533.299 243.988C533.858 243.936 533.858 243.064 533.299 243.116C521.161 244.372 508.962 243.752 496.798 243.203C490.397 242.907 484.005 242.662 477.614 242.671C471.902 242.671 466.19 243.002 460.479 243.064C456.581 243.107 451.157 242.244 447.652 244.459C445.48 245.837 443.85 248.252 442.123 250.074C437.868 254.557 433.22 258.637 428.625 262.771C428.206 263.146 428.825 263.756 429.244 263.381Z" fill="#1F0E03"/>
<path d="M496.911 51.9036H327.795C317.764 51.9036 309.631 60.0358 309.631 70.0673V86.9754C309.631 97.007 317.764 105.139 327.795 105.139H496.911C506.942 105.139 515.075 97.007 515.075 86.9754V70.0673C515.075 60.0358 506.942 51.9036 496.911 51.9036Z" fill="#6CCEE3" fill-opacity="0.1"/>
<path d="M337.884 64.6085C338.521 63.318 339.567 63.318 340.204 64.6085L342.236 68.7331C342.629 69.4273 343.166 70.0293 343.811 70.4986C344.457 70.9678 345.195 71.2935 345.976 71.4538L350.528 72.1165C351.95 72.3257 352.272 73.3111 351.243 74.3139L347.956 77.488C347.416 78.0769 347.009 78.7748 346.763 79.5345C346.516 80.2942 346.435 81.098 346.526 81.8916L347.302 86.4173C347.546 87.8387 346.7 88.4491 345.427 87.7776L341.32 85.6761C340.593 85.3441 339.804 85.1723 339.005 85.1723C338.206 85.1723 337.416 85.3441 336.69 85.6761L332.626 87.8125C331.353 88.4839 330.507 87.8735 330.751 86.4522L331.527 81.9265C331.62 81.1328 331.54 80.3285 331.293 79.5686C331.046 78.8086 330.638 78.1108 330.097 77.5229L326.81 74.3139C325.781 73.3111 326.104 72.3257 327.525 72.1165L332.077 71.4538C332.858 71.2935 333.597 70.9678 334.242 70.4986C334.887 70.0293 335.424 69.4273 335.818 68.7331L337.884 64.6085Z" fill="#001D4F"/>
<path d="M374.221 64.6085C374.857 63.318 375.904 63.318 376.54 64.6085L378.563 68.7331C378.959 69.4268 379.498 70.0283 380.145 70.4974C380.791 70.9665 381.53 71.2925 382.313 71.4537L386.856 72.1165C388.286 72.3257 388.6 73.3111 387.571 74.3139L384.284 77.488C383.744 78.0769 383.337 78.7748 383.09 79.5345C382.844 80.2942 382.763 81.098 382.853 81.8916L383.63 86.4173C383.874 87.8386 383.037 88.449 381.763 87.7776L377.691 85.6412C376.965 85.3093 376.175 85.1375 375.376 85.1375C374.577 85.1375 373.788 85.3093 373.061 85.6412L368.997 87.7776C367.724 88.449 366.878 87.8386 367.123 86.4173L367.899 81.8916C367.989 81.098 367.909 80.2942 367.662 79.5345C367.415 78.7748 367.008 78.0769 366.469 77.488L363.181 74.279C362.152 73.2762 362.475 72.2909 363.896 72.0816L368.439 71.4189C369.222 71.2598 369.962 70.9346 370.609 70.4653C371.256 69.996 371.795 69.3934 372.189 68.6982L374.221 64.6085Z" fill="#001D4F"/>
<path d="M410.557 64.6085C411.193 63.318 412.231 63.318 412.868 64.6085L414.899 68.7331C415.295 69.4276 415.833 70.0296 416.48 70.4988C417.127 70.968 417.866 71.2936 418.649 71.4537L423.192 72.1165C424.622 72.3257 424.936 73.3111 423.907 74.3139L420.62 77.488C420.08 78.0769 419.673 78.7748 419.426 79.5345C419.18 80.2942 419.099 81.098 419.19 81.8916L419.966 86.4173C420.21 87.8386 419.364 88.449 418.091 87.7776L414.027 85.6412C413.301 85.3093 412.511 85.1375 411.712 85.1375C410.913 85.1375 410.124 85.3093 409.397 85.6412L405.334 87.7776C404.06 88.449 403.215 87.8386 403.459 86.4173L404.235 81.8916C404.325 81.098 404.245 80.2942 403.998 79.5345C403.751 78.7748 403.344 78.0769 402.805 77.488L399.517 74.279C398.488 73.2762 398.802 72.2909 400.232 72.0816L404.775 71.4189C405.557 71.2586 406.295 70.9329 406.941 70.4637C407.586 69.9944 408.123 69.3924 408.516 68.6982L410.557 64.6085Z" fill="#001D4F"/>
<path d="M446.884 64.6085C447.521 63.318 448.567 63.318 449.204 64.6085L451.236 68.7331C451.63 69.4283 452.168 70.0308 452.815 70.5002C453.462 70.9695 454.202 71.2947 454.985 71.4537L459.528 72.1165C460.95 72.3257 461.272 73.3111 460.243 74.3139L456.956 77.488C456.416 78.0769 456.009 78.7748 455.763 79.5345C455.516 80.2942 455.435 81.098 455.526 81.8916L456.302 86.4173C456.546 87.8386 455.7 88.449 454.427 87.7776L450.364 85.6412C449.637 85.3093 448.847 85.1375 448.048 85.1375C447.25 85.1375 446.46 85.3093 445.733 85.6412L441.661 87.7776C440.388 88.449 439.551 87.8386 439.786 86.4173L440.571 81.8916C440.66 81.0974 440.578 80.2934 440.329 79.5337C440.081 78.7741 439.673 78.0765 439.132 77.488L435.845 74.279C434.816 73.2762 435.138 72.2909 436.56 72.0816L441.112 71.4189C441.893 71.2586 442.632 70.9329 443.277 70.4637C443.922 69.9944 444.459 69.3924 444.853 68.6982L446.884 64.6085Z" fill="#001D4F"/>
<path d="M483.22 64.6085C483.857 63.318 484.903 63.318 485.54 64.6085L487.572 68.7331C487.965 69.4273 488.502 70.0293 489.148 70.4985C489.793 70.9678 490.531 71.2935 491.313 71.4537L495.864 72.1165C497.286 72.3257 497.608 73.3111 496.579 74.3139L493.292 77.488C492.751 78.0765 492.343 78.7741 492.095 79.5337C491.847 80.2934 491.764 81.0974 491.853 81.8916L492.638 86.4173C492.874 87.8386 492.036 88.449 490.763 87.7776L486.691 85.6412C485.964 85.3093 485.175 85.1375 484.376 85.1375C483.577 85.1375 482.787 85.3093 482.061 85.6412L477.997 87.7776C476.724 88.449 475.878 87.8386 476.122 86.4173L476.898 81.8916C476.989 81.098 476.908 80.2942 476.662 79.5345C476.415 78.7748 476.008 78.0769 475.468 77.488L472.181 74.279C471.152 73.2762 471.475 72.2909 472.896 72.0816L477.439 71.4189C478.222 71.2598 478.962 70.9346 479.609 70.4653C480.256 69.996 480.795 69.3934 481.189 68.6982L483.22 64.6085Z" fill="#001D4F"/>
<path d="M400.52 102.462C403.389 102.462 406.249 102.183 409.118 102.148C409.234 102.148 409.345 102.102 409.426 102.02C409.508 101.939 409.554 101.828 409.554 101.712C409.554 101.596 409.508 101.486 409.426 101.404C409.345 101.322 409.234 101.276 409.118 101.276C406.249 101.276 403.389 101.555 400.52 101.59C400.404 101.59 400.294 101.636 400.212 101.718C400.13 101.8 400.084 101.91 400.084 102.026C400.084 102.142 400.13 102.253 400.212 102.334C400.294 102.416 400.404 102.462 400.52 102.462Z" fill="#1F0E03"/>
<path d="M413.112 102.148C423.366 101.913 433.621 102.375 443.876 102.209C448.986 102.122 454.061 101.642 459.162 101.39C464.534 101.128 469.905 101.224 475.277 101.39C480.404 101.52 485.523 101.721 490.65 101.791C494.19 101.843 497.783 102.017 501.262 101.267C506.965 100.029 509.381 95.4251 509.764 89.9315C509.764 89.3734 508.892 89.3734 508.892 89.9315C508.683 92.9748 508.02 95.9657 505.71 98.137C503.652 100.125 500.547 100.657 497.862 100.866C493.765 101.06 489.661 101.039 485.566 100.805C480.727 100.683 475.896 100.5 471.065 100.413C461.412 100.247 451.881 101.285 442.21 101.381C432.54 101.477 422.843 101.076 413.155 101.294C413.04 101.294 412.929 101.34 412.847 101.421C412.765 101.503 412.719 101.614 412.719 101.73C412.719 101.845 412.765 101.956 412.847 102.038C412.929 102.12 413.04 102.166 413.155 102.166L413.112 102.148Z" fill="#1F0E03"/>
<path d="M90.6985 178.213H18.9416C8.91003 178.213 0.777832 186.345 0.777832 196.377V217.505C0.777832 227.537 8.91003 235.669 18.9416 235.669H90.6985C100.73 235.669 108.862 227.537 108.862 217.505V196.377C108.862 186.345 100.73 178.213 90.6985 178.213Z" fill="#004858" fill-opacity="0.32"/>
<path d="M63.0647 232.538C75.4995 229.495 89.3555 235.616 100.692 227.952C101.154 227.646 100.692 226.888 100.247 227.202C89.0591 234.771 75.1507 228.684 62.8293 231.701C62.2886 231.832 62.5154 232.669 63.0647 232.573V232.538Z" fill="#1F0E03"/>
<path d="M104.807 200.335C105.008 202.21 104.912 204.085 105.165 205.96C105.524 208.093 105.722 210.25 105.758 212.413C105.714 216.563 105.366 220.976 102.959 224.49C102.636 224.961 103.395 225.362 103.709 224.935C105.828 221.839 106.325 218.124 106.569 214.471C106.714 212.57 106.677 210.661 106.456 208.768C106.072 205.951 105.976 203.169 105.679 200.353C105.627 199.795 104.755 199.795 104.807 200.353V200.335Z" fill="#1F0E03"/>
</svg>
