<svg width="23" height="21" viewBox="0 0 23 21" fill="none" xmlns="http://www.w3.org/2000/svg">
<path opacity="0.6" d="M22.4164 9.1029V6.49069H20.4035V0.000326347H18.009V6.49069H9.98192L4.82411 0.0323264V0H2.42958V6.49036H0.416687V9.10257H2.42958V11.3883H0.416687V14.0005H2.42958V20.4291H4.82411V14.0008H12.8404L17.9937 20.4294L18.0093 20.4236V20.4294H20.4038V14.0008H22.4167V11.3886H20.4038V9.1029H22.4164ZM4.82411 4.0006L6.81995 6.49069H4.82411V4.0006ZM4.82411 11.3886V9.1029H8.91426L10.7464 11.3886H4.82411ZM18.009 16.5415L15.9796 14.0008H18.009V16.5415ZM18.009 11.3886H13.8934L12.0678 9.1029H18.009V11.3886Z" fill="white"/>
</svg>
