<svg width="33" height="32" viewBox="0 0 33 32" fill="none" xmlns="http://www.w3.org/2000/svg">
<g opacity="0.6">
<path d="M28.4164 15.1029V12.4907H26.4036V6.00033H24.009V12.4907H15.982L10.8242 6.03233V6H8.42965V12.4904H6.41675V15.1026H8.42965V17.3883H6.41675V20.0005H8.42965V26.4291H10.8242V20.0008H18.8404L23.9938 26.4294L24.0093 26.4236V26.4294H26.4039V20.0008H28.4167V17.3886H26.4039V15.1029H28.4164ZM10.8242 10.0006L12.82 12.4907H10.8242V10.0006ZM10.8242 17.3886V15.1029H14.9143L16.7464 17.3886H10.8242ZM24.009 22.5415L21.9797 20.0008H24.009V22.5415ZM24.009 17.3886H19.8934L18.0679 15.1029H24.009V17.3886Z" fill="white"/>
</g>
</svg>
