<svg width="24" height="30" viewBox="0 0 24 30" fill="none" xmlns="http://www.w3.org/2000/svg">
<g clip-path="url(#clip0)">
<path d="M1.875 10.875H2.67037L4.128 22.173C4.13967 22.2634 4.18387 22.3465 4.25233 22.4067C4.3208 22.4668 4.40884 22.5 4.5 22.5H13.3275C13.5378 22.7357 13.7955 22.9243 14.0837 23.0536C14.3719 23.1828 14.6841 23.2498 15 23.25H15.5873C15.9991 23.2496 16.4052 23.1538 16.7738 22.9699C17.0383 22.8384 17.3296 22.77 17.625 22.77C17.9204 22.77 18.2117 22.8384 18.4762 22.9699C18.8448 23.1538 19.2509 23.2496 19.6628 23.25H20.25C20.8466 23.2494 21.4185 23.0122 21.8403 22.5903C22.2622 22.1685 22.4994 21.5966 22.5 21V18.75C22.4994 18.1534 22.2622 17.5815 21.8403 17.1597C21.4185 16.7378 20.8466 16.5006 20.25 16.5H19.6628C19.2509 16.5004 18.8448 16.5962 18.4762 16.7801C18.2117 16.9116 17.9204 16.98 17.625 16.98C17.3296 16.98 17.0383 16.9116 16.7738 16.7801C16.5599 16.6752 16.3328 16.5995 16.0988 16.5551L16.8296 10.875H17.625C17.7245 10.875 17.8198 10.8355 17.8902 10.7652C17.9605 10.6948 18 10.5995 18 10.5V9C18 8.90054 17.9605 8.80516 17.8902 8.73483C17.8198 8.66451 17.7245 8.625 17.625 8.625H16.125V7.5C16.125 7.40055 16.0855 7.30518 16.0151 7.23487L14.25 5.46975V4.305L14.8185 3.8505L15.7894 5.79262L16.4606 5.45738L15.4174 3.37125L15.8812 3H17.25C17.3495 3 17.4448 2.96049 17.5152 2.89016C17.5855 2.81984 17.625 2.72446 17.625 2.625V1.125C17.625 1.02554 17.5855 0.930161 17.5152 0.859835C17.4448 0.789509 17.3495 0.75 17.25 0.75H13.5C12.6052 0.751092 11.7474 1.10702 11.1147 1.73972C10.482 2.37242 10.1261 3.23023 10.125 4.125C10.125 4.22446 10.1645 4.31984 10.2348 4.39016C10.3052 4.46049 10.4005 4.5 10.5 4.5H11.25V5.46975L10.2349 6.48487C10.1645 6.55518 10.125 6.65055 10.125 6.75V8.625H9.375V5.625C9.37442 5.57856 9.36514 5.53264 9.34762 5.48962C9.34076 5.47503 9.333 5.46088 9.32438 5.44725C9.31536 5.42759 9.30482 5.40866 9.29288 5.39062L7.875 3.61875V1.125C7.875 1.02554 7.83549 0.930161 7.76517 0.859835C7.69484 0.789509 7.59946 0.75 7.5 0.75H5.25C5.15054 0.75 5.05516 0.789509 4.98484 0.859835C4.91451 0.930161 4.875 1.02554 4.875 1.125V3.61875L3.45712 5.39062C3.44518 5.40866 3.43464 5.42759 3.42563 5.44725C3.417 5.46088 3.40924 5.47503 3.40237 5.48962C3.38486 5.53264 3.37558 5.57856 3.375 5.625V8.625H1.875C1.77554 8.625 1.68016 8.66451 1.60984 8.73483C1.53951 8.80516 1.5 8.90054 1.5 9V10.5C1.5 10.5995 1.53951 10.6948 1.60984 10.7652C1.68016 10.8355 1.77554 10.875 1.875 10.875ZM20.25 22.5H19.6628C19.3674 22.4996 19.0762 22.4308 18.8119 22.299C18.4431 22.1158 18.0368 22.0204 17.625 22.0204C17.2132 22.0204 16.8069 22.1158 16.4381 22.299C16.1738 22.4308 15.8826 22.4996 15.5873 22.5H15C14.6022 22.5 14.2206 22.342 13.9393 22.0607C13.658 21.7794 13.5 21.3978 13.5 21V20.4225C13.9113 20.7941 14.4457 20.9998 15 21H15.5873C15.9991 20.9996 16.4052 20.9038 16.7738 20.7199C17.0383 20.5884 17.3296 20.52 17.625 20.52C17.9204 20.52 18.2117 20.5884 18.4762 20.7199C18.8448 20.9038 19.2509 20.9996 19.6628 21H20.25C20.8043 20.9998 21.3387 20.7941 21.75 20.4225V21C21.75 21.3978 21.592 21.7794 21.3107 22.0607C21.0294 22.342 20.6478 22.5 20.25 22.5ZM18.8119 17.451C19.0762 17.3192 19.3674 17.2504 19.6628 17.25H20.25C20.6478 17.25 21.0294 17.408 21.3107 17.6893C21.592 17.9706 21.75 18.3522 21.75 18.75C21.75 19.1478 21.592 19.5294 21.3107 19.8107C21.0294 20.092 20.6478 20.25 20.25 20.25H19.6628C19.3674 20.2496 19.0762 20.1808 18.8119 20.049C18.4431 19.8658 18.0368 19.7704 17.625 19.7704C17.2132 19.7704 16.8069 19.8658 16.4381 20.049C16.1738 20.1808 15.8826 20.2496 15.5873 20.25H15C14.6022 20.25 14.2206 20.092 13.9393 19.8107C13.658 19.5294 13.5 19.1478 13.5 18.75C13.5 18.3522 13.658 17.9706 13.9393 17.6893C14.2206 17.408 14.6022 17.25 15 17.25H15.5873C15.8826 17.2504 16.1738 17.3192 16.4381 17.451C16.807 17.6341 17.2132 17.7294 17.625 17.7294C18.0368 17.7294 18.443 17.6341 18.8119 17.451ZM15.3476 16.5H15C14.4034 16.5006 13.8315 16.7378 13.4097 17.1597C12.9878 17.5815 12.7506 18.1534 12.75 18.75V21C12.7506 21.2557 12.795 21.5093 12.8812 21.75H4.82962L3.42638 10.875H5.25V17.625C5.25 18.0228 5.40804 18.4044 5.68934 18.6857C5.97064 18.967 6.35218 19.125 6.75 19.125H10.5C10.8978 19.125 11.2794 18.967 11.5607 18.6857C11.842 18.4044 12 18.0228 12 17.625V14.4818L12.9795 14.9715C13.1209 15.0413 13.2746 15.0824 13.4319 15.0925C13.5892 15.1026 13.747 15.0814 13.8961 15.0303C14.0452 14.9792 14.1827 14.899 14.3008 14.7945C14.4188 14.69 14.515 14.5632 14.5837 14.4214C14.6557 14.2788 14.6988 14.1234 14.7105 13.9642C14.7223 13.8049 14.7026 13.6449 14.6524 13.4932C14.6029 13.3416 14.5237 13.2014 14.4194 13.0807C14.3151 12.96 14.1878 12.8614 14.0449 12.7905L12 11.7682V10.875H16.0736L15.3476 16.5ZM10.5 9.375H11.25V12C11.2496 12.07 11.2688 12.1387 11.3055 12.1984C11.3421 12.258 11.3948 12.3062 11.4574 12.3375L13.7074 13.4625C13.7617 13.4893 13.8101 13.5267 13.8497 13.5725C13.8893 13.6183 13.9193 13.6715 13.938 13.7291C13.9572 13.7909 13.9638 13.856 13.9574 13.9204C13.951 13.9849 13.9316 14.0473 13.9005 14.1041C13.8748 14.1557 13.8392 14.2017 13.7957 14.2394C13.7522 14.2772 13.7017 14.306 13.647 14.3243C13.5923 14.3425 13.5346 14.3497 13.4772 14.3456C13.4197 14.3415 13.3636 14.3261 13.3121 14.3002L11.7896 13.539C11.7325 13.5111 11.6693 13.4982 11.6058 13.5014C11.5423 13.5047 11.4807 13.524 11.4268 13.5576C11.3728 13.5912 11.3283 13.6379 11.2974 13.6935C11.2665 13.749 11.2502 13.8114 11.25 13.875V17.625C11.25 17.8239 11.171 18.0147 11.0303 18.1553C10.8897 18.296 10.6989 18.375 10.5 18.375V15H9.75V18.375H9V15H8.25V18.375H7.5V15H6.75V18.375C6.55109 18.375 6.36032 18.296 6.21967 18.1553C6.07902 18.0147 6 17.8239 6 17.625V9.375H10.5ZM17.25 10.125H12V9.375H17.25V10.125ZM16.875 2.25H16.125V1.5H16.875V2.25ZM13.5 1.5H15.375V2.445L13.7434 3.75H10.9016C10.9926 3.12556 11.3052 2.55468 11.7822 2.14159C12.2593 1.72851 12.869 1.50079 13.5 1.5ZM13.5 4.5V5.25H12V4.5H13.5ZM10.875 6.90525L11.7802 6H13.7197L15.375 7.65525V8.625H10.875V6.90525ZM5.43 4.125H7.32L8.22 5.25H4.53L5.43 4.125ZM5.625 1.5H7.125V3.375H5.625V1.5ZM4.125 6H8.625V8.625H4.125V6ZM2.25 9.375H5.25V10.125H2.25V9.375Z" fill="#001D4F"/>
<path d="M20.625 18H19.875V18.75H20.625V18Z" fill="#001D4F"/>
<path d="M16.875 18H16.125V18.75H16.875V18Z" fill="#001D4F"/>
<path d="M15.375 18.375H14.625V19.125H15.375V18.375Z" fill="#001D4F"/>
<path d="M19.125 18.375H18.375V19.125H19.125V18.375Z" fill="#001D4F"/>
</g>
<defs>
<clipPath id="clip0">
<rect width="24" height="30" fill="white"/>
</clipPath>
</defs>
</svg>
