<svg width="39" height="39" viewBox="0 0 39 39" fill="none" xmlns="http://www.w3.org/2000/svg">
<circle cx="19.5" cy="19.5" r="19.5" fill="#3BC4D4" fill-opacity="0.3"/>
<path d="M25.9386 5.5096C25.9384 5.49736 25.9372 5.48512 25.935 5.47336C25.9348 5.47144 25.9348 5.46952 25.9346 5.46784C25.9343 5.46736 25.9343 5.46712 25.9341 5.46664C25.931 5.45224 25.9269 5.43856 25.9214 5.42512C25.9194 5.42104 25.9175 5.4172 25.9158 5.41336C25.9115 5.40448 25.907 5.39584 25.9017 5.38768C25.8986 5.38312 25.8959 5.3788 25.8926 5.37448C25.8873 5.36728 25.8813 5.36032 25.8753 5.3536C25.8717 5.35 25.8686 5.34616 25.865 5.3428C25.8568 5.33512 25.8479 5.32792 25.8388 5.32144C25.8364 5.32 25.8345 5.31808 25.8326 5.3164C25.8218 5.30944 25.8105 5.3032 25.7987 5.29768C25.7978 5.29744 25.7968 5.2972 25.7958 5.29672C25.7913 5.2948 25.7867 5.2936 25.7817 5.29168C25.773 5.28856 25.7642 5.28568 25.7553 5.28352C25.7502 5.28232 25.7447 5.2816 25.7397 5.28064C25.7303 5.2792 25.721 5.27824 25.7116 5.27776C25.7066 5.27752 25.702 5.27728 25.697 5.27728C25.6838 5.27752 25.671 5.27872 25.6581 5.28112C25.6569 5.28136 25.6557 5.28112 25.6545 5.28136C25.654 5.28136 25.6533 5.2816 25.6528 5.2816C25.6528 5.2816 25.6526 5.2816 25.6523 5.2816C22.4658 5.92288 20.5511 7.01536 19.9619 8.52856C19.5014 9.712 20.0034 10.7726 20.2377 11.1702L19.2371 12.2709V10.1378C19.2371 10.0065 19.1308 9.89992 18.9993 9.89992C18.868 9.89992 18.7614 10.0065 18.7614 10.1378V16.1963L17.7609 15.0959C17.9954 14.698 18.4974 13.6374 18.0366 12.4542C17.4472 10.941 15.5327 9.84856 12.3462 9.20728H12.346C12.3455 9.20728 12.345 9.20704 12.3443 9.20704C12.3429 9.2068 12.3417 9.20704 12.3402 9.20656C12.3275 9.2044 12.3148 9.2032 12.3021 9.20272C12.297 9.20272 12.2922 9.20296 12.2874 9.20296C12.2778 9.20344 12.2685 9.2044 12.2589 9.20584C12.2538 9.2068 12.2488 9.20752 12.244 9.20872C12.2344 9.21088 12.2248 9.214 12.2154 9.2176C12.2114 9.21904 12.2075 9.22024 12.2037 9.22192C12.2027 9.2224 12.2015 9.22264 12.2003 9.22312C12.1883 9.2284 12.177 9.23488 12.1662 9.24208C12.1653 9.2428 12.1643 9.24352 12.1634 9.24424C12.1526 9.25144 12.1427 9.2596 12.1336 9.26848C12.1302 9.2716 12.1276 9.27496 12.1242 9.27832C12.1178 9.28528 12.1115 9.29272 12.1058 9.3004C12.1026 9.30448 12.1 9.3088 12.0971 9.31312C12.0918 9.32152 12.0873 9.33016 12.083 9.33904C12.081 9.34288 12.0789 9.34672 12.0774 9.3508C12.0722 9.364 12.0676 9.37792 12.0647 9.39184C12.0647 9.39232 12.0645 9.3928 12.0645 9.39328C12.064 9.39544 12.0642 9.3976 12.0638 9.39976C12.0618 9.41128 12.0606 9.42304 12.0604 9.4348C12.0604 9.44008 12.0604 9.44536 12.0606 9.45064C12.0606 9.4552 12.0606 9.45976 12.0609 9.46456C12.3964 12.699 13.3022 14.7093 14.7532 15.4396C15.8867 16.0101 16.99 15.6117 17.409 15.4158L18.7617 16.9036V19.8443H15.5162C15.0443 19.8443 14.6603 20.2283 14.6603 20.6999C14.6603 21.1607 15.0268 21.5366 15.4833 21.5543L16.3204 26.5264C16.3396 26.6409 16.439 26.7246 16.5549 26.7246H21.4442C21.5601 26.7246 21.6592 26.6406 21.6789 26.5264L22.5158 21.5543C22.9722 21.5368 23.3387 21.1607 23.3387 20.6999C23.3387 20.2281 22.9547 19.8443 22.4831 19.8443H19.2376V14.908L20.1599 15.4482C20.1174 15.5711 20.0944 15.7029 20.0944 15.8402C20.0944 16.5069 20.6368 17.0493 21.3035 17.0493C21.97 17.0493 22.5124 16.5069 22.5124 15.8402C22.5124 15.1734 21.97 14.631 21.3035 14.631C20.9445 14.631 20.6217 14.7885 20.3999 15.0376L19.2376 14.3565V12.9774L20.5902 11.4897C21.009 11.6855 22.1126 12.0839 23.2458 11.5134C24.6969 10.7831 25.6026 8.77288 25.9382 5.5384C25.9389 5.5336 25.9384 5.5288 25.9386 5.524C25.9386 5.51968 25.9389 5.51464 25.9386 5.5096ZM17.5919 12.6222C17.9354 13.4978 17.6284 14.3202 17.422 14.7232L16.2551 13.4397L16.3379 11.1789C16.9602 11.6054 17.3826 12.0887 17.5919 12.6222ZM13.0156 12.0479L14.7527 12.4938L15.4463 13.2566L13.4032 13.137C13.259 12.8102 13.1296 12.4466 13.0156 12.0479ZM14.3142 10.216L14.5216 11.5331L12.9765 9.83344C13.457 9.94888 13.9031 10.0766 14.3142 10.216ZM12.6242 10.1529L14.1702 11.8535L12.8781 11.5218C12.7782 11.099 12.6935 10.6425 12.6242 10.1529ZM15.1041 12.1734L14.8252 10.4022C15.2111 10.5537 15.5608 10.7169 15.8728 10.8914L15.7977 12.9366L15.1041 12.1734ZM14.9627 15.0126C14.4513 14.7537 14.0099 14.2876 13.6446 13.6278L15.9035 13.7598L17.0702 15.0431C16.6492 15.2104 15.8015 15.4374 14.9627 15.0126ZM21.2433 26.2494H16.7562L15.9662 21.5562H22.0331L21.2433 26.2494ZM22.8633 20.7004C22.8633 20.9102 22.6926 21.0808 22.4829 21.0808H22.3144H15.6851H15.5166C15.3069 21.0808 15.1365 20.9102 15.1365 20.7004C15.1365 20.4909 15.3071 20.3202 15.5166 20.3202H22.4831C22.6926 20.3202 22.8633 20.4909 22.8633 20.7004ZM21.3033 15.1072C21.7077 15.1072 22.0367 15.4362 22.0367 15.8406C22.0367 16.2453 21.7077 16.5743 21.3033 16.5743C20.8986 16.5743 20.5696 16.2453 20.5696 15.8406C20.5696 15.4362 20.8986 15.1072 21.3033 15.1072ZM24.5966 9.2116L22.5532 9.33112L23.2468 8.5684L24.9839 8.12248C24.8697 8.52088 24.7406 8.88448 24.5966 9.2116ZM25.1212 7.59616L23.829 7.92784L25.3749 6.2272C25.306 6.7168 25.221 7.17328 25.1212 7.59616ZM22.2016 9.01096L22.1267 6.96544C22.4385 6.79096 22.7882 6.628 23.1741 6.47656L22.8952 8.24776L22.2016 9.01096ZM23.4774 7.60744L23.6848 6.29032C24.0959 6.15088 24.5423 6.02344 25.0226 5.908L23.4774 7.60744ZM20.4057 8.7016C20.614 8.16592 21.0374 7.68088 21.6614 7.25296L21.7442 9.51424L20.5768 10.7985C20.3699 10.3979 20.0634 9.58024 20.4057 8.7016ZM23.0368 11.087C22.198 11.512 21.3501 11.2847 20.9296 11.1174L22.096 9.83416L24.3549 9.70216C23.9894 10.3619 23.548 10.828 23.0368 11.087Z" fill="#3BC4D4"/>
</svg>
