<svg width="95" height="92" viewBox="0 0 95 92" fill="none" xmlns="http://www.w3.org/2000/svg">
<path d="M65.768 70.961H29.831L3.83804 83.307L5.54604 86.511L28.406 76.568L41.571 83.596L25.72 91.153H33.986L45.933 85.744L56.338 91.153H64.743L50.224 83.152L64.078 75.679L67.724 75.324L92.897 45.524L88.538 44.545L65.768 70.961ZM46.198 81.505L34.722 75.233H58.606L46.198 81.505ZM74.018 71.296L82.814 91.152L78.877 91.164L71.415 74.365L74.018 71.296ZM13.218 76.083C13.218 76.083 2.66504 81.225 2.65204 81.229C1.83404 81.529 1.01104 78.985 0.852038 78.457C-0.201962 74.937 3.60004 72.323 5.94204 70.476C11.658 65.963 18.55 61.78 25.413 59.289C27.353 58.584 29.371 58.066 31.433 57.887C35.14 57.568 38.867 57.488 42.585 57.47C46.97 57.449 51.338 57.518 55.717 57.771C56.926 57.84 58.147 57.863 59.347 57.657C60.88 57.389 62.367 56.89 63.763 56.206C64.879 55.659 65.836 54.963 66.837 54.242L70.129 51.841L77.689 53.796L64.879 67.852H29.831L13.218 76.083ZM48.243 19.814L5.54704 36.893L42.551 0.777954H94.899L52.07 18.125L65.945 51.84L62.833 53.795L48.243 19.814ZM76.797 37.339C80.484 37.339 83.469 40.325 83.469 44.008C83.469 47.694 80.484 50.681 76.797 50.681C73.113 50.681 70.128 47.694 70.128 44.008C70.128 40.326 73.113 37.339 76.797 37.339Z" fill="#AA00C6"/>
</svg>
