<svg width="24" height="24" viewBox="0 0 24 24" fill="none" xmlns="http://www.w3.org/2000/svg">
<path fill-rule="evenodd" clip-rule="evenodd" d="M5.92383 0.752708C5.53998 0.790976 5.24799 1.11401 5.24854 1.49978V3.74978H18.7515V1.49978C18.75 1.08544 18.4129 0.751121 17.9985 0.752708H6.00147C5.97564 0.751376 5.94965 0.751376 5.92383 0.752708ZM3 5.24978C1.76647 5.24978 0.75 6.26625 0.75 7.49978V16.4998C0.75 17.7333 1.76647 18.7498 3 18.7498H3.74854V13.4969C3.74937 12.9001 3.98719 12.3282 4.40968 11.9068C4.83218 11.4854 5.40475 11.2491 6.00147 11.2498H17.9985C18.2941 11.2492 18.5869 11.3069 18.8602 11.4196C19.1335 11.5322 19.3819 11.6976 19.5913 11.9063C19.8006 12.1149 19.9668 12.3628 20.0803 12.6357C20.1939 12.9086 20.2525 13.2013 20.2529 13.4969V18.7498H21C22.2335 18.7498 23.25 17.7333 23.25 16.4998V7.49978C23.25 6.26625 22.2335 5.24978 21 5.24978H3ZM6.00147 12.7498C5.58713 12.7482 5.25 13.0825 5.24854 13.4969V22.4998C5.24693 22.9163 5.58495 23.2543 6.00147 23.2527H17.9985C18.415 23.2543 18.7531 22.9163 18.7515 22.4998V13.4969C18.75 13.0825 18.4129 12.7482 17.9985 12.7498H6.00147Z" fill="#323232"/>
</svg>
