<svg width="24" height="24" viewBox="0 0 24 24" fill="none" xmlns="http://www.w3.org/2000/svg">
<path d="M23.3232 13.764C22.9378 12.731 22.1622 11.8906 21.1632 11.424C20.7942 11.2444 20.4027 11.1153 19.9992 11.04C19.908 11.0232 19.8144 11.0064 19.7232 10.9968H19.7112L19.5888 10.9848C16.6224 10.7448 15.0624 10.0248 14.292 9.49198C14.9808 8.85598 16.4256 7.92478 19.332 7.28158L19.4496 7.25518C19.9355 7.12807 20.397 6.92126 20.8152 6.64318C21.6343 6.11455 22.2495 5.32331 22.56 4.39918C22.5982 4.27787 22.6295 4.15447 22.6536 4.02958C22.7375 3.64702 22.7444 3.25159 22.6739 2.86634C22.6035 2.48108 22.4571 2.11369 22.2432 1.78558C22.1758 1.68637 22.1029 1.59102 22.0248 1.49998L21.9456 1.41838C21.888 1.36078 21.8328 1.30318 21.7728 1.25038C21.7128 1.19758 21.7032 1.19278 21.6696 1.16398C21.636 1.13518 21.552 1.07518 21.492 1.03198L21.36 0.95998C21.2976 0.92158 21.2352 0.88558 21.1704 0.85198L21.0456 0.78958C20.976 0.75838 20.9064 0.72958 20.832 0.70318L20.712 0.65758C20.628 0.63118 20.5416 0.60718 20.4552 0.58558L20.364 0.56158C20.2429 0.535004 20.1203 0.515769 19.9968 0.50398H19.9392C19.8432 0.47998 19.74 0.47998 19.632 0.47998C19.524 0.47998 19.4688 0.47998 19.392 0.47998H19.3152C19.2072 0.47998 19.0968 0.50158 18.9864 0.51838L18.8856 0.53758C18.8088 0.55198 18.7296 0.56638 18.6456 0.58558L18.5184 0.61918L18.3096 0.68158L18.18 0.72718L17.9712 0.80878L17.8488 0.86398C17.7744 0.89758 17.7 0.933581 17.628 0.971981L17.52 1.03678C17.4144 1.09678 17.3112 1.15918 17.208 1.22878C17.0852 1.31076 16.9667 1.39887 16.8528 1.49278C16.7784 1.55278 16.7112 1.61758 16.6416 1.68238C16.572 1.74718 16.5672 1.74478 16.5336 1.77838C15.9574 2.33792 15.5592 3.05508 15.3888 3.83998C15.3056 4.21932 15.2981 4.61136 15.3669 4.99358C15.4357 5.3758 15.5794 5.74066 15.7896 6.06718L12.3624 8.35918L10.2336 9.77998L8.5944 10.8744L1.2384 15.7824C1.2384 15.7824 1.3272 15.8496 1.4784 15.9384H1.4952L1.5984 15.9936H1.62C1.7064 16.0392 1.8024 16.0872 1.908 16.1328L1.9488 16.1496C1.9896 16.1688 2.0352 16.1856 2.0784 16.2024L2.1192 16.2168L2.2992 16.2744L2.4696 16.3152H2.5224L2.6712 16.3392H2.7216C2.78635 16.3428 2.85125 16.3428 2.916 16.3392C2.9544 16.3392 2.9928 16.3392 3.0288 16.3392H3.1392C3.17805 16.3335 3.21652 16.3255 3.2544 16.3152L3.36 16.32C3.40314 16.3069 3.44559 16.2917 3.4872 16.2744C3.5184 16.2744 3.5472 16.2552 3.5784 16.2408C3.64913 16.2083 3.71732 16.1706 3.7824 16.128L3.8352 16.0944L3.8904 16.0584C5.016 15.3384 10.1736 12.2784 12.5304 10.8912L16.248 12.6888C16.0846 13.0411 15.9927 13.4223 15.9774 13.8103C15.9622 14.1983 16.024 14.5856 16.1592 14.9496C16.5438 15.9825 17.3198 16.8224 18.3192 17.2872C18.4581 17.3551 18.6007 17.4152 18.7464 17.4672C18.7896 17.484 18.8352 17.496 18.8784 17.5104C18.984 17.5472 19.0896 17.5784 19.1952 17.604L19.332 17.6376C19.4592 17.664 19.572 17.6856 19.7088 17.7024H19.7712C19.913 17.7187 20.0557 17.7267 20.1984 17.7264H20.3208C20.4288 17.7264 20.5344 17.7264 20.64 17.7072L20.772 17.6928C20.892 17.676 21.012 17.6544 21.1296 17.628H21.1848C21.3159 17.5948 21.4449 17.5539 21.5712 17.5056L21.6792 17.46C21.771 17.4225 21.8608 17.38 21.948 17.3328C21.985 17.3155 22.021 17.2962 22.056 17.2752C22.1621 17.2147 22.2647 17.1482 22.3632 17.076L22.3872 17.0592C22.4941 16.9801 22.5951 16.8935 22.6896 16.8C22.716 16.7736 22.7424 16.7448 22.7664 16.716C22.8344 16.6399 22.8977 16.5598 22.956 16.476C22.9776 16.4448 23.0016 16.416 23.0232 16.3824C23.0991 16.272 23.1673 16.1565 23.2272 16.0368C23.3927 15.6831 23.4864 15.3001 23.5029 14.91C23.5194 14.5199 23.4583 14.1303 23.3232 13.764ZM19.0872 1.82398C20.352 1.82398 21.3792 2.71438 21.3792 3.81598C21.3713 4.13605 21.2836 4.44907 21.1239 4.72656C20.9642 5.00404 20.7376 5.23719 20.4648 5.40478C20.0546 5.67027 19.5758 5.81038 19.0872 5.80798C18.4906 5.81387 17.912 5.60423 17.4576 5.21758C17.2539 5.04478 17.0897 4.83019 16.9763 4.58835C16.8628 4.34651 16.8027 4.0831 16.8 3.81598C16.8 2.71438 17.82 1.82398 19.0872 1.82398ZM12.5352 10.0512C12.4568 10.0517 12.38 10.0288 12.3145 9.98561C12.2491 9.94239 12.198 9.88071 12.1676 9.80839C12.1373 9.73608 12.1291 9.65638 12.1441 9.57941C12.1591 9.50243 12.1967 9.43165 12.2519 9.37603C12.3072 9.3204 12.3778 9.28245 12.4547 9.26697C12.5315 9.2515 12.6113 9.2592 12.6838 9.2891C12.7563 9.319 12.8183 9.36975 12.8619 9.43493C12.9055 9.5001 12.9288 9.57676 12.9288 9.65518C12.9288 9.75979 12.8874 9.86015 12.8137 9.93435C12.7399 10.0085 12.6398 10.0505 12.5352 10.0512ZM21.9768 15.192C21.7682 15.5597 21.4634 15.8637 21.0951 16.0713C20.7269 16.2789 20.309 16.3823 19.8864 16.3704C18.6192 16.3704 17.592 15.4776 17.592 14.3784C17.5937 13.9738 17.7315 13.5816 17.9832 13.2648C18.2133 12.9839 18.5042 12.759 18.8338 12.6068C19.1635 12.4547 19.5234 12.3793 19.8864 12.3864C21.1536 12.3864 22.1808 13.2768 22.1808 14.3784C22.1799 14.6621 22.1099 14.9414 21.9768 15.192Z" fill="#C4C800"/>
<path d="M6.56162 8.10244C6.54794 8.19195 6.56782 8.28336 6.61743 8.35911C6.66705 8.43486 6.7429 8.48961 6.83042 8.51284C6.7958 8.55612 6.77135 8.60663 6.75888 8.66063C6.74642 8.71464 6.74626 8.77076 6.75842 8.82484C6.7817 8.93911 6.84151 9.04272 6.92882 9.12004L6.73202 9.33364C5.69762 10.6487 4.74924 12.0291 3.89282 13.4664L9.98162 9.40324L10.9416 8.76724L11.8584 8.16004L10.7784 7.70884C11.7576 6.94084 12.6816 6.16324 12.6144 5.54884C12.5256 4.76884 11.9232 3.89764 11.3328 3.70084C10.7424 3.50404 10.3896 4.36804 9.60002 4.32004C8.81042 4.27204 7.68002 3.02404 6.77282 4.21204C6.47282 4.60804 5.36402 4.26724 5.16002 4.62964C5.03522 4.85284 5.67362 5.51524 5.64002 5.52964C4.35122 4.98244 3.32402 4.53844 2.97842 4.37284C1.77842 3.79444 0.489624 5.06884 0.489624 5.06884L6.59282 8.02084C6.57892 8.04656 6.56843 8.07399 6.56162 8.10244Z" fill="#C4C800"/>
<path d="M8.41203 16.5767C8.41055 16.6828 8.44911 16.7857 8.52003 16.8647C8.62129 16.9642 8.73903 17.0454 8.86803 17.1047V16.0967C8.74308 16.1248 8.62842 16.1872 8.53683 16.2767C8.49599 16.315 8.46375 16.3616 8.44224 16.4133C8.42073 16.465 8.41043 16.5207 8.41203 16.5767Z" fill="#C4C800"/>
<path d="M9.48242 18.2712V19.3272C9.59983 19.2902 9.70511 19.2222 9.78722 19.1304C9.86531 19.0389 9.90714 18.9219 9.90482 18.8016C9.90843 18.6939 9.87354 18.5884 9.80642 18.504C9.71439 18.4063 9.60438 18.3273 9.48242 18.2712Z" fill="#C4C800"/>
<path d="M12.2063 11.6184C6.20633 15.1632 4.45193 16.2384 4.04633 16.5072C3.71093 16.7299 3.31611 16.8462 2.91353 16.8408C2.7303 16.8405 2.54764 16.8204 2.36873 16.7808C1.90553 18.3816 2.66873 20.88 3.61673 21.744C4.7716 22.7472 6.22309 23.3448 7.74953 23.4456C13.5911 23.9256 15.0119 22.0488 15.4055 20.1024C15.9479 17.436 15.3263 15.4536 12.7199 12.2616L12.2063 11.6184ZM10.6799 19.3464C10.6141 19.5029 10.5169 19.6442 10.3943 19.7616C10.2732 19.8784 10.1316 19.9719 9.97673 20.0376C9.88781 20.0764 9.79641 20.1093 9.70313 20.136C9.63912 20.1535 9.58273 20.1918 9.54278 20.2447C9.50283 20.2977 9.48157 20.3625 9.48233 20.4288V20.484C9.48233 20.5655 9.44996 20.6436 9.39235 20.7012C9.33474 20.7588 9.2566 20.7912 9.17513 20.7912C9.09365 20.7912 9.01552 20.7588 8.9579 20.7012C8.90029 20.6436 8.86793 20.5655 8.86793 20.484V20.4384C8.86858 20.3728 8.84786 20.3087 8.80889 20.2559C8.76993 20.2031 8.71483 20.1644 8.65193 20.1456C8.3939 20.0794 8.15322 19.9582 7.94633 19.7904C7.73595 19.6216 7.57097 19.403 7.46633 19.1544C7.45024 19.1166 7.44183 19.076 7.44158 19.035C7.44134 18.9939 7.44926 18.9532 7.4649 18.9152C7.48053 18.8773 7.50356 18.8428 7.53265 18.8138C7.56174 18.7848 7.5963 18.7619 7.63433 18.7464L7.87433 18.6456C7.94363 18.6185 8.02067 18.6188 8.08976 18.6464C8.15886 18.6741 8.21484 18.727 8.24633 18.7944C8.2903 18.8799 8.34341 18.9604 8.40473 19.0344C8.5311 19.1764 8.69631 19.2782 8.87993 19.3272V18.0144L8.80553 18C8.63923 17.9333 8.4787 17.853 8.32553 17.76C8.18173 17.6758 8.04943 17.5734 7.93193 17.4552C7.81947 17.3421 7.7284 17.2096 7.66313 17.064C7.59517 16.9132 7.56078 16.7494 7.56233 16.584C7.56093 16.4237 7.5911 16.2647 7.65113 16.116C7.71266 15.9656 7.80411 15.8292 7.91993 15.7152C8.03884 15.5959 8.17774 15.4985 8.33033 15.4272C8.42972 15.3811 8.53342 15.3449 8.63993 15.3192C8.70748 15.3045 8.76803 15.2673 8.81164 15.2137C8.85525 15.16 8.87933 15.0931 8.87993 15.024V14.9928C8.87993 14.9113 8.91229 14.8332 8.96991 14.7756C9.02752 14.718 9.10565 14.6856 9.18713 14.6856C9.2686 14.6856 9.34674 14.718 9.40435 14.7756C9.46196 14.8332 9.49433 14.9113 9.49433 14.9928V15.0456C9.49357 15.112 9.51483 15.1767 9.55478 15.2297C9.59473 15.2827 9.65112 15.3209 9.71513 15.3384C9.80469 15.3632 9.89153 15.397 9.97433 15.4392C10.1027 15.5022 10.2214 15.583 10.3271 15.6792C10.421 15.7618 10.5019 15.8581 10.5671 15.9648C10.6229 16.0594 10.6695 16.159 10.7063 16.2624L9.93113 16.608C9.89766 16.5121 9.84636 16.4233 9.77993 16.3464C9.70341 16.2571 9.60618 16.1879 9.49673 16.1448V17.1792C9.49735 17.2391 9.51507 17.2976 9.54781 17.3478C9.58055 17.3979 9.62694 17.4377 9.68153 17.4624C9.80873 17.52 9.92153 17.5776 10.0343 17.6376C10.1858 17.7162 10.3255 17.8156 10.4495 17.9328C10.5614 18.0399 10.6511 18.1679 10.7135 18.3096C10.7735 18.4625 10.8036 18.6254 10.8023 18.7896C10.8022 18.9819 10.7604 19.1718 10.6799 19.3464Z" fill="#C4C800"/>
</svg>
