<svg width="24" height="30" viewBox="0 0 24 30" fill="none" xmlns="http://www.w3.org/2000/svg">
<g opacity="0.5">
<path d="M10.992 19.9919C6.02397 19.9919 1.99197 15.9599 1.99197 10.9919C1.99197 6.02394 6.02397 1.99194 10.992 1.99194C15.96 1.99194 19.992 6.02394 19.992 10.9919C19.992 15.9599 15.96 19.9919 10.992 19.9919ZM10.992 4.00794C7.12797 4.00794 3.98397 7.15194 3.98397 11.0159C4.00797 14.8559 7.15197 17.9999 10.992 17.9999C14.832 17.9999 18 14.8559 18 10.9919C18 7.15194 14.856 4.00794 10.992 4.00794Z" fill="black"/>
<path d="M21 22.0081C20.736 22.0081 20.496 21.9121 20.304 21.7201L15.936 17.3521C15.552 16.9681 15.552 16.3201 15.936 15.9361C16.32 15.5521 16.968 15.5521 17.352 15.9361L21.696 20.2801C22.08 20.6641 22.08 21.3121 21.696 21.6961C21.504 21.9121 21.264 22.0081 21 22.0081Z" fill="black"/>
</g>
</svg>
