<svg width="33" height="36" viewBox="0 0 33 36" fill="none" xmlns="http://www.w3.org/2000/svg">
<g opacity="0.6">
<path d="M25.7096 14.952L25.3016 13.9632C26.7008 10.7352 26.6096 10.6392 26.336 10.3632L24.548 8.58L24.3704 8.4264H24.164C24.0536 8.4264 23.7296 8.4264 21.0104 9.684L20.0096 9.2712C18.716 6 18.584 6 18.2 6H15.6824C15.3032 6 15.1568 6 13.9592 9.2832L12.9632 9.696C11.1272 8.904 10.0496 8.496 9.7592 8.496H9.5192L7.5992 10.416C7.304 10.716 7.2008 10.8144 8.6816 13.992L8.2736 14.9784C5 16.2696 5 16.3944 5 16.8V19.3152C5 19.7112 5 19.8504 8.2856 21.0528L8.6936 22.0368C7.2944 25.2648 7.388 25.3608 7.6592 25.6368L9.4472 27.4224L9.6248 27.5784H9.8336C9.9416 27.5784 10.2632 27.5784 12.9848 26.3184L13.9832 26.7336C15.2768 30 15.4088 30 15.8 30H18.3128C18.6992 30 18.836 30 20.0384 26.7192L21.0392 26.3064C22.8752 27.0984 23.948 27.5064 24.2384 27.5064H24.4784L26.4176 25.5696C26.6936 25.2864 26.7896 25.188 25.3184 22.0224L25.724 21.036C29 19.7304 29 19.5936 29 19.2V16.6848C29 16.2888 29 16.1496 25.7096 14.952ZM17 22.1976C16.1688 22.1995 15.3557 21.9547 14.6637 21.4943C13.9717 21.0338 13.4319 20.3784 13.1126 19.611C12.7933 18.8436 12.7089 17.9987 12.8701 17.1832C13.0313 16.3678 13.4308 15.6186 14.018 15.0303C14.6052 14.4421 15.3538 14.0413 16.169 13.8787C16.9841 13.7162 17.8291 13.7991 18.5971 14.1171C19.3651 14.4351 20.0214 14.9737 20.4831 15.665C20.9447 16.3562 21.1909 17.1688 21.1904 18C21.1885 19.1114 20.7466 20.1769 19.9614 20.9635C19.1762 21.7501 18.1114 22.1938 17 22.1976Z" fill="white"/>
</g>
</svg>
