<svg width="24" height="30" viewBox="0 0 24 30" fill="none" xmlns="http://www.w3.org/2000/svg">
<g opacity="0.5">
<path d="M17.9102 15.4262C17.0133 15.4262 16.2038 15.7718 15.5817 16.3236L9.31942 12.7101C9.36646 12.4807 9.39094 12.2433 9.39094 12.0002C9.39094 11.7571 9.36622 11.52 9.31942 11.2908L15.582 7.67709C16.2041 8.22885 17.0133 8.57421 17.9102 8.57421C19.8564 8.57421 21.4341 6.99645 21.4341 5.05029C21.4341 3.10413 19.8566 1.52637 17.9102 1.52637C15.9638 1.52637 14.3863 3.10389 14.3863 5.05029C14.3863 5.29341 14.411 5.53077 14.4578 5.76021L8.19574 9.37389C7.57366 8.82189 6.7639 8.47629 5.86678 8.47629C3.92062 8.47629 2.34286 10.0538 2.34286 12.0002C2.34286 13.9466 3.92062 15.5241 5.86678 15.5241C6.76366 15.5241 7.57318 15.1785 8.19526 14.6268L14.4578 18.2409C14.411 18.4701 14.3863 18.7072 14.3863 18.9504C14.3863 20.8965 15.9638 22.4743 17.9102 22.4743C19.8566 22.4743 21.4341 20.8968 21.4341 18.9504C21.4341 17.004 19.8566 15.4262 17.9102 15.4262Z" fill="#323232"/>
</g>
</svg>
