<svg width="24" height="29" viewBox="0 0 24 29" fill="none" xmlns="http://www.w3.org/2000/svg">
<path d="M12.0364 5.76053e-07C15.2264 2.34752 19.5064 2.14729 23.7538 0.188762C24.3197 6.61063 23.956 11.881 22.1824 16.375C20.37 20.9669 17.0468 24.951 12.0364 28.9937C7.01811 24.9501 3.64303 20.973 1.80559 16.3939C0.0044444 11.9052 -0.353069 6.63901 0.309662 0.184043C4.56021 2.14837 8.84319 2.34752 12.0364 0V5.76053e-07ZM17.3925 9.48525C17.0823 9.49511 16.7777 9.63007 16.562 9.85333L10.1866 16.2287L7.4354 13.4775C6.54779 12.5531 4.80264 14.2982 5.72711 15.1858L9.33245 18.7959C9.78008 19.2458 10.5978 19.2458 11.0455 18.7959L18.2703 11.5569C18.96 10.8826 18.3567 9.45881 17.3925 9.48525Z" fill="#CD0866"/>
</svg>
