<svg width="24" height="30" viewBox="0 0 24 30" fill="none" xmlns="http://www.w3.org/2000/svg">
<g opacity="0.5" clip-path="url(#clip0)">
<path d="M4.488 4.12803C4.2 3.74403 3.6 3.74403 3.312 4.12803L0.768002 7.41603C0.384002 7.89603 0.744002 8.61603 1.368 8.61603H2.64V19.728C2.64 19.968 2.832 20.16 3.072 20.16H4.704C4.944 20.16 5.136 19.968 5.136 19.728V8.61603H6.432C7.056 8.61603 7.392 7.89603 7.032 7.41603L4.488 4.12803Z" fill="black"/>
<path d="M22.992 3.84003H9.55204C9.33604 3.84003 9.14404 4.03203 9.14404 4.24803V5.85603C9.14404 6.07203 9.33604 6.26403 9.55204 6.26403H22.992C23.208 6.26403 23.4 6.07203 23.4 5.85603V4.24803C23.4 4.00803 23.208 3.84003 22.992 3.84003Z" fill="black"/>
<path d="M19.704 8.47205H9.55199C9.31199 8.47205 9.12 8.64005 9.12 8.88005V10.488C9.12 10.704 9.312 10.896 9.528 10.896H19.68C19.896 10.896 20.088 10.704 20.088 10.488V8.88005C20.112 8.64005 19.92 8.47205 19.704 8.47205Z" fill="black"/>
<path d="M16.392 13.1041H9.55204C9.33604 13.1041 9.14404 13.2961 9.14404 13.5121V15.1201C9.14404 15.3361 9.33604 15.5281 9.55204 15.5281H16.416C16.632 15.5281 16.824 15.3361 16.824 15.1201V13.5121C16.824 13.2721 16.632 13.1041 16.392 13.1041Z" fill="black"/>
<path d="M13.104 17.736H9.55204C9.33604 17.736 9.14404 17.928 9.14404 18.144V19.752C9.14404 19.968 9.33604 20.16 9.55204 20.16H13.128C13.344 20.16 13.536 19.968 13.536 19.752V18.144C13.512 17.928 13.344 17.736 13.104 17.736Z" fill="black"/>
</g>
<defs>
<clipPath id="clip0">
<rect width="24" height="30" fill="white"/>
</clipPath>
</defs>
</svg>
