<svg width="24" height="29" viewBox="0 0 24 29" fill="none" xmlns="http://www.w3.org/2000/svg">
<path d="M6.98642 1.06613V10.1402C5.25164 10.644 3.9816 12.2424 3.9816 14.1402C3.9816 16.4422 5.84782 18.3084 8.14985 18.3084C8.9575 18.3084 9.70878 18.075 10.347 17.6775C10.3467 17.6772 10.3467 17.6772 10.3464 17.6766C12.262 19.2087 14.5781 20.3406 17.1249 20.9575C17.5636 21.0638 18.0123 21.1546 18.458 21.2291C18.491 21.2344 18.524 21.2367 18.5564 21.2367C18.843 21.2367 19.0962 21.0296 19.1444 20.7372C19.1982 20.4118 18.9782 20.1042 18.6528 20.0502C18.2357 19.9816 17.8163 19.896 17.4059 19.7967C15.1109 19.2411 13.0212 18.2395 11.2785 16.89C11.1754 17.0092 10.9975 17.1812 10.831 17.3229C10.6607 17.4675 10.4957 17.5831 10.3458 17.6757C9.34774 16.8774 8.45597 15.9728 7.70177 14.9718C7.50314 14.7086 7.55572 14.3341 7.8189 14.1358C8.08237 13.9375 8.45655 13.9897 8.65459 14.2532C9.39477 15.2358 10.279 16.1194 11.2756 16.8906C11.9217 16.1565 12.3172 15.1955 12.3172 14.1399C12.3172 12.2421 11.0478 10.6435 9.3124 10.1399V0.513773C9.73565 0.462071 10.1662 0.432861 10.6035 0.432861C15.4152 0.432861 19.8528 4.04641 20.7744 8.02568C20.9788 8.91015 21.2105 11.2212 21.2105 11.2212L23.9343 16.614C23.9787 16.713 24 16.8278 24 16.9458C24 17.4166 23.62 17.7996 23.1465 17.7996H21.2107V20.9487C21.2107 23.4129 20.1361 25.093 17.0314 25.093H16.2953V28.9703H4.0552V19.9696C1.58726 18.0295 0 14.4221 0 11.0395C0 6.45126 2.91047 2.54503 6.98642 1.06613ZM19.8128 12.2988C19.8128 11.7277 19.3501 11.2651 18.779 11.2651C18.2077 11.2651 17.745 11.7277 17.745 12.2988C17.745 12.8698 18.2077 13.3328 18.779 13.3328C19.3501 13.3328 19.8128 12.8695 19.8128 12.2988Z" fill="#EC340C"/>
</svg>
