<svg width="30" height="38" viewBox="0 0 30 38" fill="none" xmlns="http://www.w3.org/2000/svg">
<circle cx="15" cy="15" r="15" fill="#24DA48" fill-opacity="0.3"/>
<g clip-path="url(#clip0)">
<path d="M15.04 7C13.3221 7 11.5948 7.65519 10.285 8.965C9.31091 9.93908 8.72039 11.1474 8.47 12.4075C5.92818 12.9006 4 15.1204 4 17.8C4 20.8401 6.47992 23.32 9.52 23.32H21.28C23.9267 23.32 26.08 21.1667 26.08 18.52C26.08 16.022 24.1556 13.9885 21.715 13.765C21.7263 12.0276 21.1092 10.2867 19.7875 8.965C18.4788 7.65626 16.7579 7 15.04 7ZM15.04 8.44C16.3932 8.44 17.7332 8.94312 18.7675 9.9775C19.9628 11.1728 20.4686 12.7967 20.2825 14.35C20.2698 14.4512 20.2787 14.5539 20.3086 14.6514C20.3386 14.7489 20.3889 14.8389 20.4563 14.9155C20.5236 14.9921 20.6065 15.0535 20.6994 15.0956C20.7922 15.1378 20.893 15.1597 20.995 15.16H21.28C23.1539 15.16 24.64 16.6461 24.64 18.52C24.64 20.3939 23.1539 21.88 21.28 21.88H9.52C7.25819 21.88 5.44 20.0618 5.44 17.8C5.44 15.664 7.06444 13.9239 9.145 13.735C9.30817 13.7191 9.46103 13.648 9.57831 13.5335C9.69559 13.4189 9.77027 13.2677 9.79 13.105C9.92248 11.9638 10.4275 10.855 11.305 9.9775C12.3383 8.94419 13.6868 8.44 15.04 8.44ZM15.04 12.76C14.8 12.76 14.673 12.8372 14.5525 12.9475L11.9125 15.3475C11.6077 15.6304 11.613 16.0895 11.8675 16.3675C12.122 16.6454 12.6082 16.6655 12.8875 16.4125L14.32 15.1075V19.72C14.32 20.1176 14.6423 20.44 15.04 20.44C15.4377 20.44 15.76 20.1176 15.76 19.72V15.1075L17.1925 16.4125C17.4718 16.6655 17.9433 16.6312 18.2125 16.3675C18.4962 16.0895 18.4442 15.6033 18.1675 15.3475L15.5275 12.9475C15.3849 12.8169 15.28 12.76 15.04 12.76Z" fill="#24DA48"/>
</g>
<defs>
<clipPath id="clip0">
<rect width="24" height="30" fill="white" transform="translate(3 8)"/>
</clipPath>
</defs>
</svg>
