<svg width="24" height="38" viewBox="0 0 24 38" fill="none" xmlns="http://www.w3.org/2000/svg">
<g clip-path="url(#clip0)">
<path d="M11.7177 9.65277C11.8969 9.65277 12.0545 9.56386 12.1517 9.4287C12.1568 9.4287 12.1615 9.42941 12.1668 9.42941C12.3422 9.42941 12.5282 9.40128 12.6938 9.33001C12.8149 9.27828 12.8709 9.13811 12.819 9.01701C12.7673 8.89591 12.6261 8.83989 12.506 8.89186C12.4185 8.92929 12.3196 8.94502 12.2235 8.94955C12.2225 8.94693 12.2221 8.9443 12.2211 8.94168C12.2795 8.90092 12.3339 8.8542 12.3796 8.79484C12.46 8.69043 12.4402 8.54073 12.3358 8.46063C12.2314 8.3803 12.0819 8.39984 12.0016 8.50449C11.956 8.56361 11.8964 8.58649 11.8328 8.59508C11.7956 8.58697 11.7572 8.58197 11.7177 8.58197C11.4221 8.58197 11.1823 8.82178 11.1823 9.11737C11.1823 9.41296 11.4221 9.65277 11.7177 9.65277Z" fill="#0D5800"/>
<path d="M7.43753 8.58199C7.39796 8.58199 7.35958 8.58699 7.32239 8.5951C7.25874 8.58651 7.19891 8.56363 7.15338 8.50451C7.07304 8.4001 6.92381 8.38031 6.81917 8.46065C6.71475 8.54075 6.69497 8.69045 6.7753 8.79486C6.82083 8.85422 6.87542 8.90094 6.93383 8.94146C6.93311 8.94337 6.93263 8.94528 6.93216 8.94719C6.83132 8.94361 6.73049 8.92812 6.65254 8.89307C6.53168 8.83944 6.39103 8.89355 6.33763 9.01346C6.28376 9.1336 6.33787 9.27472 6.45802 9.32836C6.61249 9.39749 6.79914 9.42514 6.97912 9.42514C6.98627 9.42514 6.99295 9.42419 7.0001 9.42395C7.09688 9.56173 7.2566 9.65232 7.43777 9.65232C7.73336 9.65232 7.97317 9.41251 7.97317 9.11691C7.97317 8.82132 7.73336 8.58199 7.43753 8.58199Z" fill="#0D5800"/>
<path d="M11.503 7.51257C11.5092 7.51138 12.1317 7.40983 12.5622 7.71305C12.6039 7.74261 12.6518 7.75668 12.6992 7.75668C12.7741 7.75668 12.848 7.72164 12.8942 7.6556C12.97 7.54786 12.9443 7.3991 12.8368 7.3233C12.2423 6.90446 11.4542 7.037 11.4208 7.04296C11.2914 7.06585 11.2053 7.18885 11.2275 7.31829C11.2504 7.44797 11.3753 7.53498 11.503 7.51257Z" fill="#0D5800"/>
<path d="M18.2674 23.3542C18.2109 23.3824 18.1678 23.4317 18.1475 23.4918C18.0398 23.8114 18.0629 24.1538 18.2124 24.456C18.3621 24.7585 18.6207 24.9843 18.9404 25.092C19.0729 25.1369 19.2093 25.159 19.3452 25.159C19.5371 25.159 19.7275 25.1147 19.9047 25.027C20.2072 24.8773 20.4329 24.6186 20.5407 24.2989C20.5828 24.1743 20.5159 24.0391 20.3909 23.9969L18.4493 23.3418C18.39 23.3221 18.3242 23.3266 18.2674 23.3542ZM19.9781 24.3609C19.9047 24.461 19.8076 24.543 19.6932 24.5998C19.5054 24.693 19.2922 24.7073 19.0927 24.6403C18.8939 24.5731 18.733 24.4324 18.6398 24.2444C18.5831 24.1299 18.5554 24.006 18.5578 23.8818L19.9781 24.3609Z" fill="#0D5800"/>
<path d="M21.1144 23.7192C21.3119 23.7192 21.472 23.5591 21.472 23.3616C21.472 23.1641 21.3119 23.004 21.1144 23.004C20.9169 23.004 20.7568 23.1641 20.7568 23.3616C20.7568 23.5591 20.9169 23.7192 21.1144 23.7192Z" fill="#0D5800"/>
<path d="M18.3191 22.9685C18.5166 22.9685 18.6767 22.8084 18.6767 22.611C18.6767 22.4135 18.5166 22.2534 18.3191 22.2534C18.1216 22.2534 17.9615 22.4135 17.9615 22.611C17.9615 22.8084 18.1216 22.9685 18.3191 22.9685Z" fill="#0D5800"/>
<path d="M23.5474 26.2711C23.6334 25.7194 23.4263 25.4217 23.1927 25.262C23.5316 24.6949 23.7183 24.0396 23.7183 23.3614C23.7183 21.5943 22.4744 20.1144 20.817 19.7454C20.8093 19.743 20.8022 19.7411 20.7943 19.7394C20.5416 19.6848 20.2804 19.6545 20.0117 19.6545C18.3821 19.6545 16.9979 20.7115 16.5011 22.1745C15.4987 20.6956 14.3549 19.7025 13.3129 19.0376C13.311 19.0362 13.3101 19.0338 13.3082 19.0324C13.3046 19.03 13.3006 19.0297 13.297 19.0274C12.8786 18.7616 12.4767 18.5465 12.1082 18.3766C12.107 18.3761 12.106 18.3754 12.1048 18.3749C11.7725 18.2219 11.4662 18.1027 11.1995 18.0121L11.2004 17.5925C12.246 17.4981 13.4207 16.8123 14.0467 16.1635C14.292 15.9091 14.461 15.6557 14.5482 15.414C14.7537 15.557 14.8727 15.6986 14.8727 16.0195C14.8727 16.1127 14.927 16.1973 15.0117 16.2362C15.0963 16.2743 15.1959 16.2609 15.2665 16.2002C16.5437 15.1007 16.7039 12.9532 16.687 10.7961C16.687 8.26111 16.1642 0 9.45713 0C2.81869 0 2.30283 8.40199 2.30283 10.9753C2.28519 13.1982 2.26993 15.1179 3.52811 16.2006C3.59867 16.2614 3.69831 16.2753 3.78294 16.2366C3.86756 16.1978 3.92191 16.1129 3.92191 16.0199C3.92191 15.6898 4.04778 15.5491 4.26471 15.4018C4.70381 16.4702 6.6869 17.4567 7.81802 17.5887L7.81635 18.0307C5.26567 18.9101 1.02248 21.5969 0.00101735 29.7679C-0.00756438 29.8356 0.0136516 29.9038 0.0587057 29.9552C0.104475 30.0067 0.169315 30.0361 0.23773 30.0361H1.94025C1.94073 30.0361 1.9412 30.0363 1.94168 30.0363C1.94216 30.0363 1.94263 30.0361 1.94335 30.0361L11.2314 30.0363C11.2314 30.0363 11.2314 30.0363 11.2316 30.0363H11.2319H12.8414H13.2708H22.5068C22.5443 30.0363 22.5784 30.026 22.6101 30.0105C22.9686 29.9235 23.2408 29.6418 23.2928 29.2835C23.3071 29.1784 23.3016 29.0735 23.2775 28.9719C23.5302 28.8406 23.708 28.6036 23.7457 28.3266C23.7753 28.1247 23.7295 27.9228 23.6215 27.7502C23.8201 27.6141 23.955 27.4058 23.9908 27.1619C24.0425 26.8007 23.8558 26.4565 23.5474 26.2711ZM23.0854 26.1249L22.5679 26.042C22.6954 25.9204 22.8141 25.7907 22.9223 25.6532C23.0351 25.7292 23.1116 25.8644 23.0854 26.1249ZM19.9006 20.1373C19.7299 20.2917 19.5907 20.4791 19.5006 20.6979C19.3419 21.0839 19.3435 21.5092 19.5047 21.8949C19.6081 22.143 19.8022 22.3363 20.0513 22.4391C20.1757 22.4908 20.3066 22.5163 20.437 22.5163C20.5681 22.5163 20.699 22.4906 20.8232 22.4386C21.3366 22.2238 21.58 21.6312 21.3655 21.1177C21.3192 21.0064 21.2317 20.9199 21.1195 20.8736C21.0072 20.8279 20.8842 20.8281 20.7733 20.8743C20.662 20.9206 20.5755 21.0081 20.5295 21.1201C20.4832 21.2326 20.4835 21.3556 20.5299 21.467C20.5812 21.5885 20.7137 21.6617 20.8353 21.6107C20.9013 21.5831 20.9466 21.5337 20.9659 21.4748C20.9791 21.6949 20.8537 21.9092 20.6394 21.9988C20.5094 22.0534 20.365 22.0534 20.2336 21.9988C20.1018 21.9442 19.9993 21.8424 19.9447 21.7113C19.8324 21.4429 19.8315 21.1473 19.9416 20.8791C20.0518 20.6107 20.2603 20.4012 20.5288 20.2891C20.6012 20.2588 20.6744 20.2324 20.7402 20.2176C22.171 20.5492 23.2415 21.8314 23.2415 23.3616C23.2415 24.3788 22.7567 25.3347 21.945 25.9421L21.1562 25.8158C20.9073 25.7776 20.6591 25.8389 20.4584 25.9876C20.2625 26.133 20.1357 26.3438 20.1018 26.58C20.1013 26.5831 20.1018 26.5864 20.1013 26.5895C20.0715 26.5903 20.0429 26.5917 20.0115 26.5917C18.2291 26.5917 16.779 25.1428 16.779 23.3616C16.7793 21.6179 18.17 20.1964 19.9006 20.1373ZM18.6946 29.5595C17.8205 29.5595 16.3473 28.8756 15.8291 28.0263C15.5745 27.6096 14.8245 26.3786 16.5852 24.7778C16.6088 24.8343 16.6362 24.8887 16.6624 24.9438C16.5835 25.3614 16.3125 27.3204 17.9528 28.1626C18.6703 28.5314 19.2892 28.643 19.7752 28.643C19.8541 28.643 19.9245 28.6368 19.9962 28.6315C19.9669 28.7068 19.9469 28.7869 19.939 28.8708C19.9173 29.0983 19.9838 29.3235 20.1164 29.483C20.1388 29.5119 20.1636 29.535 20.1879 29.5595H18.6946ZM20.227 27.1569C20.0768 27.2603 19.9612 27.405 19.9013 27.5729C19.8794 27.6286 19.8651 27.6849 19.8568 27.744C19.8372 27.8878 19.8577 28.0296 19.9078 28.1621C19.4699 28.1845 18.8803 28.1035 18.1707 27.7385C17.1974 27.2389 17.0481 26.2558 17.0672 25.6069C17.7457 26.4932 18.8115 27.0687 20.0117 27.0687C20.0701 27.0687 20.1254 27.067 20.1795 27.0646C20.1941 27.0956 20.2084 27.1271 20.227 27.1569ZM7.0285 18.8686C7.05568 18.8893 7.08285 18.9096 7.11003 18.9294L6.96891 19.132C6.85234 19.2841 6.67546 19.3716 6.4838 19.3716C6.3782 19.3716 6.28499 19.3513 6.20442 19.312C6.48642 19.1423 6.76223 18.9952 7.0285 18.8686ZM7.37058 19.3926L7.37272 19.3864L7.5055 19.1954C7.84591 19.4004 8.17821 19.5437 8.49907 19.6371L8.40587 20.0279C8.2893 20.1783 8.11433 20.2648 7.92386 20.2648C7.58703 20.2648 7.31289 19.9907 7.31289 19.6538C7.31313 19.568 7.33029 19.4851 7.37058 19.3926ZM8.9644 19.742C9.15343 19.7714 9.33794 19.7866 9.51577 19.7866C9.67549 19.7866 9.82877 19.7737 9.97799 19.7547L10.071 20.1313C9.99706 20.3907 9.75892 20.5754 9.48526 20.5754H9.45808C9.18395 20.5754 8.94556 20.3902 8.87214 20.1304L8.9644 19.742ZM10.536 20.0271L10.4467 19.665C10.8595 19.559 11.214 19.399 11.4929 19.2414L11.5659 19.3747L11.578 19.4076C11.6123 19.4851 11.6297 19.5678 11.6297 19.6534C11.6297 19.9902 11.3556 20.2643 11.0188 20.2643C10.8288 20.2648 10.6545 20.1785 10.536 20.0271ZM11.9804 19.1389L11.8965 18.9856C11.9547 18.9439 12.0054 18.9058 12.0457 18.8738C12.2789 18.9859 12.5251 19.1175 12.7792 19.2681C12.6789 19.3315 12.5666 19.3718 12.4588 19.3718C12.2705 19.3721 12.097 19.2865 11.9804 19.1389ZM4.97246 13.4652C4.51095 12.6962 4.13026 11.2256 3.94242 9.50498C4.44135 9.31022 4.95744 8.58745 5.58653 7.70473C6.38082 6.58934 7.36605 5.2084 8.27118 5.16811C9.03901 5.55572 9.98681 5.75119 10.9186 5.94142C13.0657 6.38004 15.0937 6.79435 15.149 9.32119C14.969 11.1203 14.5771 12.6683 14.0991 13.4652C13.4624 14.5265 11.6605 16.2102 9.5358 16.2102C7.4111 16.2102 5.60918 14.5265 4.97246 13.4652ZM3.47805 9.64634C3.59486 10.68 3.77722 11.6106 4.00702 12.3706C3.5703 12.284 3.161 11.9195 2.97101 11.4035C2.70736 10.6857 2.9374 9.92477 3.47805 9.64634ZM15.5935 9.64634C16.1344 9.92477 16.3645 10.6857 16.1006 11.4035C15.9108 11.9198 15.502 12.2845 15.0646 12.3708C15.2946 11.6106 15.4767 10.68 15.5935 9.64634ZM15.2586 15.5263C15.1237 15.2085 14.8605 15.0438 14.62 14.8931L14.5084 14.8223C14.4336 14.7737 14.3382 14.7708 14.261 14.8147C14.1838 14.8586 14.137 14.9417 14.1404 15.0307C14.148 15.2481 13.9931 15.5327 13.7034 15.8328C13.0781 16.481 12.0085 17.0178 11.2011 17.112L11.2028 16.3804C12.7618 15.8116 13.9907 14.572 14.5077 13.7105C14.6465 13.479 14.7768 13.1956 14.8975 12.8702C15.385 12.8633 15.8496 12.612 16.1859 12.1987C16.1185 13.5281 15.8934 14.7417 15.2586 15.5263ZM9.45713 0.476763C14.8348 0.476763 15.9552 6.29255 16.1652 9.47328C16.0293 9.33978 15.8708 9.23132 15.6896 9.15909C15.6667 9.15003 15.6417 9.14264 15.6176 9.13478C15.4608 6.38457 13.102 5.90089 11.014 5.47443C9.35081 5.13474 7.78012 4.81387 7.28023 3.49658C7.23375 3.37334 7.09549 3.31159 6.97296 3.35808C6.84971 3.4048 6.78797 3.54235 6.8347 3.66559C7.02063 4.15594 7.32314 4.52782 7.70336 4.81864C6.78487 5.20244 5.9503 6.37217 5.19821 7.42796C4.64612 8.20318 4.02037 9.08185 3.68425 9.08185C3.67972 9.08185 3.6759 9.08424 3.67161 9.08448C3.66732 9.08472 3.66375 9.08281 3.65946 9.08329C3.65588 9.08352 3.65302 9.08591 3.64944 9.08638C3.64611 9.08686 3.64301 9.08567 3.63967 9.08615C3.54432 9.1045 3.45993 9.12834 3.38222 9.15909C3.16291 9.24634 2.97554 9.38579 2.82345 9.56029C3.03967 6.03629 4.2125 0.476763 9.45713 0.476763ZM4.65446 15.0097C4.64993 14.9246 4.60035 14.8483 4.52454 14.8097C4.44874 14.7708 4.35768 14.7756 4.2864 14.8221L4.17484 14.8929C3.93407 15.0435 3.6709 15.2087 3.53574 15.5265C2.92405 14.7663 2.79556 13.6433 2.77864 12.059C3.11857 12.5565 3.63276 12.8626 4.17365 12.8702C4.29427 13.1958 4.42466 13.4793 4.5634 13.7105C5.0752 14.5634 6.28547 15.7856 7.82255 16.3618L7.81969 17.1113C6.6397 16.9627 4.6957 15.8059 4.65446 15.0097ZM8.12076 18.4317C8.18584 18.4104 8.24591 18.3454 8.27333 18.2824C8.28596 18.2529 8.2924 18.2212 8.29264 18.189L8.29907 16.5165C8.6955 16.6242 9.10933 16.6867 9.5358 16.6867C9.94557 16.6867 10.3434 16.6273 10.7258 16.5272L10.722 18.1558C10.7084 18.2686 10.7766 18.3766 10.8867 18.4114C11.0822 18.4734 11.307 18.5547 11.5496 18.6541C11.5275 18.6696 11.5041 18.6855 11.4798 18.7017C11.4769 18.7032 11.4736 18.7029 11.4707 18.7046C11.4636 18.7084 11.4593 18.7151 11.4529 18.7196C11.1527 18.9163 10.6962 19.1542 10.1318 19.2605C10.1217 19.2617 10.112 19.2593 10.102 19.2619C10.096 19.2634 10.0917 19.2677 10.0857 19.2696C9.36988 19.3938 8.48644 19.2998 7.53172 18.6469C7.73697 18.5644 7.93483 18.4922 8.12076 18.4317ZM5.77128 19.5892C5.96008 19.7575 6.20585 19.8488 6.48404 19.8488C6.60919 19.8488 6.73076 19.8279 6.84471 19.788C6.91122 20.3249 7.3701 20.7416 7.92434 20.7416C8.14985 20.7416 8.36344 20.6741 8.54198 20.5506C8.73769 20.855 9.08001 21.0522 9.45808 21.0522H9.48526C9.86333 21.0522 10.2056 20.8548 10.4016 20.5504C10.5804 20.6741 10.7937 20.7416 11.019 20.7416C11.5732 20.7416 12.0321 20.3249 12.0986 19.788C12.2126 19.8279 12.3339 19.8488 12.4593 19.8488C12.7311 19.8488 13.0023 19.7332 13.2095 19.5396C14.2484 20.2298 15.3802 21.2648 16.348 22.8131C16.3211 22.9926 16.3027 23.1747 16.3027 23.3616C16.3027 23.6813 16.3478 23.99 16.4243 24.2863C16.0543 24.6019 15.7545 24.9213 15.5263 25.2444C15.3356 25.3018 14.8944 25.4615 14.4307 25.8141C14.1757 25.483 13.6064 24.8775 12.7528 24.7178C11.9897 24.575 11.1942 24.8224 10.3871 25.4541C9.15605 26.4172 8.61588 26.9767 8.25855 27.3466C7.92553 27.6916 7.81325 27.8081 7.45711 27.9245C7.22946 27.9991 6.78893 28.0961 6.27903 28.2081C5.57461 28.3631 4.67615 28.5614 3.81369 28.8141V25.2045C3.81369 25.0727 3.70713 24.9662 3.57531 24.9662C3.44348 24.9662 3.33693 25.0727 3.33693 25.2045V28.9612C2.79962 29.1359 2.29568 29.3343 1.88304 29.5591H0.509485C1.27517 23.9225 3.62132 21.051 5.77128 19.5892ZM13.0071 29.5595H12.9327C12.5685 29.2241 12.3687 28.7304 12.2941 28.5133C12.6326 28.0751 12.942 27.796 13.1849 27.6203C13.0226 28.1486 12.9439 28.7865 13.0071 29.5595ZM11.9666 28.9798C12.0455 29.1552 12.1549 29.3605 12.2996 29.5595H11.6235C11.7387 29.3459 11.8533 29.155 11.9666 28.9798ZM13.4846 26.9075C13.2369 26.9998 12.578 27.3266 11.8343 28.3319C11.83 28.3381 11.8247 28.3433 11.8212 28.35C11.5809 28.6768 11.3332 29.0751 11.0872 29.5595H8.33388C7.95271 29.1526 7.79394 28.7116 7.86951 28.273C8.15581 28.1373 8.32553 27.964 8.60158 27.6782C8.94985 27.3176 9.47596 26.7726 10.681 25.8298C11.3063 25.3404 11.9101 25.1192 12.4777 25.1643C11.7423 25.4119 10.6688 25.9688 9.73413 27.2267C9.6557 27.3323 9.67763 27.4818 9.78324 27.5602C9.82614 27.5919 9.87597 27.6072 9.92531 27.6072C9.99826 27.6072 10.07 27.5738 10.117 27.5111C11.4135 25.7657 13.024 25.487 13.3299 25.4489C13.4555 25.5259 13.5692 25.6112 13.6684 25.6975C12.9628 25.8706 11.5992 26.3881 10.6757 27.9037C10.6071 28.0163 10.6426 28.1629 10.7551 28.2313C10.794 28.2551 10.8366 28.2661 10.8791 28.2661C10.9594 28.2661 11.0381 28.2253 11.0827 28.1519C12.0598 26.5483 13.6209 26.1788 14.0524 26.1051C14.0581 26.1125 14.0648 26.1209 14.0703 26.1278C13.8588 26.3392 13.6565 26.5962 13.4846 26.9075ZM3.63133 29.3674C3.64778 29.3633 3.66375 29.36 3.67853 29.3529C4.60154 29.0663 5.60989 28.8437 6.3813 28.6739C6.78488 28.5853 7.12505 28.5102 7.3763 28.4439C7.36772 28.8256 7.48524 29.2051 7.72481 29.5593H3.06326C3.24634 29.4923 3.43657 29.4284 3.63133 29.3674ZM15.1392 29.5595C14.466 28.7495 14.6453 28.1354 14.655 28.1042C14.6965 27.9805 14.6307 27.846 14.5072 27.8031C14.3835 27.7595 14.2472 27.8255 14.204 27.95C14.1926 27.9826 13.9656 28.6697 14.5451 29.5595H13.4874C13.3983 28.5457 13.5668 27.7903 13.8469 27.2303C13.8472 27.2301 13.8472 27.2298 13.8472 27.2296C14.0331 26.8582 14.2667 26.5721 14.5065 26.3535C14.5215 26.3438 14.533 26.3309 14.5451 26.3185C14.7585 26.1309 14.9738 25.9955 15.1614 25.8992C14.846 26.6768 14.9311 27.4711 15.4219 28.2747C15.7354 28.7881 16.3294 29.2408 16.9702 29.5593H15.1392V29.5595ZM23.5188 27.094C23.494 27.2625 23.3572 27.3953 23.1698 27.432C23.0756 27.4506 23.002 27.5235 22.9824 27.6174C22.9631 27.7114 23.0017 27.8077 23.0806 27.862C23.2213 27.959 23.2952 28.1107 23.2735 28.2599C23.2508 28.4263 23.108 28.5614 22.9183 28.5962C22.8406 28.6105 22.7745 28.6625 22.7431 28.735C22.7114 28.8077 22.7178 28.8911 22.7598 28.9581C22.8124 29.0413 22.8327 29.129 22.8208 29.217C22.7953 29.3929 22.6442 29.53 22.4487 29.5574L20.5535 29.2537C20.533 29.2375 20.5111 29.2144 20.4878 29.1843C20.4308 29.1159 20.4036 29.0179 20.4134 28.9157C20.422 28.8244 20.4591 28.7428 20.5094 28.694L21.7969 28.9004C21.8098 28.9026 21.8222 28.9035 21.8348 28.9035C21.9497 28.9035 22.0511 28.8201 22.0699 28.7028C22.0909 28.5729 22.0024 28.4506 21.8723 28.4296L20.5369 28.2153C20.5209 28.2048 20.504 28.1946 20.4904 28.1836C20.3705 28.0873 20.3102 27.9469 20.3292 27.8081C20.3323 27.786 20.3373 27.7659 20.3476 27.7393C20.3922 27.6148 20.5061 27.5207 20.6468 27.4842L21.9259 27.6894C21.9388 27.6916 21.9512 27.6925 21.9638 27.6925C22.0787 27.6925 22.18 27.6091 22.1989 27.4918C22.201 27.4789 22.202 27.4663 22.202 27.4537C22.202 27.3388 22.1185 27.2377 22.0012 27.2189L20.7342 27.0155C20.617 26.9178 20.5538 26.7817 20.5736 26.6479C20.5891 26.538 20.6491 26.4394 20.7426 26.3702C20.8403 26.2978 20.9624 26.2682 21.0823 26.2863L23.1119 26.6115C23.3648 26.6491 23.551 26.8701 23.5188 27.094Z" fill="#0D5800"/>
<path d="M16.6177 18.327L17.2864 19.6476C17.3286 19.7306 17.4123 19.7783 17.4995 19.7783C17.5355 19.7783 17.5725 19.7702 17.607 19.7528C17.7243 19.6932 17.7713 19.5497 17.7119 19.4321L17.0433 18.1115C16.9837 17.9942 16.8409 17.9468 16.7226 18.0066C16.6053 18.066 16.5584 18.2095 16.6177 18.327Z" fill="#0D5800"/>
<path d="M15.2295 18.9959C15.132 19.0843 15.1244 19.235 15.2126 19.3327L16.0543 20.2638C16.1015 20.3158 16.1664 20.3423 16.2312 20.3423C16.2882 20.3423 16.3454 20.322 16.3912 20.2808C16.4887 20.1923 16.4963 20.0417 16.4081 19.9439L15.5664 19.0128C15.4774 18.9153 15.327 18.9077 15.2295 18.9959Z" fill="#0D5800"/>
<path d="M18.7864 19.122C18.7993 19.122 18.8122 19.121 18.8255 19.1187C18.9555 19.0972 19.0434 18.9747 19.0217 18.8448L18.8022 17.5163C18.7807 17.3866 18.6596 17.2965 18.5283 17.3201C18.3984 17.3415 18.3106 17.4641 18.3321 17.594L18.5516 18.9225C18.5707 19.039 18.6718 19.122 18.7864 19.122Z" fill="#0D5800"/>
<path d="M9.70901 11.6166C10.14 11.6166 10.4663 11.5014 10.6792 11.2743C10.9362 11.0001 10.9207 10.6747 10.9186 10.6607C10.9286 10.1503 10.5119 9.93146 10.2909 9.88736C10.2637 9.88163 10.0184 9.8361 9.79173 9.94218C9.70567 9.98247 9.64393 10.0006 9.59125 10.0006H9.32545C9.27277 10.0006 9.21127 9.98271 9.12497 9.94218C8.89827 9.83586 8.65322 9.88163 8.62676 9.88712C8.40482 9.93146 7.98813 10.1503 7.99886 10.6385C7.996 10.6747 7.9805 11.0001 8.23748 11.2743C8.45059 11.5014 8.77694 11.6166 9.20578 11.6166C9.2127 11.6166 9.21961 11.6166 9.22652 11.6166H9.68827C9.69518 11.6166 9.70209 11.6166 9.70901 11.6166ZM9.22438 11.1398C8.92831 11.1353 8.71067 11.0776 8.59005 10.9532C8.46966 10.829 8.47443 10.6762 8.47515 10.6511C8.47062 10.4285 8.66394 10.3675 8.72139 10.3543C8.73117 10.3524 8.75644 10.3493 8.78838 10.3493C8.82938 10.3493 8.88111 10.3546 8.92283 10.3741C9.02557 10.4223 9.16407 10.4773 9.32521 10.4773H9.59101C9.75239 10.4773 9.89089 10.4223 9.9934 10.3741C10.0649 10.3405 10.165 10.3489 10.196 10.3546C10.2063 10.3567 10.4463 10.4075 10.4418 10.6695C10.442 10.6759 10.4468 10.829 10.3264 10.9529C10.2056 11.0776 9.98672 11.1432 9.68994 11.1396H9.22438V11.1398Z" fill="#0D5800"/>
</g>
<defs>
<clipPath id="clip0">
<rect width="24" height="37.5454" fill="white"/>
</clipPath>
</defs>
</svg>
