<svg width="24" height="30" viewBox="0 0 24 30" fill="none" xmlns="http://www.w3.org/2000/svg">
<path d="M2.01035 16.7851V17.2851H2.51035H23.2439V22.6298H21.9368V18.9482V18.4482H21.4368H2.51035H2.01035V18.9482V22.6298H0.716859L0.722251 7.9556H2.01035V16.7851Z" stroke="#060058"/>
<path d="M16.9972 2.55288C16.9972 3.1812 16.4875 3.69088 15.8582 3.69088C15.2297 3.69088 14.7214 3.18211 14.7214 2.55288C14.7214 1.92288 15.2297 1.4144 15.8582 1.4144C16.4876 1.4144 16.9972 1.92374 16.9972 2.55288Z" stroke="#060058"/>
<path d="M3.79022 8.33233L3.79119 8.33053C4.0861 7.78137 4.77103 7.57473 5.32486 7.87161C5.87063 8.16805 6.07745 8.8538 5.78372 9.40666C5.48321 9.95478 4.79748 10.1586 4.24859 9.86601C3.69638 9.56443 3.49388 8.87881 3.79022 8.33233Z" stroke="#060058"/>
<path d="M3.6958 15.5947V11.4743H6.92268V15.5947H3.6958Z" stroke="#060058"/>
<path d="M23.2437 12.4817V12.4824L23.2439 15.5944L8.69458 15.5946V11.4742L22.152 11.4743L22.1532 11.4742C22.5454 11.4733 22.8095 11.5964 22.9735 11.7583C23.1383 11.9208 23.2441 12.1637 23.2437 12.4817Z" stroke="#060058"/>
<path d="M17.8627 9.73912H13.9058L14.5349 7.28352L14.6947 6.65944H14.0505H13.5345H13.1908L13.0677 6.98032L12.1166 9.45904L12.1118 9.47136L12.1078 9.48391C12.0698 9.60091 12.0177 9.65832 11.9795 9.68698C11.9399 9.71669 11.894 9.7315 11.8446 9.73222L11.6939 9.7344L8.78733 9.73144L8.78642 9.73144C8.60351 9.73159 8.51402 9.67551 8.47342 9.63641C8.42943 9.59405 8.40703 9.53803 8.4071 9.47902C8.40718 9.41994 8.42985 9.36224 8.4756 9.31797C8.51779 9.27714 8.60837 9.22065 8.78996 9.21921L11.2948 9.2216L11.6391 9.22193L11.7623 8.90038L12.7117 6.42046L12.7195 6.40018L12.7254 6.3793C12.8653 5.89075 13.3857 5.09409 14.3668 5.09409H17.4839C18.4549 5.09409 19.0254 5.89916 19.1929 6.39051L20.1539 9.73888H19.6158L18.8626 7.0257L18.7609 6.65944H18.3808H17.7863H17.1593L17.2989 7.27078L17.8627 9.73912Z" stroke="#060058"/>
</svg>
