<svg width="29" height="19" viewBox="0 0 29 19" fill="none" xmlns="http://www.w3.org/2000/svg">
<path fill-rule="evenodd" clip-rule="evenodd" d="M4.63402 16.7041H3.46301C1.80701 16.7041 0.463013 15.3611 0.463013 13.7041C0.463013 11.0431 0.463013 6.3651 0.463013 3.7041C0.463013 2.9081 0.779018 2.1451 1.34202 1.5831C1.90502 1.0201 2.66801 0.704102 3.46301 0.704102C6.92701 0.704102 14 0.704102 17.463 0.704102C18.259 0.704102 19.022 1.0201 19.585 1.5831C20.147 2.1451 20.463 2.9081 20.463 3.7041V4.7041H21.663C22.947 4.7041 24.182 5.1981 25.112 6.0831C25.898 6.8321 26.906 7.79211 27.541 8.39711C28.13 8.95811 28.463 9.73611 28.463 10.5501C28.463 11.7141 28.463 13.7971 28.463 14.9261C28.463 15.9081 27.667 16.7041 26.685 16.7041H24.292C23.88 17.8691 22.769 18.7041 21.463 18.7041C20.158 18.7041 19.047 17.8691 18.634 16.7041H10.292C9.88002 17.8691 8.76901 18.7041 7.46301 18.7041C6.15801 18.7041 5.04702 17.8691 4.63402 16.7041ZM7.46301 14.7041C8.01501 14.7041 8.46301 15.1521 8.46301 15.7041C8.46301 16.2561 8.01501 16.7041 7.46301 16.7041C6.91201 16.7041 6.46301 16.2561 6.46301 15.7041C6.46301 15.1521 6.91201 14.7041 7.46301 14.7041ZM21.463 14.7041C22.015 14.7041 22.463 15.1521 22.463 15.7041C22.463 16.2561 22.015 16.7041 21.463 16.7041C20.912 16.7041 20.463 16.2561 20.463 15.7041C20.463 15.1521 20.912 14.7041 21.463 14.7041ZM15.463 8.7041H5.46301C4.91201 8.7041 4.46301 9.1521 4.46301 9.7041C4.46301 10.2561 4.91201 10.7041 5.46301 10.7041H15.463C16.015 10.7041 16.463 10.2561 16.463 9.7041C16.463 9.1521 16.015 8.7041 15.463 8.7041ZM15.463 5.7041H7.46301C6.91201 5.7041 6.46301 6.1521 6.46301 6.7041C6.46301 7.2561 6.91201 7.7041 7.46301 7.7041H15.463C16.015 7.7041 16.463 7.2561 16.463 6.7041C16.463 6.1521 16.015 5.7041 15.463 5.7041Z" fill="#00747B"/>
</svg>
