<svg width="85" height="98" viewBox="0 0 85 98" fill="none" xmlns="http://www.w3.org/2000/svg">
<path fill-rule="evenodd" clip-rule="evenodd" d="M47.759 21.133H77.929C81.657 21.133 84.68 24.155 84.68 27.884V27.886C84.68 31.254 82.214 34.046 78.988 34.554L72.06 91.703C71.624 95.297 68.574 98 64.954 98H19.726C16.106 98 13.056 95.297 12.62 91.703L5.692 34.554C2.467 34.046 0 31.254 0 27.886V27.884C0 24.155 3.023 21.133 6.751 21.133H15.386L15.406 58.038C15.406 62.234 18.808 65.636 23.004 65.636H40.141C44.337 65.636 47.739 62.234 47.739 58.038V50.714L51.585 52.149C54.858 53.371 58.505 51.706 59.726 48.432C60.947 45.157 59.284 41.515 56.01 40.292L47.739 37.205L47.759 21.133ZM38.111 61.736H40.141C42.183 61.736 43.839 60.08 43.839 58.038V45.096L52.948 48.495C54.204 48.964 55.603 48.326 56.071 47.07C56.54 45.813 55.902 44.415 54.646 43.946L43.839 39.912V21.017H19.306V58.038C19.306 60.08 20.962 61.736 23.004 61.736H25.035V51.814C25.035 50.733 25.913 49.854 26.995 49.854C28.076 49.854 28.955 50.733 28.955 51.814V61.736H34.191V51.814C34.191 50.733 35.069 49.854 36.151 49.854C37.232 49.854 38.111 50.733 38.111 51.814V61.736ZM49.48 17.633C49.634 14.323 51.679 11.507 54.558 10.24V3.92C54.558 1.755 56.313 0 58.478 0H67.072C69.237 0 70.992 1.755 70.992 3.92V10.24C73.871 11.507 75.916 14.323 76.07 17.633H49.48Z" fill="#0B7146"/>
</svg>
