<svg width="24" height="28" viewBox="0 0 24 28" fill="none" xmlns="http://www.w3.org/2000/svg">
<path fill-rule="evenodd" clip-rule="evenodd" d="M4.82964 0C4.52816 0.00464577 4.28737 0.252493 4.29167 0.553973V7.22515C4.09121 7.24916 3.90483 7.34047 3.76302 7.48417C3.6212 7.62786 3.53234 7.81542 3.51097 8.01617C3.4896 8.21693 3.53699 8.41901 3.64538 8.58933C3.75377 8.75966 3.91675 8.88817 4.10766 8.95383C4.17108 8.97675 4.22946 8.99689 4.29167 9.01913V20.0167H5.38403V9.39537C6.56865 9.77601 7.55014 9.96488 8.54719 9.72658C9.58591 9.47837 10.4107 8.78322 11.2685 7.66765V16.1025H11.2691V26.5825C11.267 26.7512 11.2984 26.9185 11.3615 27.0749C11.4245 27.2313 11.518 27.3737 11.6365 27.4937C11.755 27.6137 11.8961 27.7089 12.0517 27.7739C12.2073 27.839 12.3743 27.8724 12.5429 27.8724C12.7116 27.8724 12.8785 27.839 13.0341 27.7739C13.1897 27.7089 13.3309 27.6137 13.4493 27.4937C13.5678 27.3737 13.6613 27.2313 13.7244 27.0749C13.7875 26.9185 13.8189 26.7512 13.8167 26.5825V16.1025H14.8884V26.5825C14.8863 26.7512 14.9177 26.9186 14.9807 27.075C15.0438 27.2314 15.1373 27.3737 15.2558 27.4937C15.3743 27.6137 15.5154 27.709 15.671 27.774C15.8266 27.8391 15.9936 27.8726 16.1622 27.8726C16.3309 27.8726 16.4978 27.8391 16.6534 27.774C16.8091 27.709 16.9502 27.6137 17.0687 27.4937C17.1872 27.3737 17.2807 27.2314 17.3437 27.075C17.4068 26.9186 17.4382 26.7512 17.436 26.5825V16.1025V15.336V7.90833L20.2559 12.7925C19.5895 13.2229 19.1502 14.062 19.1502 14.9986H19.0474C18.9745 14.9986 18.9025 15.0145 18.8365 15.0453C18.7704 15.076 18.7118 15.1208 18.6649 15.1765C18.6179 15.2322 18.5837 15.2975 18.5646 15.3678C18.5455 15.4382 18.542 15.5118 18.5543 15.5836L19.2214 19.4646C19.2333 19.5338 19.2596 19.5997 19.2987 19.6581C19.3377 19.7164 19.3886 19.7659 19.4481 19.8033C19.4481 19.8033 19.6443 19.9174 19.9389 19.9971C20.2334 20.0768 20.668 20.1489 21.2736 20.1489C21.8792 20.1489 22.3137 20.0768 22.6082 19.9971C22.9028 19.9174 23.099 19.8033 23.099 19.8033C23.1585 19.7659 23.2094 19.7164 23.2484 19.6581C23.2875 19.5997 23.3138 19.5338 23.3257 19.4646L23.9928 15.5836C24.0051 15.5118 24.0016 15.4382 23.9825 15.3678C23.9634 15.2975 23.9292 15.2322 23.8822 15.1765C23.8353 15.1208 23.7767 15.076 23.7106 15.0453C23.6446 15.0145 23.5726 14.9986 23.4997 14.9986H23.3969C23.3969 14.0064 22.9038 13.1243 22.1701 12.7208C22.1602 12.5813 22.1176 12.446 22.0457 12.326L18.2083 5.67922C18.1313 5.54183 18.0193 5.42728 17.8836 5.34723C17.748 5.26719 17.5935 5.22449 17.436 5.22349H11.2688V5.22659C11.2622 5.22652 11.2556 5.22652 11.2489 5.22659C11.1041 5.23095 10.9626 5.27051 10.8365 5.34187C10.7104 5.41322 10.6036 5.51424 10.5254 5.63614C9.45169 7.25711 8.78297 7.83863 8.13293 7.99398C7.57094 8.12827 6.737 7.96612 5.38432 7.51182V0.555882C5.38875 0.24796 5.13784 -0.0027176 4.82993 0.00192818L4.82964 0ZM14.3471 0C13.0943 0 12.0754 1.01883 12.0754 2.27154C12.0754 3.5321 13.0947 4.54311 14.3471 4.54311C15.6076 4.54311 16.6292 3.5321 16.6292 2.27154C16.6292 1.01883 15.6076 0 14.3471 0ZM20.5317 13.2668C20.6122 13.3912 20.7224 13.4937 20.8524 13.5648C20.9824 13.636 21.1281 13.6737 21.2763 13.6744C21.4246 13.6751 21.5706 13.6388 21.7013 13.5689C21.832 13.499 21.9432 13.3976 22.0248 13.2739C22.5092 13.6024 22.8504 14.2393 22.8504 14.9987H19.6961C19.6961 14.2341 20.042 13.5934 20.5317 13.2668V13.2668ZM4.04973 20.3444C3.97731 20.3433 3.90539 20.3566 3.83817 20.3835C3.77094 20.4105 3.70975 20.4505 3.65815 20.5014C3.60654 20.5522 3.56557 20.6128 3.5376 20.6796C3.50963 20.7464 3.49522 20.8181 3.49522 20.8905C3.49522 20.963 3.50963 21.0347 3.5376 21.1015C3.56557 21.1683 3.60654 21.2289 3.65815 21.2797C3.70975 21.3305 3.77094 21.3706 3.83817 21.3975C3.90539 21.4245 3.97731 21.4378 4.04973 21.4367H5.62598C5.6984 21.4378 5.77031 21.4245 5.83754 21.3975C5.90476 21.3706 5.96596 21.3305 6.01756 21.2797C6.06916 21.2289 6.11014 21.1683 6.13811 21.1015C6.16608 21.0347 6.18048 20.963 6.18048 20.8905C6.18048 20.8181 6.16608 20.7464 6.13811 20.6796C6.11014 20.6128 6.06916 20.5522 6.01756 20.5014C5.96596 20.4505 5.90476 20.4105 5.83754 20.3835C5.77031 20.3566 5.6984 20.3433 5.62598 20.3444H4.04973ZM4.68883 21.6867C4.38916 21.6898 4.08947 21.7477 3.80821 21.8653C3.16284 22.1355 2.66017 22.7052 2.4992 23.3942C2.38236 23.8941 2.4395 24.3434 2.36425 24.6953C2.27416 25.1169 1.99228 25.5073 1.6205 25.7254C1.2488 25.9435 0.770336 25.9991 0.358423 25.872C0.0401469 25.774 -0.204852 26.1576 0.250148 26.6294C0.705137 27.1012 1.36886 27.4943 2.09084 27.7021C2.88579 27.9309 3.74047 27.9319 4.53607 27.7052C5.12711 27.5369 5.68786 27.2425 6.14975 26.8224C6.61234 26.4013 6.96862 25.8578 7.14365 25.2473C7.31904 24.6354 7.30591 23.968 7.0741 23.3649C6.84174 22.7602 6.39301 22.2409 5.80562 21.9461C5.45937 21.7723 5.07411 21.6833 4.68883 21.6866V21.6867Z" fill="#9F17CF"/>
</svg>
