<svg width="28" height="31" viewBox="0 0 28 31" fill="none" xmlns="http://www.w3.org/2000/svg">
<g opacity="0.6">
<path d="M14 6.4908C15.2401 6.4908 16.2454 5.4855 16.2454 4.2454C16.2454 3.0053 15.2401 2 14 2C12.7599 2 11.7546 3.0053 11.7546 4.2454C11.7546 5.4855 12.7599 6.4908 14 6.4908Z" fill="white"/>
<path d="M18.1495 9.83382C19.3896 9.83382 20.3949 8.82852 20.3949 7.58842C20.3949 6.34832 19.3896 5.34302 18.1495 5.34302C16.9094 5.34302 15.9041 6.34832 15.9041 7.58842C15.9041 8.82852 16.9094 9.83382 18.1495 9.83382Z" fill="white"/>
<path d="M9.8538 9.83382C11.0939 9.83382 12.0992 8.82852 12.0992 7.58842C12.0992 6.34832 11.0939 5.34302 9.8538 5.34302C8.6137 5.34302 7.6084 6.34832 7.6084 7.58842C7.6084 8.82852 8.6137 9.83382 9.8538 9.83382Z" fill="white"/>
<path d="M22.262 6.4908C23.5021 6.4908 24.5074 5.4855 24.5074 4.2454C24.5074 3.0053 23.5021 2 22.262 2C21.0219 2 20.0166 3.0053 20.0166 4.2454C20.0166 5.4855 21.0219 6.4908 22.262 6.4908Z" fill="white"/>
<path d="M5.74125 6.4908C6.98135 6.4908 7.98665 5.4855 7.98665 4.2454C7.98665 3.0053 6.98135 2 5.74125 2C4.50115 2 3.49585 3.0053 3.49585 4.2454C3.49585 5.4855 4.50115 6.4908 5.74125 6.4908Z" fill="white"/>
<path d="M17.748 21.0139V15.5527C17.748 14.5822 16.9549 13.7825 15.9845 13.7825H12.0191C11.0486 13.7825 10.2522 14.5822 10.2522 15.5527V21.0139C10.2522 21.8974 10.9215 22.6269 11.7681 22.754V27.4121C11.7681 28.155 12.2065 28.7708 12.7653 28.7708H15.2349C15.7937 28.7708 16.2321 28.155 16.2321 27.4121V22.754C17.0787 22.6269 17.748 21.8974 17.748 21.0139Z" fill="white"/>
<path d="M14 13.1801C15.2401 13.1801 16.2454 12.1748 16.2454 10.9347C16.2454 9.69463 15.2401 8.68933 14 8.68933C12.7599 8.68933 11.7546 9.69463 11.7546 10.9347C11.7546 12.1748 12.7599 13.1801 14 13.1801Z" fill="white"/>
<path d="M24.2465 7.08978H21.0206C21.0474 7.26714 21.0641 7.41773 21.0641 7.58839C21.0641 8.45509 20.6827 9.23144 20.0803 9.76686H20.1305C21.4724 9.76686 22.5633 10.8645 22.5633 12.2063V17.6676C22.5633 18.6581 21.9375 19.5382 21.0474 19.9096V22.0781H23.4969C24.0558 22.0781 24.4841 21.4657 24.4841 20.7195V16.0613C25.3307 15.9342 26 15.2047 26 14.3212V8.86C26 7.88956 25.217 7.08978 24.2465 7.08978Z" fill="white"/>
<path d="M9.58281 21.0139V15.5527C9.58281 14.2075 10.6771 13.1132 12.0156 13.1132H12.0691C11.4668 12.5778 11.0887 11.8014 11.0887 10.9347C11.0887 10.7741 11.1021 10.6168 11.1288 10.4596C11.1456 10.3659 11.1656 10.2688 11.1891 10.1785C10.9649 10.2956 10.7239 10.3893 10.4696 10.4361H7.87283C6.90239 10.4361 6.10596 11.2359 6.10596 12.2064V17.6676C6.10596 18.551 6.77523 19.2805 7.62185 19.4077V24.0658C7.62185 24.8087 8.06357 25.4244 8.61906 25.4244H11.0887L11.1021 25.4211V23.2526C10.2086 22.8845 9.58281 22.0045 9.58281 21.0139Z" fill="white"/>
<path d="M21.8973 17.6676V12.2064C21.8973 11.2359 21.1043 10.4361 20.1338 10.4361H17.5371C17.2827 10.3926 17.0418 10.2956 16.8176 10.1818C16.841 10.2722 16.8611 10.3659 16.8778 10.4629C16.9046 10.6168 16.918 10.7741 16.918 10.9381C16.918 11.8048 16.5365 12.5812 15.9375 13.1166H15.9877C17.3296 13.1166 18.4205 14.2108 18.4205 15.5561V21.0173C18.4205 22.0078 17.7947 22.8879 16.9046 23.2593V25.4244L16.918 25.4278H19.3876C19.9464 25.4278 20.3848 24.8121 20.3848 24.0692V19.4077C21.2281 19.2805 21.8973 18.551 21.8973 17.6676Z" fill="white"/>
<path d="M14 8.02007C14.4785 8.02007 14.9336 8.13719 15.3318 8.34466C15.2683 8.10373 15.2314 7.8494 15.2314 7.58839C15.2314 7.41773 15.2448 7.26714 15.2749 7.08978H12.7217C12.7485 7.26714 12.7652 7.41773 12.7652 7.58839C12.7652 7.8494 12.7317 8.10373 12.6648 8.34466C13.0697 8.13719 13.5215 8.02007 14 8.02007Z" fill="white"/>
<path d="M5.43335 17.6676V12.2063C5.43335 10.8611 6.52761 9.76686 7.86949 9.76686H7.92303C7.32069 9.23144 6.93921 8.45509 6.93921 7.58839C6.93921 7.41773 6.95259 7.27049 6.98271 7.08978H3.75683C2.78639 7.08978 2 7.88956 2 8.86335V14.3246C2 15.208 2.66927 15.9375 3.5159 16.0647V20.7228C3.5159 21.4657 3.94757 22.0814 4.50307 22.0814H6.94925V19.913C6.05912 19.5382 5.43335 18.6581 5.43335 17.6676Z" fill="white"/>
</g>
</svg>
